<svg xmlns="http://www.w3.org/2000/svg" xmlns:xlink="http://www.w3.org/1999/xlink" width="306" height="475.643" viewBox="0 0 306 475.643">
  <defs>
    <linearGradient id="linear-gradient" x1="0.866" y1="-0.188" x2="0.036" y2="1.287" gradientUnits="objectBoundingBox">
      <stop offset="0" stop-color="#fafafa"/>
      <stop offset="1" stop-color="#eee"/>
    </linearGradient>
    <filter id="Rectangle_33" x="101.5" y="169.613" width="105" height="58" filterUnits="userSpaceOnUse">
      <feOffset dy="1" input="SourceAlpha"/>
      <feGaussianBlur stdDeviation="0.5" result="blur"/>
      <feFlood flood-color="#ccc"/>
      <feComposite operator="in" in2="blur"/>
      <feComposite in="SourceGraphic"/>
    </filter>
    <filter id="Rectangle_536" x="0" y="0" width="306" height="475.643" filterUnits="userSpaceOnUse">
      <feOffset dy="3" input="SourceAlpha"/>
      <feGaussianBlur stdDeviation="28" result="blur-2"/>
      <feFlood flood-opacity="0.129"/>
      <feComposite operator="in" in2="blur-2"/>
      <feComposite in="SourceGraphic"/>
    </filter>
    <linearGradient id="linear-gradient-2" x1="0.5" x2="0.5" y2="1" gradientUnits="objectBoundingBox">
      <stop offset="0" stop-color="#3367b1"/>
      <stop offset="1" stop-color="#215eb5"/>
    </linearGradient>
    <clipPath id="clip-path">
      <g transform="matrix(1, 0, 0, 1, 0, 0)" filter="url(#Rectangle_33)">
        <rect id="Rectangle_33-2" data-name="Rectangle 33" width="102" height="55" rx="20" transform="translate(0 0)" fill="url(#linear-gradient)"/>
      </g>
    </clipPath>
  </defs>
  <g id="Group_3123" data-name="Group 3123" transform="translate(-727 -1187.887)">
    <g id="Group_3122" data-name="Group 3122">
      <g id="Group_3118" data-name="Group 3118">
        <g id="Image-accept-your-certificate" transform="translate(805.017 1268.886)">
          <g transform="matrix(1, 0, 0, 1, -78.02, -81)" filter="url(#Rectangle_536)">
            <rect id="Rectangle_536-2" data-name="Rectangle 536" width="138" height="307.643" rx="10" transform="translate(84 81)" fill="#fff"/>
          </g>
          <g id="Light_iPhone_X" data-name="Light / iPhone X" transform="translate(-3.016 -2.01)">
            <path id="Shape" d="M20.271,0H131.034A20.271,20.271,0,0,1,151.3,20.271v269.67a20.27,20.27,0,0,1-20.271,20.271H20.271A20.271,20.271,0,0,1,0,289.941V20.271A20.271,20.271,0,0,1,20.271,0Z" transform="translate(3.016 2.01)" fill="#161f3d"/>
            <path id="Shape-2" data-name="Shape" d="M1.448,2.9A1.448,1.448,0,1,0,0,1.448,1.448,1.448,0,0,0,1.448,2.9Z" transform="translate(61.294 11.783)" fill="#dedede"/>
            <path id="Shape-3" data-name="Shape" d="M2.413,4.826A2.413,2.413,0,1,0,0,2.413,2.413,2.413,0,0,0,2.413,4.826Z" transform="translate(93.872 10.818)" fill="#dedede"/>
            <path id="Shape-4" data-name="Shape" d="M.965,0H17.133a.965.965,0,1,1,0,1.931H.965A.965.965,0,0,1,.965,0" transform="translate(69.74 12.266)" fill="#dedede"/>
            <path id="Shape-5" data-name="Shape" d="M13.272,0A13.264,13.264,0,0,0,0,13.256V280.3A13.264,13.264,0,0,0,13.272,293.56h109.2A13.264,13.264,0,0,0,135.74,280.3V13.256A13.264,13.264,0,0,0,122.468,0h-14.6V0q-.06,0-.121,0A1.447,1.447,0,0,0,106.3,1.447v.722a8.689,8.689,0,0,1-8.7,8.677H38.14a8.688,8.688,0,0,1-8.7-8.677V1.447A1.447,1.447,0,0,0,27.992,0q-.061,0-.121,0V0Z" transform="translate(10.859 9.973)" fill="#f3f3f3"/>
            <text id="My_certificates" data-name="My certificates" transform="translate(78.79 69.613)" fill="#161f3d" font-size="9" font-family="SegoeUI, Segoe UI"><tspan x="-28.716" y="0">My certificates</tspan></text>
          </g>
        </g>
      </g>
    </g>
    <g id="wallet" transform="translate(690.295 1171.018)">
      <rect id="Rectangle_73" data-name="Rectangle 73" width="102" height="55" rx="7" transform="translate(139.705 186.982)" fill="url(#linear-gradient-2)"/>
      <rect id="Rectangle_35" data-name="Rectangle 35" transform="translate(163.705 218.982)" fill="#fff"/>
      <g id="Group_3021" data-name="Group 3021" transform="translate(148.797 229.52)">
        <path id="Path_9760" data-name="Path 9760" d="M.532,0H4.257A.532.532,0,0,1,4.79.532V4.151a.532.532,0,0,1-.532.532H.532A.532.532,0,0,1,0,4.151V.532A.532.532,0,0,1,.532,0Z" transform="translate(0 2.266)" fill="#fff"/>
        <path id="Path_9761" data-name="Path 9761" d="M.532,0H4.257A.532.532,0,0,1,4.79.532V4.151a.532.532,0,0,1-.532.532H.532A.532.532,0,0,1,0,4.151V.532A.532.532,0,0,1,.532,0Z" transform="translate(3.001 0)" fill="#fff"/>
        <path id="ic_device_hub_24px" d="M4.834,4.7,4.31,4.179V3.762a.393.393,0,1,0-.262,0v.417L3.524,4.7H3v.655h.655v-.4l.524-.55.524.55v.4h.655V4.7Z" transform="translate(-1.723 0.437)" fill="#3367b1"/>
        <path id="ic_tv_24px" d="M3.5,3H1.25A.25.25,0,0,0,1,3.25v1.5A.25.25,0,0,0,1.25,5h.624v.25h1V5H3.5a.249.249,0,0,0,.249-.25V3.25A.25.25,0,0,0,3.5,3Zm0,1.748H1.25V3.25H3.5Z" transform="translate(3.11 -1.811)" fill="#3367b1"/>
      </g>
      <g id="Group_3054" data-name="Group 3054" transform="translate(148.143 199.67)">
        <text id="Student_card" data-name="Student card" transform="translate(-0.438 6.312)" fill="#fff" font-size="8" font-family="SegoeUI-Bold, Segoe UI" font-weight="700"><tspan x="0" y="0">Student card</tspan></text>
        <text id="University_of_web_design" data-name="University of web design" transform="translate(-0.438 14.312)" fill="#9dc5ff" font-size="5" font-family="SegoeUI, Segoe UI"><tspan x="0" y="0">University of web design</tspan></text>
      </g>
      <g id="APPROVED" transform="translate(212.814 230.453)">
        <rect id="Rectangle_36" data-name="Rectangle 36" width="20.652" height="5.36" rx="2.68" transform="translate(0)" fill="#fff"/>
        <text id="APPROVED-2" data-name="APPROVED" transform="translate(6.833 3.369)" fill="#262424" font-size="2" font-family="Arial-BoldMT, Arial" font-weight="700"><tspan x="0" y="0">APPROVED</tspan></text>
        <circle id="Ellipse_452" data-name="Ellipse 452" cx="2.207" cy="2.207" r="2.207" transform="translate(0.473 0.473)" fill="#56b113"/>
        <path id="checkmark" d="M2.345,4.231l-.21-.21a.074.074,0,0,0-.1,0L.957,5.154.342,4.539a.075.075,0,0,0-.106,0l-.213.213a.075.075,0,0,0,0,.106l.875.9a.073.073,0,0,0,.062.02.074.074,0,0,0,.064-.02L2.345,4.336a.074.074,0,0,0,0-.1Z" transform="translate(1.519 -2.018)" fill="#fff"/>
      </g>
      <g id="Group_3072" data-name="Group 3072" transform="translate(212.924 196.147)">
        <circle id="Ellipse_453" data-name="Ellipse 453" cx="10.5" cy="10.5" r="10.5" transform="translate(-0.219 1.835)" fill="#83b2f4"/>
        <g id="Group_3051" data-name="Group 3051" transform="translate(1.618)">
          <path id="path778" d="M162.1-236.9c-.432.615-2.838,2.816-3.549,2.317s.544-3.509.976-4.124l13.317-18.955a1.478,1.478,0,0,1,2.069-.21,1.478,1.478,0,0,1,.5,2.017L162.1-236.9" transform="translate(-158.334 258.194)" fill="#3367b1"/>
          <path id="path780" d="M174.912-257.253a1.792,1.792,0,0,0-.455-.23,1.362,1.362,0,0,1,.031,1.525L161.171-237a9.27,9.27,0,0,1-2.83,2.282c-.023.356.033.634.208.757.71.5,3.116-1.7,3.549-2.317l13.317-18.955a1.478,1.478,0,0,0-.5-2.017" transform="translate(-158.336 257.574)" fill="#2a5698"/>
          <path id="path782" d="M159.988-110.207l-.464.661c-.432.615-1.686,3.625-.976,4.124s3.116-1.7,3.549-2.317l.464-.661-2.572-1.807" transform="translate(-158.334 129.031)" fill="#192b45"/>
          <path id="path784" d="M162.216-100.325l-.336.478c-.432.615-2.333,3.348-3.043,2.849a.436.436,0,0,0,.149.2c.71.5,3.116-1.7,3.549-2.317l.464-.661-.783-.55" transform="translate(-158.773 120.406)" fill="#0d1c31"/>
          <path id="path786" d="M224.341-239.966l-2-1.405-1.059-.744,5.811-8.271,3.059,2.149-5.811,8.271" transform="translate(-213.275 251.379)" fill="#f5f122"/>
          <path id="path788" d="M228.833-240.775l-5.8,8.259-1.74-1.223-.008.012,1.059.744,2,1.405,5.811-8.271-1.319-.927" transform="translate(-213.275 242.991)" fill="#c9c60f"/>
          <path id="path790" d="M265.391-244.929l-3.059-2.149.337-.479,3.059,2.149-.337.479" transform="translate(-249.103 248.911)" fill="#192b45"/>
          <path id="path792" d="M252.687-239.637s1.491.579.424,2.283-3.674,4.454-3.932,5.524-1.274.956-1.3.179.917-1.611,1.787-2.763,3.527-4.4,2.523-5.576l.5.351" transform="translate(-236.486 242.304)" fill="#3f79c6"/>
        </g>
      </g>
    </g>
  </g>
</svg>
