<svg xmlns="http://www.w3.org/2000/svg" width="40.033" height="41.156" viewBox="0 0 40.033 41.156">
    <path data-name="icon-setting" d="M37.581 24.595a16.036 16.036 0 0 0 .144-2.017 16.038 16.038 0 0 0-.144-2.017l4.342-3.4a1.038 1.038 0 0 0 .247-1.317l-4.116-7.12a1.034 1.034 0 0 0-1.254-.448l-5.124 2.058A15.035 15.035 0 0 0 28.2 8.317l-.782-5.453A1 1 0 0 0 26.407 2h-8.231a1 1 0 0 0-1.008.864l-.782 5.453a15.81 15.81 0 0 0-3.478 2.017L7.784 8.276a1 1 0 0 0-1.255.453l-4.116 7.12a1.015 1.015 0 0 0 .247 1.317L7 20.561a16.32 16.32 0 0 0-.144 2.017A16.32 16.32 0 0 0 7 24.595L2.66 27.99a1.038 1.038 0 0 0-.247 1.317l4.116 7.12a1.034 1.034 0 0 0 1.255.453l5.124-2.058a15.034 15.034 0 0 0 3.478 2.017l.782 5.453a1 1 0 0 0 1.008.864h8.231a1 1 0 0 0 1.008-.864l.782-5.453a15.81 15.81 0 0 0 3.478-2.017L36.8 36.88a1 1 0 0 0 1.255-.453l4.116-7.12a1.038 1.038 0 0 0-.247-1.317zM22.292 29.78a7.2 7.2 0 1 1 7.2-7.2 7.21 7.21 0 0 1-7.2 7.2z" transform="translate(-2.271 -2)" style="fill:#161f3d"/>
</svg>
