<svg xmlns="http://www.w3.org/2000/svg" width="42.35" height="40.121" viewBox="0 0 42.35 40.121">
    <path data-name="icon-wallet-mycertificate" d="M43.121 36.434v2.229a4.471 4.471 0 0 1-4.458 4.458H7.458A4.457 4.457 0 0 1 3 38.663V7.458A4.457 4.457 0 0 1 7.458 3h31.205a4.471 4.471 0 0 1 4.458 4.458v2.229h-20.06a4.457 4.457 0 0 0-4.461 4.458v17.832a4.457 4.457 0 0 0 4.458 4.458zm-20.06-4.457H45.35V14.145H23.061zm8.916-5.577a3.343 3.343 0 1 1 3.343-3.343 3.339 3.339 0 0 1-3.343 3.343z" transform="translate(-3 -3)" style="fill:#161f3d"/>
</svg>
