<svg xmlns="http://www.w3.org/2000/svg" width="150.054" height="48.677" viewBox="0 0 150.054 48.677">
  <g id="Group_3106" data-name="Group 3106" transform="translate(0 0)">
    <g id="Group_3104" data-name="Group 3104">
      <path id="Path_9812" data-name="Path 9812" d="M10.508,49.549c-.388,0-.766,0-1.151-.014a16.145,16.145,0,0,1-2.379-.208,7.487,7.487,0,0,1-2.108-.7,6.879,6.879,0,0,1-1.778-1.294,6.771,6.771,0,0,1-1.3-1.777A7.281,7.281,0,0,1,1.1,43.451a15.8,15.8,0,0,1-.212-2.386C.884,40.8.873,39.9.873,39.9v-29.4s.011-.88.019-1.138A15.742,15.742,0,0,1,1.1,6.987a7.324,7.324,0,0,1,.692-2.115A6.838,6.838,0,0,1,3.086,3.093a7.082,7.082,0,0,1,1.785-1.3,7.41,7.41,0,0,1,2.1-.692A16.016,16.016,0,0,1,9.361.891L10.509.875H141.285l1.162.016a15.761,15.761,0,0,1,2.365.207,7.557,7.557,0,0,1,2.126.7,7.118,7.118,0,0,1,3.073,3.079,7.333,7.333,0,0,1,.681,2.1,16.539,16.539,0,0,1,.221,2.4c0,.36,0,.747,0,1.133.01.477.01.931.01,1.389V38.529c0,.462,0,.913-.01,1.368,0,.414,0,.793,0,1.183a16.2,16.2,0,0,1-.217,2.359,7.3,7.3,0,0,1-.687,2.125,6.974,6.974,0,0,1-1.292,1.763,6.888,6.888,0,0,1-1.781,1.3,7.459,7.459,0,0,1-2.123.7,15.961,15.961,0,0,1-2.379.208c-.373.009-.763.014-1.142.014l-1.379,0Z" transform="translate(-0.873 -0.875)"/>
    </g>
    <g id="_Group_" data-name="&lt;Group&gt;" transform="translate(11.578 9.983)">
      <g id="_Group_2" data-name="&lt;Group&gt;">
        <g id="_Group_3" data-name="&lt;Group&gt;">
          <path id="_Path_" data-name="&lt;Path&gt;" d="M28.8,22.025a6.3,6.3,0,0,1,3-5.284A6.446,6.446,0,0,0,26.721,14c-2.137-.224-4.208,1.279-5.3,1.279-1.11,0-2.787-1.256-4.592-1.219a6.764,6.764,0,0,0-5.692,3.471c-2.461,4.261-.625,10.523,1.732,13.967,1.18,1.687,2.558,3.57,4.362,3.5,1.765-.073,2.424-1.126,4.555-1.126,2.111,0,2.729,1.126,4.57,1.083,1.894-.031,3.087-1.694,4.225-3.4a13.949,13.949,0,0,0,1.932-3.935A6.085,6.085,0,0,1,28.8,22.025Z" transform="translate(-9.972 -7.289)" fill="#fff"/>
          <path id="_Path_2" data-name="&lt;Path&gt;" d="M22.922,13.162A6.2,6.2,0,0,0,24.34,8.72a6.309,6.309,0,0,0-4.082,2.112A5.9,5.9,0,0,0,18.8,15.11,5.216,5.216,0,0,0,22.922,13.162Z" transform="translate(-7.568 -8.72)" fill="#fff"/>
        </g>
      </g>
      <g id="Group_3105" data-name="Group 3105" transform="translate(31.121 11.645)">
        <path id="Path_9813" data-name="Path 9813" d="M44.448,29.609H38.425L36.979,33.88H34.427l5.705-15.8h2.651l5.705,15.8H45.894Zm-5.4-1.971h4.775L41.47,20.706H41.4Z" transform="translate(-34.427 -17.815)" fill="#fff"/>
        <path id="Path_9814" data-name="Path 9814" d="M57.484,27.23c0,3.58-1.916,5.88-4.808,5.88a3.906,3.906,0,0,1-3.625-2.016H49V36.8H46.631V21.469H48.92v1.916h.043a4.087,4.087,0,0,1,3.668-2.037C55.556,21.348,57.484,23.66,57.484,27.23Zm-2.431,0c0-2.333-1.205-3.866-3.045-3.866-1.807,0-3.022,1.566-3.022,3.866,0,2.321,1.215,3.876,3.022,3.876C53.848,31.106,55.053,29.584,55.053,27.23Z" transform="translate(-31.101 -16.924)" fill="#fff"/>
        <path id="Path_9815" data-name="Path 9815" d="M67.449,27.23c0,3.58-1.916,5.88-4.808,5.88a3.906,3.906,0,0,1-3.625-2.016h-.055V36.8H56.6V21.469h2.289v1.916h.043A4.087,4.087,0,0,1,62.6,21.348C65.521,21.348,67.449,23.66,67.449,27.23Zm-2.431,0c0-2.333-1.205-3.866-3.045-3.866-1.807,0-3.022,1.566-3.022,3.866,0,2.321,1.215,3.876,3.022,3.876,1.839,0,3.045-1.522,3.045-3.876Z" transform="translate(-28.386 -16.924)" fill="#fff"/>
        <path id="Path_9816" data-name="Path 9816" d="M72.229,29.534c.175,1.567,1.7,2.6,3.778,2.6,1.993,0,3.427-1.029,3.427-2.442,0-1.227-.865-1.961-2.913-2.464l-2.048-.493c-2.9-.7-4.249-2.058-4.249-4.26,0-2.726,2.376-4.6,5.75-4.6,3.339,0,5.628,1.873,5.705,4.6H79.292c-.143-1.577-1.447-2.529-3.352-2.529s-3.209.963-3.209,2.365c0,1.117.833,1.775,2.869,2.278l1.741.427c3.242.767,4.589,2.069,4.589,4.381,0,2.956-2.355,4.808-6.1,4.808-3.5,0-5.871-1.808-6.023-4.666Z" transform="translate(-24.785 -17.871)" fill="#fff"/>
        <path id="Path_9817" data-name="Path 9817" d="M84.214,19.3v2.726H86.4V23.9H84.214v6.351c0,.987.439,1.447,1.4,1.447a7.391,7.391,0,0,0,.778-.055V33.5a6.494,6.494,0,0,1-1.314.109c-2.333,0-3.242-.876-3.242-3.11V23.9H80.163V22.026h1.675V19.3Z" transform="translate(-21.963 -17.482)" fill="#fff"/>
        <path id="Path_9818" data-name="Path 9818" d="M86.065,27.234c0-3.625,2.135-5.9,5.464-5.9s5.465,2.278,5.465,5.9-2.114,5.9-5.465,5.9S86.065,30.869,86.065,27.234Zm8.52,0c0-2.487-1.14-3.954-3.056-3.954s-3.055,1.479-3.055,3.954c0,2.5,1.138,3.953,3.055,3.953s3.056-1.456,3.056-3.953Z" transform="translate(-20.355 -16.928)" fill="#fff"/>
        <path id="Path_9819" data-name="Path 9819" d="M96.186,21.469h2.255V23.43H98.5a2.748,2.748,0,0,1,2.771-2.082,3.647,3.647,0,0,1,.81.088v2.212a3.306,3.306,0,0,0-1.063-.143,2.383,2.383,0,0,0-2.464,2.651V32.99H96.186Z" transform="translate(-17.596 -16.924)" fill="#fff"/>
        <path id="Path_9820" data-name="Path 9820" d="M111.61,29.61c-.318,2.091-2.355,3.527-4.961,3.527-3.352,0-5.432-2.246-5.432-5.848s2.091-5.958,5.332-5.958c3.188,0,5.192,2.19,5.192,5.683v.81H103.6v.143a3,3,0,0,0,3.1,3.263,2.607,2.607,0,0,0,2.661-1.62Zm-7.994-3.439h5.76a2.771,2.771,0,0,0-2.826-2.924,2.917,2.917,0,0,0-2.934,2.924Z" transform="translate(-16.225 -16.928)" fill="#fff"/>
      </g>
    </g>
  </g>
</svg>
