<svg id="Group_3021" data-name="Group 3021" xmlns="http://www.w3.org/2000/svg" width="36.488" height="32.547" viewBox="0 0 36.488 32.547">
  <path id="Path_9760" data-name="Path 9760" d="M2.493,0H19.941a2.493,2.493,0,0,1,2.493,2.493V19.442a2.493,2.493,0,0,1-2.493,2.493H2.493A2.493,2.493,0,0,1,0,19.442V2.493A2.493,2.493,0,0,1,2.493,0Z" transform="translate(0 10.613)" fill="#fff"/>
  <path id="Path_9761" data-name="Path 9761" d="M2.493,0H19.941a2.493,2.493,0,0,1,2.493,2.493V19.442a2.493,2.493,0,0,1-2.493,2.493H2.493A2.493,2.493,0,0,1,0,19.442V2.493A2.493,2.493,0,0,1,2.493,0Z" transform="translate(14.055 0)" fill="#fff"/>
  <path id="ic_device_hub_24px" d="M11.591,10.977,9.136,8.523V6.571a1.841,1.841,0,1,0-1.227,0V8.523L5.454,10.977H3v3.068H6.068V12.174L8.523,9.6l2.454,2.577v1.872h3.068V10.977Z" transform="translate(2.982 13.097)" fill="#3367b1"/>
  <path id="ic_tv_24px" d="M12.7,3H2.17A1.173,1.173,0,0,0,1,4.17v7.019a1.173,1.173,0,0,0,1.17,1.17H5.094v1.17H9.773v-1.17H12.7a1.168,1.168,0,0,0,1.164-1.17l.006-7.019A1.173,1.173,0,0,0,12.7,3Zm0,8.189H2.17V4.17H12.7Z" transform="translate(18.251 2.568)" fill="#3367b1"/>
</svg>
