<svg xmlns="http://www.w3.org/2000/svg" width="32" height="30.65" viewBox="0 0 32 30.65">
  <path id="icon-discount-coupon-use-case" d="M30.8,8.453H27.312A4.882,4.882,0,0,0,27.6,6.839a4.787,4.787,0,0,0-8.8-2.662L18,5.259l-.8-1.1A4.794,4.794,0,0,0,8.4,6.839a4.882,4.882,0,0,0,.288,1.613H5.2a3.189,3.189,0,0,0-3.184,3.226L2,29.424A3.2,3.2,0,0,0,5.2,32.65H30.8A3.2,3.2,0,0,0,34,29.424V11.679A3.2,3.2,0,0,0,30.8,8.453Zm-8-3.226a1.613,1.613,0,1,1-1.6,1.613A1.611,1.611,0,0,1,22.8,5.226Zm-9.6,0a1.613,1.613,0,1,1-1.6,1.613A1.611,1.611,0,0,1,13.2,5.226Zm17.6,24.2H5.2V26.2H30.8Zm0-8.066H5.2V11.679h8.128L10,16.244l2.592,1.887L16.4,12.9,18,10.711,19.6,12.9l3.808,5.227L26,16.244l-3.328-4.565H30.8Z" transform="translate(-2 -2)" fill="#c3c6ce"/>
</svg>
