<svg xmlns="http://www.w3.org/2000/svg" width="27.737" height="30.818" viewBox="0 0 27.737 30.818">
  <path id="icon-employer-certificate-use-case" d="M27.655,4.082H21.214a4.6,4.6,0,0,0-8.691,0H6.082A3.091,3.091,0,0,0,3,7.164V28.737a3.091,3.091,0,0,0,3.082,3.082H27.655a3.091,3.091,0,0,0,3.082-3.082V7.164A3.091,3.091,0,0,0,27.655,4.082Zm-10.786,0a1.541,1.541,0,1,1-1.541,1.541A1.545,1.545,0,0,1,16.868,4.082Zm0,6.164a4.623,4.623,0,1,1-4.623,4.623A4.617,4.617,0,0,1,16.868,10.246Zm9.246,18.491H7.623V26.579c0-3.082,6.164-4.777,9.246-4.777s9.246,1.7,9.246,4.777Z" transform="translate(-3 -1)" fill="#c3c6ce"/>
</svg>
