<svg xmlns="http://www.w3.org/2000/svg" xmlns:xlink="http://www.w3.org/1999/xlink" width="234.217" height="312.042" viewBox="0 0 234.217 312.042">
  <defs>
    <clipPath id="clip-path">
      <path id="Shape" d="M.655,0H4.748A.655.655,0,0,1,5.4.655V2.129h0a.655.655,0,0,1-.655.655H.655A.655.655,0,0,1,0,2.129V.655H0A.655.655,0,0,1,.655,0Z" transform="translate(0 0)" fill="none" stroke="#95989a" stroke-width="1" clip-rule="evenodd"/>
    </clipPath>
    <clipPath id="clip-path-2">
      <path id="Shape-2" data-name="Shape" d="M0,0V.982A.533.533,0,0,0,.326.491.533.533,0,0,0,0,0" transform="translate(0 0)" fill="none" stroke="#95989a" stroke-width="1"/>
    </clipPath>
    <clipPath id="clip-path-3">
      <path id="Shape-3" data-name="Shape" d="M.327,0H4.093a.327.327,0,0,1,.328.327V1.474h0a.327.327,0,0,1-.328.327H.327A.327.327,0,0,1,0,1.474V.327H0A.327.327,0,0,1,.327,0Z" transform="translate(0 0)" fill="none" stroke="#95989a" stroke-width="1"/>
    </clipPath>
    <clipPath id="clip-path-4">
      <path id="Shape-4" data-name="Shape" d="M1.876.559a2.122,2.122,0,0,1,1.462.584.076.076,0,0,0,.106,0L3.728.856a.079.079,0,0,0,0-.112,2.676,2.676,0,0,0-3.7,0,.079.079,0,0,0,0,.112l.284.287a.076.076,0,0,0,.106,0A2.122,2.122,0,0,1,1.876.559Zm0,.932a1.205,1.205,0,0,1,.809.312.076.076,0,0,0,.106,0l.284-.287a.079.079,0,0,0,0-.113,1.758,1.758,0,0,0-2.4,0,.079.079,0,0,0,0,.113L.961,1.8a.076.076,0,0,0,.106,0,1.205,1.205,0,0,1,.808-.312Zm.545.684a.077.077,0,0,0,0-.112.84.84,0,0,0-1.085,0,.077.077,0,0,0,0,.112l.491.5a.076.076,0,0,0,.109,0Z" transform="translate(0 0)" fill="none" stroke="#95989a" stroke-width="1"/>
    </clipPath>
    <clipPath id="clip-path-5">
      <path id="Shape-5" data-name="Shape" d="M.246,1.637H.491a.246.246,0,0,1,.246.246v.491a.246.246,0,0,1-.246.246H.246A.246.246,0,0,1,0,2.374V1.883a.246.246,0,0,1,.246-.246Zm1.146-.491h.246a.246.246,0,0,1,.246.246v.982a.246.246,0,0,1-.246.246H1.392a.246.246,0,0,1-.246-.246V1.392A.246.246,0,0,1,1.392,1.146ZM2.538.573h.246a.246.246,0,0,1,.246.246V2.374a.246.246,0,0,1-.246.246H2.538a.246.246,0,0,1-.246-.246V.819A.246.246,0,0,1,2.538.573ZM3.684,0H3.93a.246.246,0,0,1,.246.246V2.374a.246.246,0,0,1-.246.246H3.684a.246.246,0,0,1-.246-.246V.246A.246.246,0,0,1,3.684,0Z" transform="translate(0)" fill="none" stroke="#95989a" stroke-width="1"/>
    </clipPath>
  </defs>
  <g id="Tal-illustration" transform="translate(-86 -270.398)">
    <g id="Illustration-hero">
      <path id="Path_9805" data-name="Path 9805" d="M117.108,0A117.108,117.108,0,1,1,0,117.108,117.108,117.108,0,0,1,117.108,0Z" transform="translate(86 348.224)" fill="#1eaadc" opacity="0.089"/>
      <g id="Group_3073" data-name="Group 3073" transform="translate(130.668 262.836) rotate(7)">
        <path id="Path_9762" data-name="Path 9762" d="M52.542,16.3,16.8,35.912A11.616,11.616,0,0,1,5.632,15.562a10.232,10.232,0,0,1,1.519-.692L45.3.551A8.69,8.69,0,0,1,52.542,16.3Z" transform="translate(126.693 90.904)" fill="#ffc298"/>
        <path id="Path_9763" data-name="Path 9763" d="M48.519,17.07,14.342,26.653A11.459,11.459,0,0,1,8.177,4.583a12.176,12.176,0,0,1,1.742-.335L45.146.049A8.712,8.712,0,0,1,48.519,17.07Z" transform="translate(128.839 123.64)" fill="#ffc298"/>
        <path id="Path_9764" data-name="Path 9764" d="M0,16.242,8.287.2S18.853-2.678,47.759,13.249,79.367,38.066,79.367,38.066s-6.7,13.4-10.141,13.4C60.112,52.117,15.324,25.87,0,16.242Z" transform="translate(14.542 226.53)" fill="#892e1d"/>
        <path id="Path_9765" data-name="Path 9765" d="M40.669,24.12,18.331,20.412l8.243-1.5L12.858,26.242A8.712,8.712,0,0,1,3.119,11.9l11.817-9.94A8.288,8.288,0,0,1,22.754.375h.335L44.712,7.21a8.69,8.69,0,0,1-4.043,16.843Z" transform="translate(132.914 141.273)" fill="#ffc298"/>
        <path id="Path_9766" data-name="Path 9766" d="M46.209,17.156,11.674,22.07A10.232,10.232,0,0,1,8.793,1.809h.916L44.556,0a8.667,8.667,0,0,1,1.653,17.156Z" transform="translate(126.682 173.145)" fill="#ffc298"/>
        <path id="Path_9767" data-name="Path 9767" d="M39.605,0S20.1,16.15,13.4,29.911,0,135.48,0,135.48l50.328,29.665a117.324,117.324,0,0,1,13.4-26.314c8.421-11.75,33.507-19.836,39.762-34.267S95.629,16.083,95.92,13.917,39.605,0,39.605,0Z" transform="translate(25.354 121.79)" fill="#ffc298"/>
        <path id="Path_9768" data-name="Path 9768" d="M15.913,0S-1.064,20.8.053,34.8a71.068,71.068,0,0,0,6.21,24.058l16.731-31.9Z" transform="translate(51.57 135.706)" fill="#e1927a"/>
        <path id="Path_9769" data-name="Path 9769" d="M37.707,4.78S36.59,33.507,25.756,44.341A372.69,372.69,0,0,0,0,74.967L26.806,90.8a117.324,117.324,0,0,1,13.4-26.314C48.63,52.74,73.716,44.654,79.97,30.223,82.07,25.309,81.824,13.515,80.6,0l-20.1,1.787Z" transform="translate(48.92 196.242)" fill="#e1927a"/>
        <rect id="Rectangle_610" data-name="Rectangle 610" width="111.525" height="205.51" rx="10" transform="translate(62.055 0)" fill="#232d55"/>
        <path id="Path_9770" data-name="Path 9770" d="M96.237,9.011V180.979c0,4.977-3.707,9.011-8.281,9.011H8.281C3.707,189.99,0,185.955,0,180.979V9.011C0,4.034,3.707,0,8.281,0H87.955C92.53,0,96.237,4.034,96.237,9.011Z" transform="translate(69.581 6.9)" fill="#edf6fa"/>
        <rect id="Rectangle_612" data-name="Rectangle 612" width="85.568" height="23.143" rx="2" transform="translate(74.471 135.451)" fill="#1eaadc"/>
        <rect id="Rectangle_611" data-name="Rectangle 611" width="41.014" height="27.065" rx="3" transform="translate(75.739 100.97)" fill="#60c7ed"/>
        <path id="Path_9774" data-name="Path 9774" d="M3.992,0H37.022a3.992,3.992,0,0,1,3.992,3.992v19.08a3.992,3.992,0,0,1-3.992,3.992H3.992A3.992,3.992,0,0,1,0,23.073V3.992A3.992,3.992,0,0,1,3.992,0Z" transform="translate(74.954 68.642)" fill="#e55b5b"/>
        <rect id="Rectangle_617" data-name="Rectangle 617" width="41.014" height="27.065" rx="3" transform="translate(75.737 36.445)" fill="#49cbc1"/>
        <rect id="Rectangle_613" data-name="Rectangle 613" width="41.014" height="27.065" rx="3" transform="translate(120.075 101.927)" fill="#49cb7b"/>
        <rect id="Rectangle_614" data-name="Rectangle 614" width="41.014" height="27.065" rx="3" transform="translate(119.29 69.599)" fill="#f4d262"/>
        <rect id="Rectangle_616" data-name="Rectangle 616" width="41.014" height="27.065" rx="3" transform="translate(120.073 37.402)" fill="#6c49cb"/>
        <path id="Path_9771" data-name="Path 9771" d="M0,33.507S20.506,4.289,22.83,0C24.661,5.562,38.757,25.287,54.46,32.658s34.088,10.477,39.449,5.2L78.451,81.422S26.56,81.69,0,33.507" transform="translate(0 226.823)" fill="#ffdc05"/>
        <path id="Path_9772" data-name="Path 9772" d="M91.7,21.73l-8.086,2.5-8.131,2.234c-5.45,1.5-10.923,2.882-16.486,4.177h0l6.344-2.614c-5.875,6.344-9.382,14.319-12.04,23.79a287.817,287.817,0,0,0-6.143,31.452A23.721,23.721,0,0,1,.291,75.9a25.347,25.347,0,0,1,1.876-6.165A315.1,315.1,0,0,1,19.189,36.227,106.578,106.578,0,0,1,31.632,19.474,73.716,73.716,0,0,1,48.542,5.512l2.837-1.675A6.884,6.884,0,0,1,54.886,2.9h0c5.272-.29,10.588-.692,15.9-1.184l8-.67L86.65.106H87.1a11.169,11.169,0,0,1,4.6,21.8Z" transform="translate(36.522 137.431)" fill="#ffc298"/>
        <path id="Path_9773" data-name="Path 9773" d="M10.186,3.5A15.639,15.639,0,0,1,5.071,14.2C2.278,16.435,0,15.541,0,11.967a15.906,15.906,0,0,1,5.071-10.7C7.908-1.078,10.186-.073,10.186,3.5Z" transform="translate(66.456 275.124)" fill="#232d55"/>
        <g id="Status_bar_light" data-name="Status bar/light" transform="translate(71.899 14.614)">
          <path id="bg" d="M0,0H92.1V10.807H0Z" transform="translate(0 0)" fill="#edf6fa"/>
          <g id="status_bar_light-2" data-name="status bar/light" transform="translate(4.912 3.684)">
            <g id="Battery" transform="translate(77.611 0.573)">
              <g id="Border" transform="translate(0 0)" clip-path="url(#clip-path)">
                <g id="Fill" transform="translate(0 0)" fill="none">
                  <path d="M.655,0H4.748A.655.655,0,0,1,5.4.655V2.129h0a.655.655,0,0,1-.655.655H.655A.655.655,0,0,1,0,2.129V.655H0A.655.655,0,0,1,.655,0Z" stroke="none"/>
                  <path d="M 0.6549458503723145 1.430511474609375e-06 C 0.2932262420654297 1.430511474609375e-06 -3.814697265625e-06 0.2932314872741699 -3.814697265625e-06 0.6549413204193115 L -3.814697265625e-06 2.128561496734619 C -3.814697265625e-06 2.490281343460083 0.2932262420654297 2.783501386642456 0.6549458503723145 2.783501386642456 L 4.748326301574707 2.783501386642456 C 5.110045909881592 2.783501386642456 5.403275966644287 2.490281343460083 5.403275966644287 2.128561496734619 L 5.403275966644287 0.6549413204193115 C 5.403275966644287 0.2932314872741699 5.110045909881592 1.430511474609375e-06 4.748326301574707 1.430511474609375e-06 L 0.6549458503723145 1.430511474609375e-06 M 0.6549458503723145 -1.999998807907104 L 4.748326301574707 -1.999998807907104 C 6.212265968322754 -1.999998807907104 7.403275966644287 -0.8089985847473145 7.403275966644287 0.6549413204193115 L 7.403275966644287 2.128561496734619 C 7.403275966644287 3.592501401901245 6.212265968322754 4.783501625061035 4.748326301574707 4.783501625061035 L 0.6549458503723145 4.783501625061035 C -0.8089938163757324 4.783501625061035 -2.000003814697266 3.592501401901245 -2.000003814697266 2.128561496734619 L -2.000003814697266 0.6549413204193115 C -2.000003814697266 -0.8089985847473145 -0.8089938163757324 -1.999998807907104 0.6549458503723145 -1.999998807907104 Z" stroke="none" fill="rgba(0,0,0,0.35)"/>
                </g>
              </g>
              <g id="Cap" transform="translate(5.649 0.901)" clip-path="url(#clip-path-2)">
                <path id="Fill-2" data-name="Fill" d="M0,0H2.782V3.438H0Z" transform="translate(-1.228 -1.228)" fill="rgba(0,0,0,0.4)" stroke="#95989a" stroke-width="1"/>
              </g>
              <g id="Capacity" transform="translate(0.491 0.491)" clip-path="url(#clip-path-3)">
                <path id="Fill-3" data-name="Fill" d="M0,0H6.877V4.257H0Z" transform="translate(-1.228 -1.228)" stroke="#95989a" stroke-width="1"/>
              </g>
            </g>
            <g id="Wifi" transform="translate(72.623 0.572)">
              <g id="Wifi-2" data-name="Wifi" transform="translate(0 0)" clip-path="url(#clip-path-4)">
                <path id="Fill-4" data-name="Fill" d="M0,0H6.207V5.149H0Z" transform="translate(-1.228 -1.228)" stroke="#95989a" stroke-width="1"/>
              </g>
            </g>
            <g id="Cellular_Connection" data-name="Cellular Connection" transform="translate(67.213 0.655)">
              <g id="Cellular_Connection-2" data-name="Cellular Connection" transform="translate(0 0)" clip-path="url(#clip-path-5)">
                <path id="Fill-5" data-name="Fill" d="M0,0H6.631V5.076H0Z" transform="translate(-1.228 -1.228)" stroke="#95989a" stroke-width="1"/>
              </g>
            </g>
            <g id="Bars___Time_Black" data-name="Bars/_/Time Black" transform="translate(0 0)">
              <path id="Background" d="M0,3.93H13.263V0H0Z" transform="translate(0)" fill="none"/>
              <path id="_Time" data-name="↳ Time" d="M.886,2.542c.616,0,.982-.482.982-1.3A1.556,1.556,0,0,0,1.7.478.859.859,0,0,0,.9,0,.842.842,0,0,0,0,.851a.776.776,0,0,0,.8.806.67.67,0,0,0,.628-.363h.029c0,.554-.21.885-.564.885a.421.421,0,0,1-.425-.3H.034A.816.816,0,0,0,.886,2.542ZM.9,1.313A.458.458,0,0,1,.425.838.47.47,0,0,1,.9.361a.473.473,0,0,1,.478.484A.46.46,0,0,1,.9,1.313Zm1.729.913a.265.265,0,1,0-.269-.265A.258.258,0,0,0,2.63,2.226Zm0-1.259A.256.256,0,0,0,2.9.7a.269.269,0,0,0-.537,0A.257.257,0,0,0,2.63.967ZM4.574,2.483h.415V2.032h.327V1.665H4.988V.06H4.377c-.428.645-.769,1.184-.987,1.585v.386H4.574ZM3.791,1.65c.282-.5.534-.895.766-1.237H4.58V1.676H3.791Zm2.518.833h.433V.06H6.311L5.678.5V.92L6.28.5h.029Z" transform="translate(3.149 1.201)"/>
            </g>
          </g>
        </g>
      </g>
      <rect id="Rectangle_618" data-name="Rectangle 618" width="7.985" height="7.985" rx="1" transform="translate(204.082 312.657) rotate(7)" fill="#fff" opacity="0.777"/>
      <rect id="Rectangle_619" data-name="Rectangle 619" width="7.985" height="7.985" rx="1" transform="translate(267.959 365.888) rotate(7)" fill="#fff" opacity="0.777"/>
      <rect id="Rectangle_620" data-name="Rectangle 620" width="7.985" height="7.985" rx="1" transform="translate(197.427 376.534) rotate(7)" fill="#fff" opacity="0.777"/>
      <rect id="Rectangle_623" data-name="Rectangle 623" width="7.985" height="7.985" rx="1" transform="translate(241.343 383.188) rotate(7)" fill="#fff" opacity="0.777"/>
      <rect id="Rectangle_621" data-name="Rectangle 621" width="7.985" height="7.985" rx="1" transform="translate(225.374 345.927) rotate(7)" fill="#fff" opacity="0.777"/>
      <rect id="Rectangle_622" data-name="Rectangle 622" width="7.985" height="7.985" rx="1" transform="translate(272.408 333.95) rotate(7)" fill="#fff" opacity="0.777"/>
      <line id="Line_3" data-name="Line 3" x2="33.269" y2="3.992" transform="translate(202.443 326.047)" fill="none" stroke="#fff" stroke-linecap="round" stroke-width="1" opacity="0.778"/>
      <line id="Line_4" data-name="Line 4" x2="33.269" y2="3.992" transform="translate(198.45 361.896)" fill="none" stroke="#fff" stroke-linecap="round" stroke-width="1" opacity="0.778"/>
      <line id="Line_5" data-name="Line 5" x2="33.269" y2="3.992" transform="translate(195.372 393.835)" fill="none" stroke="#fff" stroke-linecap="round" stroke-width="1" opacity="0.778"/>
      <line id="Line_6" data-name="Line 6" x2="33.269" y2="3.992" transform="translate(239.039 400.488)" fill="none" stroke="#fff" stroke-linecap="round" stroke-width="1" opacity="0.778"/>
      <line id="Line_7" data-name="Line 7" x2="14.847" y2="1.83" transform="translate(244.819 353.494)" fill="none" stroke="#fff" stroke-linecap="round" stroke-width="1" opacity="0.778"/>
      <line id="Line_8" data-name="Line 8" x2="14.847" y2="1.83" transform="translate(249.581 321.42)" fill="none" stroke="#fff" stroke-linecap="round" stroke-width="1" opacity="0.778"/>
    </g>
  </g>
</svg>
