<svg xmlns="http://www.w3.org/2000/svg" width="124.297" height="34.47" viewBox="0 0 124.297 34.47">
  <g id="talao_logotype" transform="translate(-80 -80)">
    <path id="Path_9834" data-name="Path 9834" d="M395.352,205.765a4.1,4.1,0,0,1-4.409-4.327v-7.682H386.67v-1.973h4.273V186.67h2.3v5.112h5.734v1.973h-5.732v7.469a2.253,2.253,0,0,0,2.434,2.46,7.843,7.843,0,0,0,3.461-.919v2.028a7.367,7.367,0,0,1-3.786.972Z" transform="translate(-262.625 -91.35)" fill="#282828"/>
    <path id="Path_9835" data-name="Path 9835" d="M518.869,234.012a1.988,1.988,0,0,1-2.028-2.083h-.052a5.216,5.216,0,0,1-4.52,2.245c-3.273,0-4.74-2.083-4.74-4.03,0-2.028,1.406-4.273,4.9-4.462l4.273-.244v-1.005a2.465,2.465,0,0,0-.7-1.973,3.238,3.238,0,0,0-2.3-.786,3.394,3.394,0,0,0-2.489.839,2.337,2.337,0,0,0-.73,1.6h-2.268a4.032,4.032,0,0,1,1.271-2.812,6.081,6.081,0,0,1,4.22-1.515c2.651,0,4.22,1.218,4.869,2.7a4.867,4.867,0,0,1,.405,2.029v6.627c0,.73.352.919.811.919a3.364,3.364,0,0,0,.6-.08v1.7A3.178,3.178,0,0,1,518.869,234.012Zm-2.164-6.789-3.786.217c-1.461.08-3.029.784-3.029,2.515,0,1.218.784,2.272,2.729,2.272a4.006,4.006,0,0,0,2.872-1.109,4.4,4.4,0,0,0,1.216-3.084Z" transform="translate(-366.126 -119.704)" fill="#282828"/>
    <path id="Path_9836" data-name="Path 9836" d="M628.29,205.468v-1.946H633.1V188.585h-4.409V186.67h6.735v16.852h4.787v1.948Z" transform="translate(-469.542 -91.35)" fill="#282828"/>
    <path id="Path_9837" data-name="Path 9837" d="M752.432,234.012a1.989,1.989,0,0,1-2.028-2.083h-.055a5.208,5.208,0,0,1-4.517,2.245c-3.273,0-4.732-2.083-4.732-4.03,0-2.028,1.406-4.273,4.895-4.462l4.274-.244v-1.005a2.466,2.466,0,0,0-.7-1.973,3.238,3.238,0,0,0-2.3-.786,3.387,3.387,0,0,0-2.488.839,2.333,2.333,0,0,0-.731,1.6h-2.274a4.032,4.032,0,0,1,1.271-2.812,6.086,6.086,0,0,1,4.22-1.515c2.651,0,4.22,1.218,4.869,2.7a4.867,4.867,0,0,1,.406,2.029v6.627c0,.73.35.919.812.919a3.365,3.365,0,0,0,.595-.08v1.7a3.175,3.175,0,0,1-1.515.329Zm-2.163-6.789-3.787.217c-1.461.08-3.029.784-3.029,2.515,0,1.218.784,2.272,2.729,2.272a4,4,0,0,0,2.872-1.109,4.4,4.4,0,0,0,1.218-3.084Z" transform="translate(-566.15 -119.704)" fill="#282828"/>
    <path id="Path_9838" data-name="Path 9838" d="M866.527,232.55a6.182,6.182,0,0,1-4.273,1.65,6.318,6.318,0,0,1-4.329-1.65,8.265,8.265,0,0,1,0-11.089,6.324,6.324,0,0,1,4.329-1.65,6.172,6.172,0,0,1,4.273,1.65,7.416,7.416,0,0,1,2.137,5.518A7.537,7.537,0,0,1,866.527,232.55Zm-1.758-9.766a3.808,3.808,0,0,0-5.086,0,5.6,5.6,0,0,0-1.541,4.192,5.715,5.715,0,0,0,1.541,4.246,3.807,3.807,0,0,0,5.086,0,6.542,6.542,0,0,0,0-8.435Z" transform="translate(-664.367 -119.73)" fill="#282828"/>
    <rect id="Rectangle_1697" data-name="Rectangle 1697" width="11" height="11" transform="translate(80 80)" fill="#232d55"/>
    <path id="Path_9839" data-name="Path 9839" d="M182.98,80H160v22.98h11.49V91.49h11.49Z" transform="translate(-68.51)" fill="#1eaadc"/>
    <rect id="Rectangle_1698" data-name="Rectangle 1698" width="7.66" height="7.66" transform="translate(93.405 93.405)" fill="#0a4178"/>
    <rect id="Rectangle_1700" data-name="Rectangle 1700" width="12" height="11" transform="translate(91 103)" fill="#0a4178"/>
    <rect id="Rectangle_1702" data-name="Rectangle 1702" width="1.915" height="1.915" transform="translate(84.787 84.787)" fill="#007d50"/>
    <rect id="Rectangle_1703" data-name="Rectangle 1703" width="1.915" height="1.915" transform="translate(84.787 96.277)" fill="#ffdc05"/>
    <rect id="Rectangle_1704" data-name="Rectangle 1704" width="3.83" height="3.83" transform="translate(106.81 95.32)" fill="#007d50"/>
    <rect id="Rectangle_1705" data-name="Rectangle 1705" width="1.915" height="1.915" transform="translate(96.277 107.767)" fill="#1eaadc"/>
    <rect id="Rectangle_1706" data-name="Rectangle 1706" width="3.83" height="3.83" transform="translate(83.83 106.81)" fill="#919191"/>
    <rect id="Rectangle_1707" data-name="Rectangle 1707" width="7.66" height="7.66" transform="translate(104.895 104.895)" fill="#ffdc05"/>
  </g>
</svg>
