<svg xmlns="http://www.w3.org/2000/svg" width="306" height="475.643" viewBox="0 0 306 475.643">
    <defs>
        <filter id="fw20skyara" x="0" y="0" width="306" height="475.643" filterUnits="userSpaceOnUse">
            <feOffset dy="3"/>
            <feGaussianBlur stdDeviation="28" result="blur"/>
            <feFlood flood-opacity=".129"/>
            <feComposite operator="in" in2="blur"/>
            <feComposite in="SourceGraphic"/>
        </filter>
        <filter id="q9ydowcy3b" x="83.789" y="165.313" width="141.211" height="102.841" filterUnits="userSpaceOnUse">
            <feOffset dy="8"/>
            <feGaussianBlur stdDeviation="4.5" result="blur-2"/>
            <feFlood flood-opacity=".306"/>
            <feComposite operator="in" in2="blur-2"/>
            <feComposite in="SourceGraphic"/>
        </filter>
    </defs>
    <g style="filter:url(#fw20skyara)">
        <rect data-name="Rectangle 536" width="138" height="307.643" rx="10" transform="translate(83.996 81)" style="fill:#fff"/>
    </g>
    <g data-name="Light / iPhone X">
        <path d="M20.271 0h110.763A20.271 20.271 0 0 1 151.3 20.271v269.67a20.27 20.27 0 0 1-20.271 20.271H20.271A20.271 20.271 0 0 1 0 289.941V20.271A20.271 20.271 0 0 1 20.271 0z" transform="translate(78.016 81)" style="fill:#161f3d"/>
        <path data-name="Shape" d="M1.448 2.9A1.448 1.448 0 1 0 0 1.448 1.448 1.448 0 0 0 1.448 2.9z" transform="translate(136.294 90.773)" style="fill:#dedede"/>
        <path data-name="Shape" d="M2.413 4.826A2.413 2.413 0 1 0 0 2.413a2.413 2.413 0 0 0 2.413 2.413z" transform="translate(168.872 89.808)" style="fill:#dedede"/>
        <path data-name="Shape" d="M.965 0h16.168a.965.965 0 1 1 0 1.931H.965A.965.965 0 0 1 .965 0" transform="translate(144.74 91.256)" style="fill:#dedede"/>
        <path data-name="Shape" d="M13.272 0A13.264 13.264 0 0 0 0 13.256V280.3a13.264 13.264 0 0 0 13.272 13.26h109.2a13.264 13.264 0 0 0 13.268-13.26V13.256A13.264 13.264 0 0 0 122.468 0h-14.721a1.447 1.447 0 0 0-1.447 1.447v.722a8.689 8.689 0 0 1-8.7 8.677H38.14a8.688 8.688 0 0 1-8.7-8.677v-.722A1.447 1.447 0 0 0 27.992 0h-.121z" transform="translate(85.859 88.963)" style="fill:#f3f3f3"/>
        <text data-name="My certificates" transform="translate(153.79 148.603)" style="font-size:9px;font-family:NotoSans-SemiBold,Noto Sans;font-weight:600;fill:#161f3d"><tspan x="-32.283" y="0">My certificates</tspan></text>
    </g>
    <g transform="translate(97.263 216.362)">
        <g style="filter:url(#q9ydowcy3b)">
            <rect data-name="Rectangle 607" width="114.211" height="75.841" rx="10" transform="translate(.03 -45.55)" style="fill:#aaa9a9"/>
        </g>
        <path data-name="Tracé 9755" d="M3.072 0h108.067a3.072 3.072 0 0 1 3.072 3.072v69.7a3.072 3.072 0 0 1-3.072 3.072H3.072A3.072 3.072 0 0 1 0 72.77V3.072A3.072 3.072 0 0 1 3.072 0z" transform="translate(.026 -46.492)" style="fill:#f5f5f5"/>
        <rect data-name="Rectangle 601" width="15.311" height="15.311" rx="5" transform="translate(6.015 -38.693)" style="fill:#161f3d"/>
        <path data-name="Ligne 104" transform="translate(29.074 -36.376)" style="fill:none;stroke:#161f3d;stroke-linecap:round;stroke-width:2px" d="M0 0h49.215"/>
        <path data-name="Ligne 107" transform="translate(12.395 19.401)" style="fill:none;stroke:#161f3d;stroke-linecap:round;stroke-width:2px" d="M0 0h65.894"/>
        <path data-name="Ligne 108" transform="translate(93.873 19.401)" style="fill:none;stroke:#161f3d;stroke-linecap:round;stroke-width:2px" d="M0 0h10.117"/>
        <path data-name="Ligne 105" transform="translate(29.074 -31.038)" style="fill:none;stroke:#161f3d;stroke-linecap:round;stroke-width:2px" d="M0 0h24.88"/>
        <path data-name="Ligne 106" transform="translate(29.074 -25.7)" style="fill:none;stroke:#161f3d;stroke-linecap:round;stroke-width:2px" d="M0 0h24.88"/>
        <path data-name="Rectangle 602" transform="translate(0 -14.507)" style="opacity:.043;fill:#161f3d" d="M0 0h114.236v16.952H0z"/>
        <path d="M13.5 2A11.5 11.5 0 1 0 25 13.5 11.5 11.5 0 0 0 13.5 2zm-2.3 17.25L5.45 13.5l1.622-1.621L11.2 16l8.728-8.728L21.55 8.9z" transform="translate(80.373 -21.128)" style="fill:#161f3d"/>
    </g>
</svg>
