<svg xmlns="http://www.w3.org/2000/svg" width="41.237" height="45.818" viewBox="0 0 41.237 45.818">
    <path data-name="icon-employer-certificate-use-case" d="M39.655 5.582h-9.576a6.846 6.846 0 0 0-12.921 0H7.582A4.6 4.6 0 0 0 3 10.164v32.073a4.6 4.6 0 0 0 4.582 4.582h32.073a4.6 4.6 0 0 0 4.582-4.582V10.164a4.6 4.6 0 0 0-4.582-4.582zm-16.036 0a2.291 2.291 0 1 1-2.291 2.291 2.3 2.3 0 0 1 2.29-2.291zm0 9.164a6.873 6.873 0 1 1-6.873 6.873 6.864 6.864 0 0 1 6.872-6.873zm13.745 27.491H9.873v-3.208c0-4.582 9.164-7.1 13.746-7.1s13.746 2.52 13.746 7.1z" transform="translate(-3 -1)" style="fill:#161f3d"/>
</svg>
