<svg xmlns="http://www.w3.org/2000/svg" width="51.5" height="48.925" viewBox="0 0 51.5 48.925">
    <path data-name="icon-discount-coupon-use-case" d="M48.35 12.3h-5.614a7.707 7.707 0 0 0-13.7-6.824L27.75 7.2l-1.288-1.75a7.709 7.709 0 0 0-13.7 6.85H7.15a5.11 5.11 0 0 0-5.124 5.15L2 45.775a5.132 5.132 0 0 0 5.15 5.15h41.2a5.132 5.132 0 0 0 5.15-5.15V17.45a5.132 5.132 0 0 0-5.15-5.15zM35.475 7.15A2.575 2.575 0 1 1 32.9 9.725a2.583 2.583 0 0 1 2.575-2.575zm-15.45 0a2.575 2.575 0 1 1-2.575 2.575 2.583 2.583 0 0 1 2.575-2.575zM48.35 45.775H7.15v-5.15h41.2zm0-12.875H7.15V17.45h13.081l-5.356 7.287 4.171 3.013 6.128-8.343 2.575-3.5 2.575 3.5 6.128 8.343 4.171-3.013-5.354-7.287H48.35z" transform="translate(-2 -2)" style="fill:#161f3d"/>
</svg>
