<svg xmlns="http://www.w3.org/2000/svg" width="148.891" height="44.074" viewBox="0 0 148.891 44.074">
  <g id="Download_on_the_App_Store_Badge_US-UK_RGB_blk_092917" transform="translate(0 0)">
    <g id="Groupe_63" data-name="Groupe 63" transform="translate(0 0)">
      <g id="Groupe_61" data-name="Groupe 61">
        <path id="Tracé_6" data-name="Tracé 6" d="M137.035,0H11.863c-.456,0-.907,0-1.362,0-.381,0-.759.009-1.143.014A18.515,18.515,0,0,0,6.865.211,9.059,9.059,0,0,0,4.5.9,8.045,8.045,0,0,0,2.485,2.2,7,7,0,0,0,1.019,3.987a6.71,6.71,0,0,0-.778,2.1A12.724,12.724,0,0,0,.019,8.29C.007,8.628.006,8.967,0,9.3V34.773c.006.342.007.674.019,1.016a12.724,12.724,0,0,0,.223,2.206,6.7,6.7,0,0,0,.778,2.1,6.949,6.949,0,0,0,1.466,1.779A7.841,7.841,0,0,0,4.5,43.17a9.1,9.1,0,0,0,2.365.7,18.851,18.851,0,0,0,2.493.195c.385.007.762.012,1.143.012.455,0,.906,0,1.362,0H137.035c.447,0,.9,0,1.349,0,.379,0,.768,0,1.147-.012a18.6,18.6,0,0,0,2.488-.195,9.248,9.248,0,0,0,2.374-.7,7.844,7.844,0,0,0,2.012-1.3,7.161,7.161,0,0,0,1.47-1.779,6.708,6.708,0,0,0,.77-2.1,13.23,13.23,0,0,0,.231-2.206c0-.342,0-.674,0-1.016.01-.4.01-.8.01-1.205V10.507c0-.4,0-.8-.01-1.2,0-.338,0-.677,0-1.015a13.231,13.231,0,0,0-.231-2.206,6.722,6.722,0,0,0-.77-2.1A7.649,7.649,0,0,0,144.393.9a9.2,9.2,0,0,0-2.374-.691A18.275,18.275,0,0,0,139.53.016C139.151.011,138.762,0,138.383,0c-.447,0-.9,0-1.349,0Z" transform="translate(0 0)" fill="#a6a6a6"/>
        <path id="Tracé_7" data-name="Tracé 7" d="M10.294,42.772c-.379,0-.749,0-1.125-.012a17.882,17.882,0,0,1-2.326-.179,8.032,8.032,0,0,1-2.061-.6,6.761,6.761,0,0,1-1.738-1.114,5.93,5.93,0,0,1-1.27-1.53A5.759,5.759,0,0,1,1.1,37.523a12.015,12.015,0,0,1-.207-2.054c-.008-.231-.018-1-.018-1V9.166s.011-.757.018-.98A11.973,11.973,0,0,1,1.1,6.136a5.792,5.792,0,0,1,.676-1.821A5.982,5.982,0,0,1,3.037,2.784a6.958,6.958,0,0,1,1.745-1.12,7.952,7.952,0,0,1,2.057-.6A17.738,17.738,0,0,1,9.172.888L10.295.875H138.164L139.3.889a17.455,17.455,0,0,1,2.312.178,8.111,8.111,0,0,1,2.079.6,6.6,6.6,0,0,1,3,2.651,5.8,5.8,0,0,1,.666,1.806,12.581,12.581,0,0,1,.216,2.067c0,.31,0,.643,0,.975.01.411.01.8.01,1.2V33.286c0,.4,0,.786-.01,1.178,0,.356,0,.683,0,1.018a12.324,12.324,0,0,1-.213,2.03,5.771,5.771,0,0,1-.672,1.829,6.11,6.11,0,0,1-1.264,1.518,6.765,6.765,0,0,1-1.741,1.12,8,8,0,0,1-2.075.6,17.677,17.677,0,0,1-2.326.179c-.364.007-.746.012-1.117.012l-1.349,0Z" transform="translate(0.213 0.214)"/>
      </g>
      <g id="_Group_" data-name="&lt;Group&gt;" transform="translate(12.407 6.815)">
        <g id="_Group_2" data-name="&lt;Group&gt;">
          <g id="_Group_3" data-name="&lt;Group&gt;">
            <path id="_Path_" data-name="&lt;Path&gt;" d="M28.383,21.846a6.158,6.158,0,0,1,2.932-5.166A6.3,6.3,0,0,0,26.349,14c-2.089-.219-4.115,1.25-5.18,1.25-1.085,0-2.725-1.228-4.49-1.192a6.614,6.614,0,0,0-5.565,3.394C8.708,21.614,10.5,27.737,12.808,31.1c1.153,1.649,2.5,3.491,4.265,3.426,1.726-.072,2.37-1.1,4.454-1.1,2.064,0,2.669,1.1,4.468,1.059,1.852-.03,3.019-1.656,4.132-3.321a13.639,13.639,0,0,0,1.889-3.848A5.95,5.95,0,0,1,28.383,21.846Z" transform="translate(-9.972 -7.437)" fill="#fff"/>
            <path id="_Path_2" data-name="&lt;Path&gt;" d="M22.83,13.063A6.063,6.063,0,0,0,24.217,8.72a6.168,6.168,0,0,0-3.991,2.065A5.769,5.769,0,0,0,18.8,14.968,5.1,5.1,0,0,0,22.83,13.063Z" transform="translate(-7.818 -8.72)" fill="#fff"/>
          </g>
        </g>
        <g id="Groupe_62" data-name="Groupe 62" transform="translate(30.429 11.386)">
          <path id="Tracé_8" data-name="Tracé 8" d="M44.226,29.353h-5.89l-1.414,4.176H34.427l5.578-15.451H42.6l5.578,15.451H45.639Zm-5.28-1.927h4.668l-2.3-6.778h-.064Z" transform="translate(-34.427 -17.82)" fill="#fff"/>
          <path id="Tracé_9" data-name="Tracé 9" d="M57.243,27.1c0,3.5-1.874,5.75-4.7,5.75A3.819,3.819,0,0,1,49,30.878h-.053v5.58H46.631V21.466H48.87V23.34h.043A4,4,0,0,1,52.5,21.348C55.358,21.348,57.243,23.608,57.243,27.1Zm-2.377,0c0-2.281-1.179-3.78-2.977-3.78-1.767,0-2.955,1.531-2.955,3.78,0,2.27,1.188,3.79,2.955,3.79C53.687,30.889,54.866,29.4,54.866,27.1Z" transform="translate(-31.446 -17.022)" fill="#fff"/>
          <path id="Tracé_10" data-name="Tracé 10" d="M67.208,27.1c0,3.5-1.874,5.75-4.7,5.75a3.819,3.819,0,0,1-3.544-1.971h-.054v5.58H56.6V21.466h2.238V23.34h.043a4,4,0,0,1,3.587-1.992C65.323,21.348,67.208,23.608,67.208,27.1Zm-2.377,0c0-2.281-1.179-3.78-2.977-3.78-1.767,0-2.955,1.531-2.955,3.78,0,2.27,1.188,3.79,2.955,3.79,1.8,0,2.977-1.488,2.977-3.79Z" transform="translate(-29.013 -17.022)" fill="#fff"/>
          <path id="Tracé_11" data-name="Tracé 11" d="M72.175,29.275c.171,1.532,1.66,2.538,3.694,2.538,1.949,0,3.351-1.006,3.351-2.388,0-1.2-.846-1.917-2.848-2.41l-2-.482c-2.837-.685-4.154-2.012-4.154-4.165,0-2.666,2.323-4.5,5.622-4.5,3.265,0,5.5,1.831,5.578,4.5H79.082c-.14-1.542-1.414-2.473-3.277-2.473s-3.137.942-3.137,2.312c0,1.092.814,1.735,2.806,2.227l1.7.418c3.17.75,4.487,2.023,4.487,4.283,0,2.891-2.3,4.7-5.965,4.7-3.427,0-5.74-1.768-5.89-4.563Z" transform="translate(-25.786 -17.871)" fill="#fff"/>
          <path id="Tracé_12" data-name="Tracé 12" d="M84.124,19.3v2.666h2.142V23.8H84.124v6.21c0,.965.429,1.414,1.371,1.414a7.223,7.223,0,0,0,.761-.053v1.82a6.35,6.35,0,0,1-1.284.107c-2.281,0-3.17-.857-3.17-3.041V23.8H80.163V21.966H81.8V19.3Z" transform="translate(-23.257 -17.522)" fill="#fff"/>
          <path id="Tracé_13" data-name="Tracé 13" d="M86.065,27.1c0-3.544,2.088-5.772,5.343-5.772s5.344,2.227,5.344,5.772-2.067,5.772-5.344,5.772S86.065,30.657,86.065,27.1Zm8.331,0c0-2.431-1.114-3.866-2.988-3.866s-2.987,1.446-2.987,3.866c0,2.441,1.113,3.865,2.987,3.865S94.4,29.544,94.4,27.1Z" transform="translate(-21.815 -17.026)" fill="#fff"/>
          <path id="Tracé_14" data-name="Tracé 14" d="M96.186,21.466h2.205v1.917h.054a2.687,2.687,0,0,1,2.71-2.035,3.566,3.566,0,0,1,.792.086V23.6a3.232,3.232,0,0,0-1.039-.14A2.33,2.33,0,0,0,98.5,26.049v6.682H96.186Z" transform="translate(-19.343 -17.022)" fill="#fff"/>
          <path id="Tracé_15" data-name="Tracé 15" d="M111.379,29.426c-.311,2.045-2.3,3.448-4.851,3.448-3.277,0-5.311-2.2-5.311-5.718s2.045-5.825,5.214-5.825c3.117,0,5.077,2.141,5.077,5.557v.792h-7.956v.14a2.934,2.934,0,0,0,3.03,3.191,2.549,2.549,0,0,0,2.6-1.584Zm-7.817-3.362h5.632a2.709,2.709,0,0,0-2.763-2.859,2.852,2.852,0,0,0-2.869,2.859Z" transform="translate(-18.114 -17.026)" fill="#fff"/>
        </g>
      </g>
    </g>
    <g id="_Group_4" data-name="&lt;Group&gt;" transform="translate(44.383 9.069)">
      <g id="Groupe_64" data-name="Groupe 64">
        <path id="Tracé_16" data-name="Tracé 16" d="M38.353,8.733a3.284,3.284,0,0,1,3.493,3.689c0,2.372-1.282,3.735-3.493,3.735H35.671V8.733Zm-1.529,6.374h1.4a2.334,2.334,0,0,0,2.448-2.67,2.34,2.34,0,0,0-2.448-2.655h-1.4Z" transform="translate(-35.671 -8.367)" fill="#fff"/>
        <path id="Tracé_17" data-name="Tracé 17" d="M41.683,13.015a2.654,2.654,0,1,1,5.284,0,2.655,2.655,0,1,1-5.284,0Zm4.147,0c0-1.214-.546-1.925-1.5-1.925s-1.5.71-1.5,1.925.541,1.929,1.5,1.929,1.5-.71,1.5-1.929Z" transform="translate(-34.206 -8.029)" fill="#fff"/>
        <path id="Tracé_18" data-name="Tracé 18" d="M52.8,15.8H51.648L50.49,11.671H50.4L49.25,15.8H48.114l-1.544-5.6h1.122l1,4.275h.083l1.152-4.275H50.99l1.152,4.275h.087l1-4.275h1.106Z" transform="translate(-33.009 -8.008)" fill="#fff"/>
        <path id="Tracé_19" data-name="Tracé 19" d="M53.854,10.217h1.064v.89H55a1.677,1.677,0,0,1,1.672-1,1.822,1.822,0,0,1,1.939,2.084V15.82H57.506V12.471c0-.9-.391-1.348-1.209-1.348a1.285,1.285,0,0,0-1.338,1.42V15.82H53.854Z" transform="translate(-31.23 -8.03)" fill="#fff"/>
        <path id="Tracé_20" data-name="Tracé 20" d="M59.094,8.437H60.2v7.79H59.094Z" transform="translate(-29.95 -8.437)" fill="#fff"/>
        <path id="Tracé_21" data-name="Tracé 21" d="M61.22,13.015a2.655,2.655,0,1,1,5.285,0,2.655,2.655,0,1,1-5.285,0Zm4.147,0c0-1.214-.546-1.925-1.5-1.925s-1.5.71-1.5,1.925.541,1.929,1.5,1.929,1.5-.71,1.5-1.929Z" transform="translate(-29.434 -8.029)" fill="#fff"/>
        <path id="Tracé_22" data-name="Tracé 22" d="M66.4,14.234c0-1.009.751-1.59,2.084-1.673L70,12.474v-.484c0-.592-.391-.926-1.147-.926-.617,0-1.045.227-1.168.623h-1.07c.113-.962,1.018-1.58,2.289-1.58,1.4,0,2.2.7,2.2,1.883v3.828H70.039v-.787h-.087a1.885,1.885,0,0,1-1.683.88A1.692,1.692,0,0,1,66.4,14.234Zm3.6-.479v-.468l-1.368.087c-.772.052-1.122.314-1.122.808s.437.8,1.039.8A1.321,1.321,0,0,0,70,13.756Z" transform="translate(-28.165 -8.029)" fill="#fff"/>
        <path id="Tracé_23" data-name="Tracé 23" d="M71.348,13.423c0-1.77.91-2.892,2.326-2.892a1.846,1.846,0,0,1,1.718.983h.083V8.437H76.58v7.79h-1.06v-.885h-.087a1.945,1.945,0,0,1-1.759.978C72.249,16.319,71.348,15.2,71.348,13.423Zm1.142,0c0,1.188.56,1.9,1.5,1.9s1.508-.725,1.508-1.9-.582-1.9-1.508-1.9-1.5.72-1.5,1.9Z" transform="translate(-26.957 -8.437)" fill="#fff"/>
        <path id="Tracé_24" data-name="Tracé 24" d="M79.232,13.015a2.654,2.654,0,1,1,5.284,0,2.655,2.655,0,1,1-5.284,0Zm4.147,0c0-1.214-.546-1.925-1.5-1.925s-1.5.71-1.5,1.925.541,1.929,1.5,1.929S83.38,14.234,83.38,13.015Z" transform="translate(-25.034 -8.029)" fill="#fff"/>
        <path id="Tracé_25" data-name="Tracé 25" d="M84.669,10.217h1.064v.89h.083a1.677,1.677,0,0,1,1.672-1,1.822,1.822,0,0,1,1.939,2.084V15.82H88.322V12.471c0-.9-.391-1.348-1.209-1.348a1.285,1.285,0,0,0-1.338,1.42V15.82H84.669Z" transform="translate(-23.703 -8.03)" fill="#fff"/>
        <path id="Tracé_26" data-name="Tracé 26" d="M93.907,9.074v1.42h1.214v.931H93.907v2.881c0,.587.242.844.792.844a3.691,3.691,0,0,0,.422-.026v.921a3.628,3.628,0,0,1-.6.057c-1.23,0-1.719-.433-1.719-1.513V11.425h-.889v-.931H92.8V9.074Z" transform="translate(-21.935 -8.281)" fill="#fff"/>
        <path id="Tracé_27" data-name="Tracé 27" d="M95.7,8.437h1.1v3.088h.087a1.724,1.724,0,0,1,1.708-1,1.846,1.846,0,0,1,1.93,2.089v3.617H99.419V12.882c0-.895-.417-1.348-1.2-1.348a1.309,1.309,0,0,0-1.411,1.42v3.272H95.7Z" transform="translate(-21.008 -8.437)" fill="#fff"/>
        <path id="Tracé_28" data-name="Tracé 28" d="M105.751,14.306a2.274,2.274,0,0,1-2.428,1.621,2.545,2.545,0,0,1-2.588-2.892,2.584,2.584,0,0,1,2.583-2.927c1.559,0,2.5,1.065,2.5,2.824v.386h-3.956v.062a1.481,1.481,0,0,0,1.492,1.605,1.343,1.343,0,0,0,1.333-.679ZM101.861,12.5h2.83a1.352,1.352,0,0,0-1.379-1.451,1.433,1.433,0,0,0-1.451,1.451Z" transform="translate(-19.785 -8.029)" fill="#fff"/>
      </g>
    </g>
  </g>
</svg>
