<svg xmlns="http://www.w3.org/2000/svg" xmlns:xlink="http://www.w3.org/1999/xlink" width="72" height="111.162" viewBox="0 0 72 111.162">
  <defs>
    <linearGradient id="linear-gradient" x1="0.737" y1="-0.089" x2="0.052" y2="1.187" gradientUnits="objectBoundingBox">
      <stop offset="0" stop-color="#fff"/>
      <stop offset="1" stop-color="#e6e6e6"/>
    </linearGradient>
    <filter id="Rectangle_87" x="0" y="0" width="72" height="101" filterUnits="userSpaceOnUse">
      <feOffset dy="1" input="SourceAlpha"/>
      <feGaussianBlur result="blur"/>
      <feFlood flood-opacity="0.043"/>
      <feComposite operator="in" in2="blur"/>
      <feComposite in="SourceGraphic"/>
    </filter>
  </defs>
  <g id="Group_3060" data-name="Group 3060" transform="translate(0.093 0.248)">
    <g transform="matrix(1, 0, 0, 1, -0.09, -0.25)" filter="url(#Rectangle_87)">
      <rect id="Rectangle_87-2" data-name="Rectangle 87" width="72" height="100" transform="translate(0)" fill="url(#linear-gradient)"/>
    </g>
    <path id="Path_9764" data-name="Path 9764" d="M19,51H30.091V75.031l-5.546-5.546L19,75.031Z" transform="translate(-6.143 35.883)" fill="#e43535" fill-rule="evenodd"/>
    <ellipse id="Ellipse_454" data-name="Ellipse 454" cx="9" cy="9.5" rx="9" ry="9.5" transform="translate(8.907 73.752)" fill="#ffaf40"/>
    <line id="Line_10" data-name="Line 10" x2="44.697" transform="translate(12.83 26.073)" fill="none" stroke="#c4c4c4" stroke-linecap="round" stroke-width="3"/>
    <line id="Line_11" data-name="Line 11" x2="44.697" transform="translate(12.83 34.35)" fill="none" stroke="#c4c4c4" stroke-linecap="round" stroke-width="3"/>
    <line id="Line_12" data-name="Line 12" x2="44.697" transform="translate(12.83 42.627)" fill="none" stroke="#c4c4c4" stroke-linecap="round" stroke-width="3"/>
    <line id="Line_13" data-name="Line 13" x2="44.697" transform="translate(12.83 50.905)" fill="none" stroke="#c4c4c4" stroke-linecap="round" stroke-width="3"/>
    <line id="Line_14" data-name="Line 14" x2="23.176" transform="translate(12.83 59.182)" fill="none" stroke="#c4c4c4" stroke-linecap="round" stroke-width="3"/>
    <path id="ic_check_24px" d="M6.541,11.516,4.205,9.18l-.8.79L6.541,13.1,13.262,6.38l-.79-.79Z" transform="translate(10.066 74.67)"/>
  </g>
</svg>
