<svg id="Group_3079" data-name="Group 3079" xmlns="http://www.w3.org/2000/svg" xmlns:xlink="http://www.w3.org/1999/xlink" width="192" height="48.743" viewBox="0 0 192 48.743">
  <defs>
    <linearGradient id="linear-gradient" x1="0.915" y1="6.547" x2="-0.383" y2="5.878" gradientUnits="objectBoundingBox">
      <stop offset="0" stop-color="#00a0ff"/>
      <stop offset="0.007" stop-color="#00a1ff"/>
      <stop offset="0.26" stop-color="#00beff"/>
      <stop offset="0.512" stop-color="#00d2ff"/>
      <stop offset="0.76" stop-color="#00dfff"/>
      <stop offset="1" stop-color="#00e3ff"/>
    </linearGradient>
    <linearGradient id="linear-gradient-2" x1="1.076" y1="16.904" x2="-1.305" y2="16.904" gradientUnits="objectBoundingBox">
      <stop offset="0" stop-color="#ffe000"/>
      <stop offset="0.409" stop-color="#ffbd00"/>
      <stop offset="0.775" stop-color="orange"/>
      <stop offset="1" stop-color="#ff9c00"/>
    </linearGradient>
    <linearGradient id="linear-gradient-3" x1="0.862" y1="10.733" x2="-0.501" y2="8.963" gradientUnits="objectBoundingBox">
      <stop offset="0" stop-color="#ff3a44"/>
      <stop offset="1" stop-color="#c31162"/>
    </linearGradient>
    <linearGradient id="linear-gradient-4" x1="-0.188" y1="13.452" x2="0.421" y2="12.662" gradientUnits="objectBoundingBox">
      <stop offset="0" stop-color="#32a071"/>
      <stop offset="0.068" stop-color="#2da771"/>
      <stop offset="0.476" stop-color="#15cf74"/>
      <stop offset="0.801" stop-color="#06e775"/>
      <stop offset="1" stop-color="#00f076"/>
    </linearGradient>
  </defs>
  <g id="Group_3076" data-name="Group 3076" transform="translate(0 0)">
    <path id="Path_178" data-name="Path 178" d="M10.292,49.616c-.379,0-.749,0-1.125-.014a15.416,15.416,0,0,1-2.325-.208,7.2,7.2,0,0,1-2.061-.7,7.037,7.037,0,0,1-3.007-3.075A7.416,7.416,0,0,1,1.1,43.509,16.194,16.194,0,0,1,.891,41.12c-.008-.269-.018-1.164-.018-1.164V10.52s.011-.881.018-1.14A16.138,16.138,0,0,1,1.1,6.995a7.46,7.46,0,0,1,.676-2.118A6.843,6.843,0,0,1,3.036,3.1a6.933,6.933,0,0,1,1.744-1.3A7.123,7.123,0,0,1,6.837,1.1,15.292,15.292,0,0,1,9.17.891L10.292.875H183.448l1.136.016A15.048,15.048,0,0,1,186.9,1.1a7.264,7.264,0,0,1,2.078.7,7.046,7.046,0,0,1,3,3.084,7.47,7.47,0,0,1,.666,2.1,16.957,16.957,0,0,1,.216,2.4c0,.361,0,.749,0,1.134.01.478.01.933.01,1.391V38.58c0,.463,0,.915-.01,1.37,0,.414,0,.794,0,1.185a16.612,16.612,0,0,1-.213,2.362,7.441,7.441,0,0,1-.672,2.128,6.978,6.978,0,0,1-1.263,1.766,6.744,6.744,0,0,1-1.741,1.3,7.171,7.171,0,0,1-2.075.7,15.238,15.238,0,0,1-2.325.208c-.364.009-.746.014-1.116.014l-1.348,0Z" transform="translate(-0.873 -0.875)"/>
  </g>
  <g id="Group_3046" data-name="Group 3046" transform="translate(57.823 5.978)">
    <path id="Path_9787" data-name="Path 9787" d="M58.684,22.486a3.835,3.835,0,0,1-1.056,2.835,4.114,4.114,0,0,1-3.12,1.257A4.375,4.375,0,0,1,50.1,22.142a4.373,4.373,0,0,1,4.412-4.436,4.4,4.4,0,0,1,1.744.355,3.507,3.507,0,0,1,1.328.948l-.746.747a2.872,2.872,0,0,0-2.326-1.008,3.285,3.285,0,0,0-3.3,3.393,3.34,3.34,0,0,0,5.671,2.443,2.671,2.671,0,0,0,.712-1.72H54.508V21.845h4.117A3.652,3.652,0,0,1,58.684,22.486Z" transform="translate(-50.096 -17.706)" fill="#fff" stroke="#fff" stroke-miterlimit="10" stroke-width="0.2"/>
    <path id="Path_9788" data-name="Path 9788" d="M62.228,18.883H58.359v2.692h3.488V22.6H58.359V25.29h3.869v1.043H57.269V17.84h4.959Z" transform="translate(-47.115 -17.65)" fill="#fff" stroke="#fff" stroke-miterlimit="10" stroke-width="0.2"/>
    <path id="Path_9789" data-name="Path 9789" d="M65.04,26.334H63.947v-7.45H61.576V17.84h5.837v1.043H65.04Z" transform="translate(-45.325 -17.65)" fill="#fff" stroke="#fff" stroke-miterlimit="10" stroke-width="0.2"/>
    <path id="Path_9790" data-name="Path 9790" d="M68.682,26.334V17.84h1.091v8.494Z" transform="translate(-42.372 -17.65)" fill="#fff" stroke="#fff" stroke-miterlimit="10" stroke-width="0.2"/>
    <path id="Path_9791" data-name="Path 9791" d="M73.889,26.334H72.8v-7.45H70.425V17.84h5.837v1.043H73.889Z" transform="translate(-41.647 -17.65)" fill="#fff" stroke="#fff" stroke-miterlimit="10" stroke-width="0.2"/>
    <path id="Path_9792" data-name="Path 9792" d="M84.549,25.291a4.407,4.407,0,0,1-6.227,0,4.588,4.588,0,0,1,0-6.3A4.4,4.4,0,0,1,84.544,19a4.575,4.575,0,0,1,0,6.292Zm-5.422-.711a3.267,3.267,0,0,0,4.615,0,3.326,3.326,0,0,0,.944-2.438,3.324,3.324,0,0,0-.944-2.438,3.264,3.264,0,0,0-4.615,0,3.329,3.329,0,0,0-.943,2.438A3.331,3.331,0,0,0,79.127,24.58Z" transform="translate(-38.886 -17.706)" fill="#fff" stroke="#fff" stroke-miterlimit="10" stroke-width="0.2"/>
    <path id="Path_9793" data-name="Path 9793" d="M84.319,26.334V17.84h1.329l4.128,6.607h.047l-.047-1.636V17.84h1.091v8.494H89.729L85.41,19.406h-.047l.047,1.638v5.29Z" transform="translate(-35.873 -17.65)" fill="#fff" stroke="#fff" stroke-miterlimit="10" stroke-width="0.2"/>
  </g>
  <path id="Path_9794" data-name="Path 9794" d="M88.14,34.546a6.021,6.021,0,1,0,6.043,6.022A5.935,5.935,0,0,0,88.14,34.546Zm0,9.67a3.658,3.658,0,1,1,3.4-3.648A3.483,3.483,0,0,1,88.14,44.216Zm-13.183-9.67A6.021,6.021,0,1,0,81,40.568,5.936,5.936,0,0,0,74.957,34.546Zm0,9.67a3.658,3.658,0,1,1,3.4-3.648A3.483,3.483,0,0,1,74.957,44.216ZM59.273,36.393v2.555h6.111a5.33,5.33,0,0,1-1.39,3.215,6.255,6.255,0,0,1-4.721,1.87,6.8,6.8,0,0,1,0-13.591,6.511,6.511,0,0,1,4.606,1.823l1.8-1.8a8.912,8.912,0,0,0-6.408-2.578,9.352,9.352,0,1,0,0,18.7A8.55,8.55,0,0,0,65.8,43.965a8.436,8.436,0,0,0,2.213-5.975,8.277,8.277,0,0,0-.137-1.6Zm64.138,1.985a5.6,5.6,0,0,0-5.154-3.832,5.722,5.722,0,0,0-5.678,6.022,5.892,5.892,0,0,0,5.975,6.021,5.988,5.988,0,0,0,5.017-2.668l-2.053-1.369a3.438,3.438,0,0,1-2.964,1.665,3.064,3.064,0,0,1-2.92-1.825l8.051-3.329Zm-8.21,2.007a3.3,3.3,0,0,1,3.147-3.512,2.329,2.329,0,0,1,2.235,1.277Zm-6.544,5.838H111.3v-17.7h-2.644Zm-4.333-10.331h-.092a4.173,4.173,0,0,0-3.17-1.346,6.027,6.027,0,0,0,0,12.042,4.1,4.1,0,0,0,3.17-1.369h.092v.866c0,2.3-1.232,3.535-3.216,3.535a3.331,3.331,0,0,1-3.034-2.143l-2.3.958a5.739,5.739,0,0,0,5.337,3.557c3.1,0,5.725-1.825,5.725-6.271V34.911h-2.508Zm-3.034,8.324a3.662,3.662,0,0,1,0-7.3,3.392,3.392,0,0,1,3.215,3.672A3.363,3.363,0,0,1,101.29,44.216ZM135.8,28.527h-6.329v17.7h2.64v-6.7H135.8a5.5,5.5,0,1,0,0-10.992Zm.068,8.529h-3.757V30.989h3.757a3.034,3.034,0,1,1,0,6.067ZM152.2,34.513a4.961,4.961,0,0,0-4.713,2.709l2.344.98a2.5,2.5,0,0,1,2.414-1.3,2.543,2.543,0,0,1,2.777,2.276v.183a5.843,5.843,0,0,0-2.755-.682c-2.527,0-5.1,1.389-5.1,3.983,0,2.368,2.072,3.893,4.394,3.893a3.725,3.725,0,0,0,3.371-1.73h.091v1.366h2.549V39.409C157.569,36.267,155.224,34.513,152.2,34.513Zm-.319,9.7c-.866,0-2.072-.433-2.072-1.5,0-1.366,1.5-1.89,2.8-1.89a4.69,4.69,0,0,1,2.414.593A3.2,3.2,0,0,1,151.878,44.213Zm14.98-9.312-3.028,7.673h-.091L160.6,34.9h-2.847l4.713,10.723-2.685,5.965h2.755L169.8,34.9ZM143.066,46.223h2.642v-17.7h-2.642Z" transform="translate(7.598 -7.498)" fill="#fff"/>
  <g id="Group_3048" data-name="Group 3048" transform="translate(13.402 6.366)">
    <path id="Path_9795" data-name="Path 9795" d="M19.371,18.408a2.841,2.841,0,0,0-.654,1.989V51.7a2.839,2.839,0,0,0,.654,1.989l.1.1L37.014,36.258v-.413L19.476,18.3Z" transform="translate(-18.717 -17.845)" fill="url(#linear-gradient)"/>
    <path id="Path_9796" data-name="Path 9796" d="M37.488,38.673l-5.846-5.848v-.413l5.848-5.848.132.075,6.927,3.935c1.978,1.124,1.978,2.964,0,4.088L37.622,38.6Z" transform="translate(-13.345 -14.413)" fill="url(#linear-gradient-2)"/>
    <path id="Path_9797" data-name="Path 9797" d="M42.8,36.82l-5.979-5.979L19.179,48.484c.653.689,1.73.776,2.943.086L42.8,36.82" transform="translate(-18.525 -12.635)" fill="url(#linear-gradient-3)"/>
    <path id="Path_9798" data-name="Path 9798" d="M42.8,30.206,22.122,18.456c-1.213-.688-2.29-.6-2.943.088L36.822,36.186Z" transform="translate(-18.525 -17.98)" fill="url(#linear-gradient-4)"/>
    <g id="Group_3047" data-name="Group 3047" transform="translate(0 24.053)">
      <path id="Path_9799" data-name="Path 9799" d="M42.669,34.972,22.122,46.646a2.359,2.359,0,0,1-2.837.016h0l-.106.1h0l.1.1h0a2.357,2.357,0,0,0,2.837-.016L42.8,35.1Z" transform="translate(-18.525 -34.972)" opacity="0.2" style="isolation: isolate"/>
      <path id="Path_9800" data-name="Path 9800" d="M19.371,43.742a2.841,2.841,0,0,1-.654-1.989v.207a2.839,2.839,0,0,0,.654,1.989l.106-.1Z" transform="translate(-18.717 -32.154)" opacity="0.12" style="isolation: isolate"/>
    </g>
    <path id="Path_9801" data-name="Path 9801" d="M42.831,32.678l-7.058,4.01.132.132,6.927-3.935a2.487,2.487,0,0,0,1.484-2.044h0A2.637,2.637,0,0,1,42.831,32.678Z" transform="translate(-11.628 -12.635)" opacity="0.12" style="isolation: isolate"/>
    <path id="Path_9802" data-name="Path 9802" d="M22.314,18.664,49.92,34.348A2.634,2.634,0,0,1,51.4,36.186h0a2.481,2.481,0,0,0-1.484-2.044L22.314,18.457c-1.979-1.124-3.6-.191-3.6,2.075v.207C18.717,18.474,20.335,17.54,22.314,18.664Z" transform="translate(-18.717 -17.98)" fill="#fff" opacity="0.25" style="isolation: isolate"/>
  </g>
</svg>
