<svg xmlns="http://www.w3.org/2000/svg" width="108.079" height="75.234" viewBox="0 0 108.079 75.234">
  <g id="Group_3057" data-name="Group 3057" transform="translate(0 0)">
    <g id="Group_3049" data-name="Group 3049" transform="translate(0)">
      <path id="path650" d="M284.9-304.445V-281.8c0,4.658,3.079,9.317,9.235,12.872,12.312,7.108,32.274,7.108,44.589,0,6.158-3.555,9.235-8.215,9.233-12.876v-22.644H284.9" transform="translate(-261.178 338.827)" fill="#16253a"/>
      <path id="path652" d="M300.829-276.859l-54.04-31.2v-1.495H354.868v1.495l-54.039,31.2" transform="translate(-246.789 340.757)" fill="#192c4b"/>
      <path id="path654" d="M300.829-297.279l-54.04-31.2,54.04-31.2,54.039,31.2-54.039,31.2" transform="translate(-246.789 359.679)" fill="#223e73"/>
    </g>
    <path id="path656" d="M363.215-275.775h-1.869V-294.99L332.93-309.226l.838-1.672,29.447,14.754v20.368" transform="translate(-279.309 341.263)" fill="#fad517"/>
    <path id="path658" d="M336.066-310.145c0,1.032-1.378,1.869-3.083,1.869s-3.084-.837-3.084-1.869,1.381-1.869,3.084-1.869,3.083.838,3.083,1.869" transform="translate(-278.165 341.685)" fill="#fad517"/>
    <path id="path660" d="M381.026-247.752v-9.509a2.172,2.172,0,0,0-2.17-2.173,2.171,2.171,0,0,0-2.174,2.173v9.509h4.344" transform="translate(-295.827 321.834)" fill="#f5f122"/>
  </g>
</svg>
