<svg xmlns="http://www.w3.org/2000/svg" width="47" height="31" viewBox="0 0 47 31">
  <g id="ic-download_student_card" data-name="ic-download student card" transform="translate(-228.5 -2200.508)">
    <g id="Path_9808" data-name="Path 9808" transform="translate(228.5 2200.508)" fill="none">
      <path d="M4,0H43a4,4,0,0,1,4,4V27a4,4,0,0,1-4,4H4a4,4,0,0,1-4-4V4A4,4,0,0,1,4,0Z" stroke="none"/>
      <path d="M 4 2 C 2.897201538085938 2 2 2.897199630737305 2 4 L 2 27 C 2 28.1028003692627 2.897201538085938 29 4 29 L 43 29 C 44.10279846191406 29 45 28.1028003692627 45 27 L 45 4 C 45 2.897199630737305 44.10279846191406 2 43 2 L 4 2 M 4 0 L 43 0 C 45.20914077758789 0 47 1.790859222412109 47 4 L 47 27 C 47 29.20914077758789 45.20914077758789 31 43 31 L 4 31 C 1.790859222412109 31 0 29.20914077758789 0 27 L 0 4 C 0 1.790859222412109 1.790859222412109 0 4 0 Z" stroke="none" fill="#c3c6ce"/>
    </g>
    <path id="Path_206" data-name="Path 206" d="M0,0H23.306" transform="translate(240.188 2223.858)" fill="none" stroke="#c3c6ce" stroke-linecap="round" stroke-width="2"/>
    <path id="ic_account_circle_24px" d="M9.462,2a7.462,7.462,0,1,0,7.462,7.462A7.465,7.465,0,0,0,9.462,2Zm0,2.239A2.239,2.239,0,1,1,7.224,6.477,2.236,2.236,0,0,1,9.462,4.239Zm0,10.6a5.373,5.373,0,0,1-4.477-2.4c.022-1.485,2.985-2.3,4.477-2.3s4.455.813,4.477,2.3A5.373,5.373,0,0,1,9.462,14.835Z" transform="translate(242.378 2203.127)" fill="#c3c6ce"/>
  </g>
</svg>
