<svg xmlns="http://www.w3.org/2000/svg" width="51.343" height="42.996" viewBox="0 0 51.343 42.996">
  <g id="ic-download" transform="translate(-278.834 -639.75)">
    <g id="vuesax_bulk_mobile" data-name="vuesax/bulk/mobile" transform="translate(170.834 259.75)">
      <g id="mobile" transform="translate(108 380)">
        <path id="Vector" d="M21.928,0H6.736C1.792,0,0,1.792,0,6.826V29c0,5.034,1.792,6.826,6.736,6.826H21.91c4.962,0,6.754-1.792,6.754-6.826V6.826C28.664,1.792,26.873,0,21.928,0Z" transform="translate(7.166 3.583)" fill="#151e3c"/>
        <path id="Vector-2" data-name="Vector" d="M8.51,2.687H1.344A1.353,1.353,0,0,1,0,1.344,1.353,1.353,0,0,1,1.344,0H8.51A1.353,1.353,0,0,1,9.853,1.344,1.353,1.353,0,0,1,8.51,2.687Z" transform="translate(16.571 8.51)" fill="#ffdc05"/>
        <path id="Vector-3" data-name="Vector" d="M6.27,3.135A3.135,3.135,0,1,1,3.135,0,3.135,3.135,0,0,1,6.27,3.135Z" transform="translate(18.363 28.306)" fill="#ffdc05"/>
        <path id="Vector-4" data-name="Vector" d="M0,0H43V43H0Z" fill="none" opacity="0"/>
      </g>
    </g>
    <g id="vuesax_bulk_receive-square" data-name="vuesax/bulk/receive-square" transform="translate(-437.823 277.009)">
      <g id="receive-square" transform="translate(748 380)">
        <path id="Vector-5" data-name="Vector" d="M0,0H20V20H0Z" fill="none" opacity="0"/>
        <path id="Vector-6" data-name="Vector" d="M12.579,0H5.159C1.924,0,0,1.924,0,5.15V12.57c0,3.227,1.924,5.15,5.15,5.15H12.57c3.227,0,5.15-1.924,5.15-5.15V5.15C17.729,1.924,15.805,0,12.579,0Z" transform="translate(1.137 1.137)" fill="#ffdc05"/>
        <g id="Group" transform="translate(5.29 5.654)">
          <path id="Vector-7" data-name="Vector" d="M2.241,6.463a.54.54,0,0,0,.167.111.5.5,0,0,0,.2.042.525.525,0,0,0,.2-.042.54.54,0,0,0,.167-.111L5.069,4.374a.522.522,0,0,0-.738-.738l-1.2,1.2V.522a.522.522,0,0,0-1.045,0V4.834l-1.2-1.2a.522.522,0,0,0-.738.738Z" transform="translate(2.097)" fill="#151e3c"/>
          <path id="Vector-8" data-name="Vector" d="M9.381.354A.522.522,0,0,0,8.719.027a12.769,12.769,0,0,1-8.03,0,.522.522,0,1,0-.334.989,13.752,13.752,0,0,0,4.346.7,13.752,13.752,0,0,0,4.346-.7A.525.525,0,0,0,9.381.354Z" transform="translate(0 6.973)" fill="#151e3c"/>
        </g>
      </g>
    </g>
  </g>
</svg>
