<svg id="ic-wallet" xmlns="http://www.w3.org/2000/svg" width="49.168" height="49.168" viewBox="0 0 49.168 49.168">
  <path id="Vector" d="M0,0H49.168V49.168H0Z" fill="none" opacity="0"/>
  <path id="Vector-2" data-name="Vector" d="M40.973,10.243V20.487c0,6.146-4.1,10.243-10.243,10.243H10.243C4.1,30.73,0,26.633,0,20.487V10.243C0,4.671,3.36.778,8.584.123A10.9,10.9,0,0,1,10.243,0H30.73a9.368,9.368,0,0,1,1.537.1C37.552.717,40.973,4.63,40.973,10.243Z" transform="translate(4.097 14.341)" fill="#151e3c"/>
  <path id="Vector-3" data-name="Vector" d="M23.683,10.346a9.368,9.368,0,0,0-1.536-.1H1.659A10.9,10.9,0,0,0,0,10.366a6.234,6.234,0,0,1,1.188-1.6L7.846,2.09a7.221,7.221,0,0,1,10.161,0l3.585,3.626A6.912,6.912,0,0,1,23.683,10.346Z" transform="translate(12.681 4.097)" fill="#ffdc05"/>
  <path id="Vector-4" data-name="Vector" d="M10.243,0H4.1a4.1,4.1,0,0,0,0,8.195h6.146" transform="translate(34.827 25.608)" fill="#ffdc05"/>
</svg>
