<svg id="Logo_Talao" data-name="Logo Talao" xmlns="http://www.w3.org/2000/svg" width="151.235" height="42" viewBox="0 0 151.235 42">
  <g id="Group_2" data-name="Group 2" transform="translate(-79.427 -79.875)">
    <path id="Path_1" data-name="Path 1" d="M397.21,209.851a4.977,4.977,0,0,1-5.353-5.253v-9.326H386.67v-2.4h5.187V186.67h2.79v6.205h6.96v2.4h-6.959v9.067a2.735,2.735,0,0,0,2.955,2.987,9.521,9.521,0,0,0,4.2-1.116v2.462A8.943,8.943,0,0,1,397.21,209.851Z" transform="translate(-253.431 -88.119)" fill="#fff"/>
    <path id="Path_2" data-name="Path 2" d="M521.3,237.057a2.414,2.414,0,0,1-2.462-2.528h-.063a6.333,6.333,0,0,1-5.487,2.725c-3.974,0-5.754-2.528-5.754-4.892,0-2.462,1.707-5.187,5.944-5.417l5.187-.3v-1.22a2.992,2.992,0,0,0-.853-2.4,3.93,3.93,0,0,0-2.79-.954A4.12,4.12,0,0,0,512,223.1a2.837,2.837,0,0,0-.886,1.937h-2.753a4.894,4.894,0,0,1,1.543-3.414,7.383,7.383,0,0,1,5.123-1.839c3.219,0,5.123,1.479,5.911,3.283a5.906,5.906,0,0,1,.492,2.464v8.045c0,.886.427,1.116.985,1.116a4.081,4.081,0,0,0,.724-.1v2.068A3.858,3.858,0,0,1,521.3,237.057Zm-2.628-8.242-4.6.263c-1.773.1-3.677.952-3.677,3.053,0,1.479.952,2.758,3.313,2.758a4.863,4.863,0,0,0,3.487-1.346,5.344,5.344,0,0,0,1.477-3.743Z" transform="translate(-353.219 -115.456)" fill="#fff"/>
    <path id="Path_3" data-name="Path 3" d="M628.29,209.49v-2.363h5.844V188.994h-5.353V186.67h8.176v20.457h5.811v2.364Z" transform="translate(-452.923 -88.119)" fill="#fff"/>
    <path id="Path_4" data-name="Path 4" d="M754.857,237.057a2.415,2.415,0,0,1-2.462-2.528h-.066a6.322,6.322,0,0,1-5.483,2.725c-3.974,0-5.745-2.528-5.745-4.892,0-2.462,1.707-5.187,5.942-5.417l5.189-.3v-1.22a2.994,2.994,0,0,0-.854-2.4,3.93,3.93,0,0,0-2.79-.954,4.112,4.112,0,0,0-3.02,1.018,2.831,2.831,0,0,0-.887,1.937h-2.76a4.895,4.895,0,0,1,1.543-3.414,7.389,7.389,0,0,1,5.123-1.839c3.219,0,5.123,1.479,5.911,3.283a5.909,5.909,0,0,1,.493,2.464v8.045c0,.886.425,1.116.985,1.116a4.078,4.078,0,0,0,.722-.1v2.068A3.856,3.856,0,0,1,754.857,237.057Zm-2.626-8.242-4.6.263c-1.773.1-3.677.952-3.677,3.053,0,1.479.952,2.758,3.313,2.758a4.86,4.86,0,0,0,3.487-1.346,5.346,5.346,0,0,0,1.479-3.743Z" transform="translate(-546.064 -115.456)" fill="#fff"/>
    <path id="Path_5" data-name="Path 5" d="M868.825,235.275a7.505,7.505,0,0,1-5.187,2,7.67,7.67,0,0,1-5.255-2,10.034,10.034,0,0,1,0-13.462,7.677,7.677,0,0,1,5.255-2,7.492,7.492,0,0,1,5.187,2,9,9,0,0,1,2.594,6.7A9.15,9.15,0,0,1,868.825,235.275Zm-2.134-11.856a4.622,4.622,0,0,0-6.174,0,6.792,6.792,0,0,0-1.871,5.089,6.939,6.939,0,0,0,1.871,5.154,4.622,4.622,0,0,0,6.174,0,7.941,7.941,0,0,0,0-10.24Z" transform="translate(-640.757 -115.481)" fill="#fff"/>
    <rect id="Rectangle_565" data-name="Rectangle 565" width="14.206" height="14.206" transform="translate(79.427 79.875)" fill="#232d55"/>
    <path id="Path_6" data-name="Path 6" d="M187.9,80H160v27.9h13.949V93.949H187.9Z" transform="translate(-66.283 -0.048)" fill="#1eaadc"/>
    <rect id="Rectangle_566" data-name="Rectangle 566" width="9.298" height="9.298" transform="translate(96.041 96.225)" fill="#0a4178"/>
    <rect id="Rectangle_568" data-name="Rectangle 568" width="13.588" height="14.206" transform="translate(93.633 107.669)" fill="#0a4178"/>
    <rect id="Rectangle_570" data-name="Rectangle 570" width="2.324" height="2.324" transform="translate(85.58 85.764)" fill="#007d50"/>
    <rect id="Rectangle_571" data-name="Rectangle 571" width="2.324" height="2.324" transform="translate(85.58 99.712)" fill="#ffdc05"/>
    <rect id="Rectangle_572" data-name="Rectangle 572" width="4.65" height="4.65" transform="translate(112.316 98.551)" fill="#007d50"/>
    <rect id="Rectangle_573" data-name="Rectangle 573" width="2.324" height="2.324" transform="translate(99.528 113.661)" fill="#1eaadc"/>
    <rect id="Rectangle_574" data-name="Rectangle 574" width="4.65" height="4.65" transform="translate(84.419 112.499)" fill="#919191"/>
    <rect id="Rectangle_575" data-name="Rectangle 575" width="9.298" height="9.298" transform="translate(109.99 110.173)" fill="#ffdc05"/>
  </g>
</svg>
