<svg xmlns="http://www.w3.org/2000/svg" width="97" height="111.65" viewBox="0 0 97 111.65">
  <g id="Group_3072" data-name="Group 3072" transform="translate(-0.161)">
    <ellipse id="Ellipse_453" data-name="Ellipse 453" cx="48.5" cy="49" rx="48.5" ry="49" transform="translate(0.161 6.867)" fill="#83b2f4"/>
    <g id="Group_3051" data-name="Group 3051" transform="translate(8.144)">
      <path id="path778" d="M176.07-157.809c-2.038,2.9-13.38,13.274-16.73,10.922s2.564-16.542,4.6-19.442l62.784-89.363c2.037-2.9,6.4-3.342,9.753-.99s4.411,6.611,2.374,9.51L176.07-157.809" transform="translate(-158.334 258.194)" fill="#3367b1"/>
      <path id="path780" d="M236.481-256.4a8.444,8.444,0,0,0-2.143-1.085,6.421,6.421,0,0,1,.146,7.189L171.7-160.931c-1.567,2.23-8.635,8.875-13.34,10.758-.106,1.68.154,2.987.982,3.569,3.349,2.353,14.692-8.021,16.73-10.922l62.784-89.363c2.037-2.9.974-7.158-2.374-9.51" transform="translate(-158.335 257.909)" fill="#2a5698"/>
      <path id="path782" d="M166.132-110.207l-2.189,3.117c-2.038,2.9-7.95,17.089-4.6,19.442s14.692-8.022,16.73-10.922l2.189-3.117-12.127-8.521" transform="translate(-158.334 198.953)" fill="#192b45"/>
      <path id="path784" d="M174.767-100.325l-1.583,2.254c-2.037,2.9-11,15.785-14.347,13.432a2.057,2.057,0,0,0,.7.947c3.349,2.353,14.692-8.021,16.73-10.922l2.189-3.116-3.693-2.595" transform="translate(-158.536 194.998)" fill="#0d1c31"/>
      <path id="path786" d="M235.7-201.261l-9.429-6.625-4.994-3.508,27.4-38.993L263.1-240.253l-27.4,38.992" transform="translate(-183.533 255.068)" fill="#f5f122"/>
      <path id="path788" d="M256.881-240.775l-27.357,38.938-8.2-5.763-.038.055,4.994,3.508,9.429,6.625,27.4-38.992-6.219-4.37" transform="translate(-183.533 251.221)" fill="#c9c60f"/>
      <path id="path790" d="M276.754-235.166,262.331-245.3l1.587-2.259,14.423,10.133-1.587,2.259" transform="translate(-199.966 253.936)" fill="#192b45"/>
      <path id="path792" d="M270.557-238.332s7.032,2.729,2,10.765-17.322,21-18.536,26.044-6,4.509-6.14.846,4.324-7.6,8.424-13.025,16.626-20.757,11.9-26.287l2.359,1.657" transform="translate(-194.179 250.906)" fill="#3f79c6"/>
    </g>
  </g>
</svg>
