<svg id="wallet" xmlns="http://www.w3.org/2000/svg" width="48.396" height="48.396" viewBox="0 0 48.396 48.396">
  <path id="Vector" d="M0,0H48.4V48.4H0Z" fill="none" opacity="0"/>
  <path id="Vector-2" data-name="Vector" d="M40.33,10.082V20.165c0,6.049-4.033,10.082-10.082,10.082H10.082C4.033,30.247,0,26.214,0,20.165V10.082C0,4.6,3.307.766,8.449.121A10.732,10.732,0,0,1,10.082,0H30.247A9.221,9.221,0,0,1,31.76.1C36.962.706,40.33,4.557,40.33,10.082Z" transform="translate(4.033 14.115)" fill="#151e3c"/>
  <path id="Vector-3" data-name="Vector" d="M23.31,10.183a9.221,9.221,0,0,0-1.512-.1H1.633A10.732,10.732,0,0,0,0,10.2,6.136,6.136,0,0,1,1.17,8.631L7.723,2.057a7.108,7.108,0,0,1,10,0l3.529,3.569A6.8,6.8,0,0,1,23.31,10.183Z" transform="translate(12.482 4.033)" fill="#ffdc05"/>
  <path id="Vector-4" data-name="Vector" d="M10.082,0H4.033a4.033,4.033,0,0,0,0,8.066h6.049" transform="translate(34.28 25.206)" fill="#ffdc05"/>
</svg>
