<svg xmlns="http://www.w3.org/2000/svg" width="18.683" height="11.137" viewBox="0 0 18.683 11.137">
    <path data-name="Tracé 623" d="M9.341 98.725c-3.57 0-6.807 1.953-9.2 5.125a.74.74 0 0 0 0 .883c2.389 3.176 5.626 5.129 9.2 5.129s6.807-1.953 9.2-5.125a.74.74 0 0 0 0-.883c-2.393-3.176-5.63-5.129-9.2-5.129zm.256 9.49a3.93 3.93 0 1 1 3.665-3.665 3.932 3.932 0 0 1-3.662 3.665zm-.118-1.815a2.116 2.116 0 1 1 1.976-1.976 2.112 2.112 0 0 1-1.976 1.976z" transform="translate(0 -98.725)" style="fill:#3f434d"/>
</svg>
