<svg xmlns="http://www.w3.org/2000/svg" width="30.926" height="28.374" viewBox="0 0 30.926 28.374">
    <path data-name="Rectangle 29" transform="translate(8.675)" style="fill:#d0dbe5" d="M0 0h2.5v6.292H0z"/>
    <path data-name="Rectangle 30" transform="translate(19.524)" style="fill:#d0dbe5" d="M0 0h2.5v6.292H0z"/>
    <path data-name="Tracé 33" d="M1110.956 1745.2h-7.218v2.5h4.718v21.151h-25.926V1747.7h4.175v-2.5h-6.675v26.151h30.926z" transform="translate(-1080.03 -1742.975)" style="fill:#d0dbe5"/>
    <path data-name="Rectangle 31" transform="translate(13.077 2.223)" style="fill:#d0dbe5" d="M0 0h4.34v2.5H0z"/>
    <path data-name="Soustraction 5" d="M7.065 7.065H0V0h7.065v7.064zM2.209 2.209v2.707h2.707V2.209z" transform="translate(19.813 8.603)" style="stroke:transparent;fill:#d0dbe5"/>
    <path data-name="Soustraction 6" d="M7.065 7.065H0V0h7.065v7.064zM2.209 2.209v2.707h2.707V2.209z" transform="translate(11.958 8.603)" style="stroke:transparent;fill:#d0dbe5"/>
    <path data-name="Soustraction 9" d="M7.065 7.065H0V0h7.065v7.064zM2.209 2.209v2.707h2.707V2.209z" transform="translate(11.958 16.603)" style="stroke:transparent;fill:#d0dbe5"/>
    <path data-name="Soustraction 7" d="M7.065 7.065H0V0h7.065v7.064zM2.209 2.209v2.707h2.707V2.209z" transform="translate(4.103 8.603)" style="stroke:transparent;fill:#d0dbe5"/>
    <path data-name="Soustraction 8" d="M7.065 7.065H0V0h7.065v7.064zM2.209 2.209v2.707h2.707V2.209z" transform="translate(4.103 16.603)" style="stroke:transparent;fill:#d0dbe5"/>
</svg>
