<svg xmlns="http://www.w3.org/2000/svg" width="17.418" height="17.419" viewBox="0 0 17.418 17.419">
    <path d="M-1336.565 548.234a8.209 8.209 0 0 1 8.209-8.209 8.208 8.208 0 0 1 8.209 8.209 8.209 8.209 0 0 1-8.209 8.21 8.209 8.209 0 0 1-8.209-8.21zm1 0a7.218 7.218 0 0 0 7.209 7.21 7.217 7.217 0 0 0 7.209-7.21 7.216 7.216 0 0 0-7.209-7.209 7.217 7.217 0 0 0-7.209 7.209zm6.709 3.958v-5.63h1v5.63zm0-6.744v-1.172h1v1.172z" transform="translate(1337.065 -539.525)" style="fill:#b3b8bd;stroke:transparent"/>
</svg>
