<svg xmlns="http://www.w3.org/2000/svg" width="38" height="38" viewBox="0 0 38 38">
    <g data-name="load more">
        <g data-name="Tracé 54" style="fill:#fff">
            <path d="M17 35a17.938 17.938 0 0 1-12.728-5.272A17.938 17.938 0 0 1-1 17 17.938 17.938 0 0 1 4.272 4.272 17.938 17.938 0 0 1 17-1a17.938 17.938 0 0 1 12.728 5.272A17.938 17.938 0 0 1 35 17a17.938 17.938 0 0 1-5.272 12.728A17.938 17.938 0 0 1 17 35z" style="stroke:none" transform="translate(2 2)"/>
            <path d="M17 0C7.611 0 0 7.611 0 17s7.611 17 17 17 17-7.611 17-17S26.389 0 17 0m0-2a18.934 18.934 0 0 1 13.435 5.565A18.934 18.934 0 0 1 36 17a18.934 18.934 0 0 1-5.565 13.435A18.934 18.934 0 0 1 17 36a18.934 18.934 0 0 1-13.435-5.565A18.934 18.934 0 0 1-2 17 18.934 18.934 0 0 1 3.565 3.565 18.934 18.934 0 0 1 17-2z" style="fill:#e3e9ef;stroke:none" transform="translate(2 2)"/>
        </g>
        <path data-name="Tracé 53" d="m739.71 621.858-6.936-6.886-2.065 2.057 9 8.943 9-8.943-2.065-2.057z" transform="translate(-720.709 -600.972)" style="fill:#b3b8bd"/>
    </g>
</svg>
