<svg xmlns="http://www.w3.org/2000/svg" width="38.438" height="28.007" viewBox="0 0 38.438 28.007">
    <path data-name="Rectangle 13" transform="translate(6.55 11.501)" style="fill:#d0dbe5" d="M0 0h17.013v2.5H0z"/>
    <path data-name="Rectangle 14" transform="translate(6.55 16.046)" style="fill:#d0dbe5" d="M0 0h10.102v2.5H0z"/>
    <path data-name="Rectangle 15" transform="translate(18.511 16.046)" style="fill:#d0dbe5" d="M0 0h1.772v2.5H0z"/>
    <path data-name="Tracé 23" d="M388.965 1327.882c-4.28 0-7.985 1.806-9.612 4.579a20.91 20.91 0 0 0-3.253-.259c-8.327 0-15.1 4.853-15.1 10.819a9.026 9.026 0 0 0 2.979 6.48 373.8 373.8 0 0 0-.262 3.908l-.154 2.48 2.083-1.355c.913-.594 2.38-1.528 3.2-2.01a20.111 20.111 0 0 0 7.257 1.317c8.326 0 15.1-4.853 15.1-10.82 0-.024 0-.048-.006-.073a13.08 13.08 0 0 0 2.561-.655c.535.323 1.361.848 1.942 1.226l2.083 1.355-.154-2.48s-.083-1.33-.161-2.415a6.366 6.366 0 0 0 1.971-4.476c-.002-4.274-4.602-7.621-10.474-7.621zm-12.865 23.459a17.366 17.366 0 0 1-6.842-1.349l-.53-.229-.519.256c-.362.178-1.1.624-1.838 1.086.047-.7.1-1.435.145-2.018l.05-.63-.478-.414a6.779 6.779 0 0 1-2.589-5.022c0-4.587 5.652-8.319 12.6-8.319s12.6 3.732 12.6 8.319-5.651 8.32-12.599 8.32zm19.257-12.81-.477.413.049.63c.013.163.027.343.04.532a9.988 9.988 0 0 0-.566-.318l-.518-.255-.531.229a10.633 10.633 0 0 1-2.588.726c-1.127-3.345-4.414-6.093-8.755-7.421a9.393 9.393 0 0 1 6.954-2.685c4.321 0 7.972 2.345 7.972 5.121a4.109 4.109 0 0 1-1.58 3.028z" transform="translate(-360.999 -1327.882)" style="fill:#d0dbe5"/>
</svg>
