<svg xmlns="http://www.w3.org/2000/svg" width="40" height="40" viewBox="0 0 40 40">
    <circle data-name="Oval" cx="20" cy="20" r="20" style="fill:#ccc"/>
    <path d="m0 22 .165-1.15c.64-4.427 5.3-7.766 10.834-7.766s10.194 3.339 10.835 7.766L22 22zm2.477-2.014h17.046C18.444 17.131 15.012 15.1 11 15.1s-7.443 2.031-8.523 4.886zM4.83 6.109a6.17 6.17 0 0 1 12.34 0 6.17 6.17 0 0 1-12.34 0zm2.034 0A4.136 4.136 0 1 0 11 2.014a4.12 4.12 0 0 0-4.136 4.095z" transform="translate(9 9)" style="fill:#fff;stroke:transparent"/>
</svg>
