<svg data-name="2085404" xmlns="http://www.w3.org/2000/svg" xmlns:xlink="http://www.w3.org/1999/xlink" width="539.613" height="538.111" viewBox="0 0 539.613 538.111">
    <defs>
        <clipPath id="1076wmr8mg">
            <path d="m204.789-195.565-27.278-15.748L154.452-198l-83.166-48.1 84.573-50.54v65.515a2.965 2.965 0 0 0 1.234 2.733l.354.159 7.3 4.2a2.131 2.131 0 0 0 1.264.387 3.841 3.841 0 0 0 1.885-.575l82.877-47.848v12.3L201-231.036c-1.98 1.144-2.878 2.674-2.695 4.169v8.635a2.936 2.936 0 0 0-.015.31c0 1.37.9 2.737 2.709 3.782l14.771 8.532a12.277 12.277 0 0 0 4.512 1.436l-15.5 8.606" transform="translate(-71.286 296.645)"/>
        </clipPath>
        <clipPath id="uw8rwuvwmh">
            <path d="m362.024-121.208-28.294-.012-50.112-28.932 13.666-9.1v-.128l63.5 36.661 51.106-29.506 2.363.818-52.23 30.2m-101.477-42.266L207.851-193.9l51.29-20.562 1.294.747-7.663 4.424v24.207l21.7 12.531-13.931 9.076m203.148-16.522-1.3-1.388 43.292-24.995-.89-.513 3.093 1.343-44.192 25.554" transform="translate(-207.851 214.458)"/>
        </clipPath>
        <clipPath id="4gwj04xqzj">
            <path d="m208.056-193.522-7.107-4.1 15.5-8.606a15.882 15.882 0 0 0 2.051.132 13.445 13.445 0 0 0 6.566-1.568l33.65-19.429v12.646l.634.366-51.29 20.562" transform="translate(-200.949 227.097)"/>
        </clipPath>
        <clipPath id="fq7qll0vck">
            <path d="m323.419-297.022 1.953-1.127-1.953 1.127" transform="translate(-323.419 298.149)"/>
        </clipPath>
        <clipPath id="cu36hc0ovl">
            <path d="m400.289-329.562-10.282-5.938 10.282 5.936" transform="translate(-390.007 335.498)"/>
        </clipPath>
        <clipPath id="xb0xcj5h5n">
            <path d="m516.254-420.7-45.7-26.384c3.622-5.446 2.022-17.266 9.928-27.478.244-.34.508-.648.765-.96.123-.147.225-.3.354-.446l.079-.086c.2-.221.416-.416.623-.622-.419-1.765-.877-3.7-1.422-5.8a52.137 52.137 0 0 1-1.115-5.515h-.014.014c-.045-.309-.081-.6-.118-.9a8.183 8.183 0 0 1-.726.033 6.433 6.433 0 0 1-2.387-.435c1.937-.835 1.647-2.113 1.647-2.113s-3.822-7.578 1.07-12.053a1.924 1.924 0 0 1 1.351-.473c6.938 0 27.879 24.679 26.8 24.91a13.373 13.373 0 0 1 .082 2.5c4.88 3.07.794 37.4 4.189 42.353a52.026 52.026 0 0 1 4.581 13.474" transform="translate(-470.553 503.943)"/>
        </clipPath>
        <clipPath id="5e6f8irgbo">
            <path d="M473.819-519.1s-4.2 6.719-.434 21.3c3.053 11.812 3.508 18.348 8.438 18.847s19.694-3.105 18.083-15.4c1.47-.315 4.475-5.943 2.1-10.416s-4.035.415-4.035.415.1-9.748-6.794-13.3-17.358-1.446-17.358-1.446z" transform="translate(-471.819 519.72)"/>
        </clipPath>
        <clipPath id="pywoo56nap">
            <path d="M482.8-439.651s-.99 1.524-3.089 0-2.889-4.113-4.186-5.077c-.158 3.319-.008 5.641-4.121 5.564s-6.771-.642-9.112-.479.45 10.5 12.482 10.733c6.631-.411 9.452-4.12 9.452-4.12z" transform="translate(-461.534 444.728)"/>
        </clipPath>
        <clipPath id="l8gatvvnpq">
            <path d="M435.529-452.556s2.212 4.526 3.582 5.045.309 8.06-3.893 5.641-2.223-10.447.311-10.686z" transform="translate(-432.776 452.556)"/>
        </clipPath>
        <clipPath id="ep273tdsss">
            <path d="M476.467-128.785 408.318-152.4l49.439-28.587 11.571 12.339-8.111 4.7 7.632 4.41 5.846-3.388-5.846 3.388-.005 8.8 11.2-6.488 14.022 14.95-17.6 13.491" transform="translate(-408.318 180.986)"/>
        </clipPath>
        <clipPath id="zqva7sa0cu">
            <path d="m408.386-152.359-2.363-.82 50.5-29.156 1.3 1.388-49.439 28.588" transform="translate(-406.023 182.334)"/>
        </clipPath>
        <clipPath id="ofzj7j5agw">
            <path d="m160.558-70.619 46.78-58.109 23.271 13.434s-15.44 8.43-34.849 26.37-35.2 18.3-35.2 18.3" transform="translate(-160.558 128.728)"/>
        </clipPath>
        <clipPath id="v3rwoo3p2y">
            <path d="m282.1-151.358-23.073-13.32 13.931-9.076 22.808 13.168v.128l-13.666 9.1" transform="translate(-259.03 173.754)"/>
        </clipPath>
        <clipPath id="mdxn7ajfiA">
            <path d="M516.4-164.87a28.369 28.369 0 0 1-13.172-2.956l-.652-.351c-7.273-3.941-7.273-10.331 0-14.271l51-27.625 5.306 2.873 7.607-4.121v23.5l-36.912 20a28.373 28.373 0 0 1-13.177 2.951" transform="translate(-497.117 211.321)"/>
        </clipPath>
        <clipPath id="p485j9uepC">
            <path d="m168.052-408.389-.012-.007.781-.438-.769.445" transform="translate(-168.04 408.834)"/>
        </clipPath>
        <clipPath id="w0m36winfE">
            <path d="M190.634-503.214s-.141-1.391-3.9 6.957 5.273 35.016 7.417 37.943 29.027 11.163 34.937 2.036c-3.689-1.9-.126-4.621-.851-8.888-10.98 3.843-26.8-2.774-30.159-5.558-5.6-4.638 2.69-20.939-7.444-32.49z" transform="translate(-185.824 503.3)"/>
        </clipPath>
        <clipPath id="17udl51r2G">
            <path d="M164.17-447.692s.3 18.448 16.6 22.459 37.611 10.253 37.611 10.253l8.15 46.686s2.772 2.761 4.949 1.864a2.652 2.652 0 0 0 1.572-2.807s1.13-34.541-1.886-49.015c-2.229-10.7-40.07-26.833-40.07-26.833z" transform="translate(-164.17 447.692)"/>
        </clipPath>
        <clipPath id="h2mmyl0jnI">
            <path d="M148.5-437.109s-1.573 18.385 14.232 24.03 35.349 12.813 35.349 12.813l3.833 46.3a5.409 5.409 0 0 0 4.519 2.117c3.252 0 3.142-1.662 3.142-1.662S213.023-387 211-401.64s-22.97-31.863-22.97-31.863z" transform="translate(-148.456 437.109)"/>
        </clipPath>
        <clipPath id="ct8wyx7zsK">
            <path d="M191.608-530.2s4.2 6.719.435 21.3c-3.056 11.813-3.508 18.348-8.437 18.847s-19.694-3.105-18.084-15.4c-1.469-.316-4.474-5.942-2.1-10.416s4.035.416 4.035.416-.095-9.748 6.8-13.3 17.351-1.447 17.351-1.447z" transform="translate(-162.537 530.825)"/>
        </clipPath>
        <clipPath id="100axxmezM">
            <path d="M229.2-463.661s-2.213 4.526-3.583 5.047-.309 8.058 3.895 5.639 2.226-10.446-.312-10.686z" transform="translate(-225.057 463.661)"/>
        </clipPath>
        <clipPath id="n4ys3bts1O">
            <path d="M204.024-449.66c-2.339-.163-5 .4-9.111.48s-3.962-2.246-4.12-5.564c-1.3.964-2.088 3.553-4.187 5.075s-3.089 0-3.089 0l-.443.332c-14.891-2.629-25.41-6.323-27.771-9.864-2.418-3.628 4.22-14.59 4.792-24.49 0 0 1.325-12.413-6.643-7.9s-10.632 36.325-10.632 39.953 26.709 8.663 40.676 9.939a19.226 19.226 0 0 0 8.046 2.77c12.033-.232 14.822-10.571 12.482-10.731z" transform="translate(-142.82 492.578)"/>
        </clipPath>
        <radialGradient id="untkk1abma" cx=".694" cy="14.422" r="3.395" gradientTransform="matrix(.563 0 0 1 .403 0)" gradientUnits="objectBoundingBox">
            <stop offset="0" stop-color="#daeff4"/>
            <stop offset="1" stop-color="#bdd0d5"/>
        </radialGradient>
        <radialGradient id="spmspckwii" cx="-3.839" cy="16.722" r="3.68" gradientTransform="matrix(.311 0 0 1 -2.217 0)" xlink:href="#untkk1abma"/>
        <radialGradient id="d3j9pa6x8d" cx="-9.481" cy="31.227" r="10.222" gradientTransform="matrix(.575 0 0 1 -3.225 0)" gradientUnits="objectBoundingBox">
            <stop offset="0" stop-color="#b9dee9"/>
            <stop offset="1" stop-color="#9fbfca"/>
        </radialGradient>
        <radialGradient id="odl2akmbrb" cx="-429.612" cy="1263.488" r="304.509" gradientTransform="matrix(.577 0 0 1 -155.454 .004)" gradientUnits="objectBoundingBox">
            <stop offset="0" stop-color="#f279aa"/>
            <stop offset="1" stop-color="#d16a92"/>
        </radialGradient>
        <radialGradient id="sftijmz02m" cx="-141.78" cy="273.367" r="57.817" gradientTransform="matrix(.577 0 0 1 -51.773 .001)" xlink:href="#odl2akmbrb"/>
        <radialGradient id="qz0le6d0we" cx="87.943" cy="-46.633" r="4.123" gradientTransform="matrix(1.821 0 0 1 -62.968 0)" gradientUnits="objectBoundingBox">
            <stop offset="0" stop-color="#e4e4e3"/>
            <stop offset="1" stop-color="#c7c6c4"/>
        </radialGradient>
        <radialGradient id="a33m6fkf8t" cx="-17.788" cy="14.14" r="6.575" gradientTransform="matrix(.609 0 0 1 -6.009 0)" xlink:href="#untkk1abma"/>
        <radialGradient id="urnxs6m1uv" cx="-31.398" cy="26.723" r="11.45" gradientTransform="matrix(.579 0 0 1 -11.431 0)" xlink:href="#d3j9pa6x8d"/>
        <radialGradient id="2o986fps7x" cx="1.009" cy="3.186" r="5.906" gradientTransform="matrix(.83 0 0 1 .259 0)" xlink:href="#untkk1abma"/>
        <radialGradient id="zem0kt62qz" cx="-20.88" cy="31.273" r="15.324" gradientTransform="matrix(.61 0 0 1 -6.769 0)" xlink:href="#d3j9pa6x8d"/>
        <radialGradient id="6qt3ktmemB" cx="-23.971" cy="16.344" r="7.389" gradientTransform="matrix(.67 0 0 1 -6.898 0)" gradientUnits="objectBoundingBox">
            <stop offset="0" stop-color="#c8e2eb"/>
            <stop offset="1" stop-color="#acc4cc"/>
        </radialGradient>
        <radialGradient id="q5st34m4jD" cx="-224.334" cy="4603.759" r="771.54" gradientTransform="matrix(.569 0 0 1 52.35 -.358)" xlink:href="#qz0le6d0we"/>
        <linearGradient id="b3lynlwacf" x1="-15.635" y1="13.111" x2="-15.63" y2="13.111" gradientUnits="objectBoundingBox">
            <stop offset="0" stop-color="#fddebb"/>
            <stop offset="1" stop-color="#f9ad59"/>
        </linearGradient>
        <linearGradient id="siy22ba9gc" x1="-20.942" y1="28.949" x2="-20.936" y2="28.949" gradientUnits="objectBoundingBox">
            <stop offset="0" stop-color="#f9ad59"/>
            <stop offset="1" stop-color="#fddebb"/>
        </linearGradient>
        <linearGradient id="6t9pjj7ayr" x1="-64.595" y1="41.741" x2="-64.575" y2="41.741" xlink:href="#siy22ba9gc"/>
        <linearGradient id="kuu6a5zedF" x1="-4.423" y1="10.121" x2="-4.42" y2="10.121" xlink:href="#siy22ba9gc"/>
        <linearGradient id="rbh1g0m2sH" x1="-2.447" y1="5.66" x2="-2.445" y2="5.66" xlink:href="#b3lynlwacf"/>
        <linearGradient id="w1ef87gduJ" x1="-2.419" y1="5.278" x2="-2.417" y2="5.278" xlink:href="#b3lynlwacf"/>
        <linearGradient id="u4w3wj4cvL" x1="-5.386" y1="13.392" x2="-5.382" y2="13.392" xlink:href="#b3lynlwacf"/>
        <linearGradient id="8zhp1k2vyN" x1="-33.585" y1="42.765" x2="-33.565" y2="42.765" xlink:href="#siy22ba9gc"/>
        <linearGradient id="aishur30rP" x1="-2.373" y1="9.453" x2="-2.371" y2="9.453" xlink:href="#siy22ba9gc"/>
    </defs>
    <g style="clip-path:url(#1076wmr8mg)" transform="translate(0 306.83)">
        <path d="m204.789-195.565-27.278-15.748L154.452-198l-83.166-48.1 84.573-50.54v65.515a2.965 2.965 0 0 0 1.234 2.733l.354.159 7.3 4.2a2.131 2.131 0 0 0 1.264.387 3.841 3.841 0 0 0 1.885-.575l82.877-47.848v12.3L201-231.036c-1.98 1.144-2.878 2.674-2.695 4.169v8.635a2.936 2.936 0 0 0-.015.31c0 1.37.9 2.737 2.709 3.782l14.771 8.532a12.277 12.277 0 0 0 4.512 1.436l-15.5 8.606" transform="translate(-71.286 296.645)" style="fill:url(#untkk1abma)"/>
    </g>
    <path d="M343.5-276.567h.006v-8.825l-6.34 3.191-11.131-6.432a14.524 14.524 0 0 0-13.132 0l-111.884 64.6-6.371-3.108v8.719c-.143 1.472.748 2.969 2.693 4.092l14.771 8.532a14.526 14.526 0 0 0 13.13 0l115.56-66.723c1.925-1.112 2.818-2.589 2.7-4.046" transform="translate(-67.633 603.665)" style="fill:#76c5ef"/>
    <path d="m201.023-225.647-6.371-3.108v8.719c-.143 1.472.748 2.969 2.693 4.092l14.771 8.532a13.394 13.394 0 0 0 6.382 1.557v-29.882l-17.477 10.09" transform="translate(-67.633 605.278)" style="fill:#449fd1"/>
    <path d="M212.119-214.852a14.509 14.509 0 0 0 13.13 0l115.56-66.72c3.626-2.1 3.626-5.488 0-7.579l-14.767-8.529a14.514 14.514 0 0 0-13.132 0l-115.563 66.721c-3.624 2.094-3.624 5.487 0 7.581l14.771 8.527" transform="translate(-67.633 603.397)" style="fill:#a4e2f9"/>
    <path d="m245.843-237.465-8.056-4.559v-41.215l51.969-30-43.914 75.775" transform="translate(-66.355 602.983)" style="fill:#449fd1"/>
    <path d="m297.579-267.6-51.968 30v-41.215l51.968-30v41.215" transform="translate(-66.123 603.114)" style="fill:#57b2e7"/>
    <path d="m385.907-520.083-7.562-4.313a1.932 1.932 0 0 0-.515-.294h-.006a3.177 3.177 0 0 0-2.7.433L157.646-398.7a9.334 9.334 0 0 0-4.22 7.313v167.011a2.964 2.964 0 0 0 1.234 2.733l.354.16 7.52 4.323 1.564-8.138-2.245.934L375.128-347.5a9.333 9.333 0 0 0 4.227-7.315V-515.53l6.552-4.554" transform="translate(-68.853 596.717)" style="fill:#57b2e7"/>
    <path d="M378.3-524.4a1.934 1.934 0 0 0-.515-.294h-.005a3.176 3.176 0 0 0-2.7.433L157.6-398.7a8.341 8.341 0 0 0-2.658 2.652l145.384 91.709 74.757-43.161a9.333 9.333 0 0 0 4.227-7.315V-515.53l6.552-4.554-7.562-4.316" transform="translate(-68.808 596.717)" style="fill:#a4e2f9"/>
    <path d="M386.945-350.477a9.337 9.337 0 0 1-4.22 7.316L165.24-217.6c-2.332 1.343-4.22.255-4.22-2.437v-167.011a9.331 9.331 0 0 1 4.22-7.314l217.485-125.563c2.33-1.348 4.22-.255 4.22 2.435v167.013" transform="translate(-68.628 596.845)" style="fill:#76c5ef"/>
    <path d="M382.725-362.924 165-237.221V-387.56l217.726-125.7v150.337" transform="translate(-68.511 597.059)" style="fill:#ebf9fe"/>
    <path d="M380.593-512.031v147.45L165-240.111v2.89l217.726-125.7v-150.34l-2.132 1.23" transform="translate(-68.511 597.059)" style="fill:#fff"/>
    <path d="m359.173-477.242-86.79 50.107v-4.973l86.79-50.108v4.974" transform="translate(-65.33 597.979)" style="fill:#cfeef6"/>
    <path d="m360.575-468.615-135.534 78.25v-4.972l135.534-78.251v4.973" transform="translate(-66.732 598.234)" style="fill:#cfeef6"/>
    <path d="m360.575-459.989-135.534 78.25v-4.972l135.534-78.251v4.972" transform="translate(-66.732 598.49)" style="fill:#cfeef6"/>
    <path d="m360.575-451.362-135.534 78.25v-4.971l135.534-78.252v4.972" transform="translate(-66.732 598.745)" style="fill:#cfeef6"/>
    <path d="m360.575-442.735-135.534 78.25v-4.971l135.534-78.25v4.972" transform="translate(-66.732 599.001)" style="fill:#cfeef6"/>
    <path d="m360.575-434.108-135.534 78.251v-4.972l135.534-78.251v4.972" transform="translate(-66.732 599.256)" style="fill:#cfeef6"/>
    <path d="m359.173-416.855-86.79 50.108v-4.972l86.79-50.108v4.972" transform="translate(-65.33 599.767)" style="fill:#cfeef6"/>
    <path d="m360.575-408.227-135.534 78.25v-4.971L360.575-413.2v4.974" transform="translate(-66.732 600.023)" style="fill:#cfeef6"/>
    <path d="m360.575-399.6-135.534 78.249v-4.971l135.534-78.252v4.972" transform="translate(-66.732 600.278)" style="fill:#cfeef6"/>
    <path d="m360.575-390.973-135.534 78.25v-4.977l135.534-78.249v4.972" transform="translate(-66.732 600.534)" style="fill:#cfeef6"/>
    <path d="m360.575-382.347-135.534 78.252v-4.974l135.534-78.251v4.974" transform="translate(-66.732 600.789)" style="fill:#cfeef6"/>
    <path d="m290.034-334.163-64.993 37.525v-4.976l64.993-37.523v4.975" transform="translate(-66.732 602.216)" style="fill:#cfeef6"/>
    <path d="m564.673-223.011-116.614-67.326-22.541-158.869 22.542-12.881 116.613 67.327v171.749" transform="translate(-60.795 598.575)" style="fill:#244485"/>
    <path d="m558.853-226.185-19.563 9.993-113.28-227.38 21.52-12.3L558.853-391.6v165.411" transform="translate(-60.781 598.759)" style="fill:#fff"/>
    <path d="m542.132-210.5-116.614-67.326v-171.75l116.614 67.327V-210.5" transform="translate(-60.795 598.945)" style="fill:#3656a6"/>
    <path d="m539.152-208.248-116.617-67.326-22.541-158.868 22.542-12.882L539.152-380v171.749" transform="translate(-61.551 599.012)" style="fill:#4090cc"/>
    <path d="m533.333-211.422-19.562 9.994-113.283-227.381 21.52-12.3 111.324 64.274v165.411" transform="translate(-61.537 599.196)" style="fill:#fff"/>
    <path d="m516.607-195.736-116.613-67.327v-171.749l116.614 67.327v171.749" transform="translate(-61.551 599.383)" style="fill:#76c5ef"/>
    <path d="m443.15-301.705-43.156-24.915v-108.192l52.615 30.376c-4.861 4.631-8.9 9.7-10.068 14.48-3.5 14.362-2.245 47.644-2.245 47.644s.061.106.146.247c-1.738 1.335-7.947 6.174-9.452 8.354a2.454 2.454 0 0 0-.318.664 1.841 1.841 0 0 0 .925 2.2l.332.166.174.081.319.1.281.078.323.058c.118.021.239.038.364.049l.335.021c.088 0 .177.005.266.005h.169l.357-.014c.161-.011.327-.029.5-.051a8.933 8.933 0 0 0 .934-.167c.128-.029.254-.056.388-.089.2-.052.413-.119.625-.187.132-.043.257-.081.394-.128.236-.082.481-.184.726-.283l.357-.146c.374-.162.754-.344 1.145-.552 6.532-3.447 7.924-4.355 9.194-5.081a2.1 2.1 0 0 0 .512-.406l.092-.1a1.559 1.559 0 0 0 .271-.483l.005-.029a2.228 2.228 0 0 0 .088-.575l.005-.122a7.055 7.055 0 0 0-.051-.828c.172-.071.287-.126.287-.126l5.5-48.717s7.439 12.219 13.679 12.219a4.362 4.362 0 0 0 1.656-.319c-1.373 1.7-2.187 2.12-2.689 2.12a.84.84 0 0 1-.546-.2c-.126-.1-.206-.206-.268-.206-.133 0-.191.456-.449 2.323-2.028 14.644-2.065 46.505-2.065 46.505s.086.093.217.22c-2.125 1.644-7.668 6.022-9.076 8.063a2.359 2.359 0 0 0-.321.666v.005a1.831 1.831 0 0 0 .922 2.2l.332.166.177.084.306.1-14.207 12.721M474.8-330.05c1.671-14.859 6.007-57.759 6.007-57.759l.336-.151 35.461 20.474L474.8-330.05" transform="translate(-61.551 599.383)" style="fill:#5daae2"/>
    <path d="m429.183-426.912-9.919-5.6v-21.1l4.959 7.043 4.96-3.263v22.929" transform="translate(-60.981 598.826)" style="fill:#eb2762"/>
    <g style="clip-path:url(#uw8rwuvwmh)" transform="translate(140.61 391.45)">
        <path d="m362.024-121.208-28.294-.012-50.112-28.932 13.666-9.1v-.128l63.5 36.661 51.106-29.506 2.363.818-52.23 30.2m-101.477-42.266L207.851-193.9l51.29-20.562 1.294.747-7.663 4.424v24.207l21.7 12.531-13.931 9.076m203.148-16.522-1.3-1.388 43.292-24.995-.89-.513 3.093 1.343-44.192 25.554" transform="translate(-207.851 214.458)" style="fill:url(#spmspckwii)"/>
    </g>
    <g style="clip-path:url(#4gwj04xqzj)" transform="translate(133.503 378.437)">
        <path d="m208.056-193.522-7.107-4.1 15.5-8.606a15.882 15.882 0 0 0 2.051.132 13.445 13.445 0 0 0 6.566-1.568l33.65-19.429v12.646l.634.366-51.29 20.562" transform="translate(-200.949 227.097)" style="fill:url(#d3j9pa6x8d)"/>
    </g>
    <path d="M218.049-206.024a15.9 15.9 0 0 1-2.051-.132l.012-.007a16.085 16.085 0 0 0 1.858.128v-1.16l40.4-22.437v2.611l-33.65 19.429a13.445 13.445 0 0 1-6.566 1.568" transform="translate(-67 605.459)" style="fill:#66b4e7"/>
    <path d="M217.868-206.681a16.083 16.083 0 0 1-1.857-.128l1.857-1.032v1.16" transform="translate(-67 606.104)" style="fill:#3e91c7"/>
    <path d="m359.494-121.159-108.013-62.36v-24.207l144.9-59.451 108.008 62.36-144.9 83.658" transform="translate(-65.949 604.347)" style="fill:#244485"/>
    <path d="M396.228-274.734 256.7-209.993v22.019l102.641 59.26 144.9-83.659-108.007-62.36" transform="translate(-65.795 604.123)" style="fill:#e8e7e6"/>
    <path d="m396.228-280.2-23.135 10.735v69.323H256.7v6.7l102.641 59.26 144.9-83.661L396.228-280.2" transform="translate(-65.795 603.961)" style="fill:#f7f7f7"/>
    <path d="m396.228-285.209-23.135 10.734v74.482H256.7v1.543l102.641 59.26 144.9-83.659-108.008-62.36" transform="translate(-65.795 603.813)" style="fill:#fff"/>
    <path d="m359.494-144.669-108.013-62.36 144.9-83.658L504.39-228.33l-144.9 83.661" transform="translate(-65.949 603.651)" style="fill:#3656a6"/>
    <path d="M359.672-153.279 257.05-212.528v-23l137.669-56.482 102.618 59.247-137.665 79.484" transform="translate(-65.785 603.612)" style="fill:#4090cc"/>
    <path d="M394.572-299.19 262-237.681v20.92l97.521 56.3 137.669-79.481-102.618-59.248" transform="translate(-65.638 603.399)" style="fill:#e8e7e6"/>
    <path d="m394.572-304.382-21.978 10.2v65.864H262v6.366l97.521 56.3 137.669-79.483-102.618-59.247" transform="translate(-65.638 603.245)" style="fill:#f7f7f7"/>
    <path d="m394.572-309.142-21.978 10.2v70.765H262v1.468l97.521 56.3 137.669-79.485-102.618-59.248" transform="translate(-65.638 603.104)" style="fill:#fff"/>
    <path d="M359.672-175.617 257.05-234.864l137.669-79.483L497.337-255.1l-137.665 79.483" transform="translate(-65.785 602.95)" style="fill:#76c5ef"/>
    <path d="M360.292-181.537 262.2-238.173v-21.982l131.594-53.99 98.092 56.631-131.594 75.977" transform="translate(-65.632 602.956)" style="fill:#eb2762"/>
    <path d="m393.652-321.01-126.715 58.795v20l93.215 53.815 131.591-75.978-98.091-56.632" transform="translate(-65.492 602.753)" style="fill:#e8e7e6"/>
    <path d="m393.652-325.973-21.008 9.748v62.957H266.937v6.084l93.215 53.819 131.591-75.977-98.092-56.632" transform="translate(-65.492 602.606)" style="fill:#f7f7f7"/>
    <path d="m393.652-330.523-21.008 9.75v67.641H266.937v1.4l93.215 53.817 131.591-75.976-98.092-56.634" transform="translate(-65.492 602.471)" style="fill:#fff"/>
    <path d="M360.292-202.889 262.2-259.522 393.792-335.5l98.092 56.631-131.592 75.98" transform="translate(-65.632 602.324)" style="fill:#f25282"/>
    <g style="clip-path:url(#fq7qll0vck)" transform="translate(259.6 305.281)">
        <path d="m323.419-297.022 1.953-1.127-1.953 1.127" transform="translate(-323.419 298.149)" style="fill:url(#odl2akmbrb)"/>
    </g>
    <path d="m296.085-280.805 28.144-16.249-28.144 16.249" transform="translate(-64.629 603.462)" style="fill:#8a76ad"/>
    <path d="m262.2-261.128 34.89-20.145-34.89 20.145" transform="translate(-65.632 603.93)" style="fill:#385f9e"/>
    <path d="M340.086-215.661 262.2-260.628l34.89-20.145 28.144-16.249 1.954-1.127-6.241 3.6 10.819-.961 73.306 42.327-64.983 37.518" transform="translate(-65.632 603.43)" style="fill:#ef2954"/>
    <g style="clip-path:url(#cu36hc0ovl)" transform="translate(328.16 266.826)">
        <path d="m400.289-329.562-10.282-5.938 10.282 5.936" transform="translate(-390.007 335.498)" style="fill:url(#sftijmz02m)"/>
    </g>
    <path d="M441.907-305.534" transform="translate(-60.31 603.211)" style="fill:#4f6aae"/>
    <path d="m443.148-304.817-43.154-24.915 43.156 24.915" transform="translate(-61.551 602.494)" style="fill:#3f5b9e"/>
    <path d="m329.895-294.4-4.578-2.643 66.606-38.457 10.283 5.936 43.154 24.915L329.895-294.4" transform="translate(-63.763 602.324)" style="fill:#ef2954"/>
    <path d="m319.255-294.545 6.241-3.6 4.579 2.643-10.819.961" transform="translate(-63.942 603.43)" style="fill:#e01c39"/>
    <g style="clip-path:url(#xb0xcj5h5n)" transform="translate(411.092 93.393)">
        <path d="m516.254-420.7-45.7-26.384c3.622-5.446 2.022-17.266 9.928-27.478.244-.34.508-.648.765-.96.123-.147.225-.3.354-.446l.079-.086c.2-.221.416-.416.623-.622-.419-1.765-.877-3.7-1.422-5.8a52.137 52.137 0 0 1-1.115-5.515h-.014.014c-.045-.309-.081-.6-.118-.9a8.183 8.183 0 0 1-.726.033 6.433 6.433 0 0 1-2.387-.435c1.937-.835 1.647-2.113 1.647-2.113s-3.822-7.578 1.07-12.053a1.924 1.924 0 0 1 1.351-.473c6.938 0 27.879 24.679 26.8 24.91a13.373 13.373 0 0 1 .082 2.5c4.88 3.07.794 37.4 4.189 42.353a52.026 52.026 0 0 1 4.581 13.474" transform="translate(-470.553 503.943)" style="fill:url(#qz0le6d0we)"/>
    </g>
    <path d="m517.625-415.076-50.848-29.356a52.746 52.746 0 0 0 3.3-2.551 6.812 6.812 0 0 0 1.314-1.481l45.7 26.384a31.476 31.476 0 0 1 .529 7m-75.364-38.008-.148-4.423 1.819 3.469-1.671.954" transform="translate(-60.304 598.711)" style="fill:#233d73"/>
    <path d="m509.185-400.852-66.575-38.436-.5-12.694.2.266-.049-1.468 1.671-.954 8.145 15.524 7.056-1.645a38.352 38.352 0 0 0 7.644-4.274l50.848 29.356c-.257 5.576-2.4 10.991-8.44 14.324" transform="translate(-60.304 598.81)" style="fill:#e4e4e3"/>
    <path d="m505.012-399.228-63.775-36.82a2.233 2.233 0 0 1 1.5-1.1l-.1-2.566 66.575 38.436-.107.059c-.675.367-2.147 1.079-4.092 1.992" transform="translate(-60.33 599.238)" style="fill:#304e93"/>
    <path d="m498.605-396.353-46.313-26.74-.354-2.611c-.121-.04-2.533-.227-4.893-.419l-6.889-3.977a8.75 8.75 0 0 1 1.116-6.054l63.776 36.82a785.22 785.22 0 0 1-6.443 2.98" transform="translate(-60.366 599.343)" style="fill:#377eb5"/>
    <path d="m479.957-388.094-28.538-16.476c.485-.463.979-.92 1.477-1.373l.41-9.8-1.019-7.524 46.313 26.74c-7.64 3.5-16.792 7.6-18.644 8.433m-32.916-38.2c-2.252-.184-4.456-.374-4.583-.446a4.949 4.949 0 0 1-2.306-3.531l6.889 3.977" transform="translate(-60.362 599.517)" style="fill:#e4e4e3"/>
    <path d="M457.335-317.225c-.106 0-.21 0-.314-.007l-.335-.018a5.763 5.763 0 0 1-.366-.051l-.323-.059-.282-.078h-.01l17.447-15.623c-.347 3.076-.578 4.953-.634 4.994a.847.847 0 0 1 .336.518 15.28 15.28 0 0 1 .187 1.911v.121a2.419 2.419 0 0 1-.088.577l-.008.027a1.586 1.586 0 0 1-.268.485l-.092.1a2.163 2.163 0 0 1-.515.4c-1.271.728-2.659 1.634-9.191 5.082-.391.206-.776.388-1.148.555l-.357.141c-.246.1-.487.2-.726.284-.135.05-.264.086-.394.126-.213.067-.422.134-.622.188-.137.034-.263.059-.391.09a10.01 10.01 0 0 1-.559.11c-.128.025-.248.038-.372.054a6.535 6.535 0 0 1-.5.052l-.354.015h-.121" transform="translate(-59.901 602.396)" style="fill:#60afe4"/>
    <path d="m456.476-315.3-.306-.1-.177-.084-.332-.166a1.831 1.831 0 0 1-.922-2.2v-.006a2.374 2.374 0 0 1 .321-.666c1.407-2.04 6.95-6.418 9.076-8.063-.131-.126-.217-.22-.217-.22s.037-31.862 2.065-46.505c.258-1.867.316-2.323.449-2.323.062 0 .141.1.268.206a.84.84 0 0 0 .546.2c.5 0 1.317-.421 2.689-2.12a4.362 4.362 0 0 1-1.656.319c-6.239 0-13.679-12.219-13.679-12.219l-5.5 48.717s-.115.055-.287.126a7.041 7.041 0 0 1 .051.828l-.006.122a2.232 2.232 0 0 1-.088.575l-.005.029a1.564 1.564 0 0 1-.271.483l-.092.1a2.1 2.1 0 0 1-.512.406c-1.27.726-2.662 1.634-9.194 5.081-.391.207-.771.39-1.145.552l-.357.146c-.246.1-.49.2-.726.283-.137.047-.262.085-.394.128-.211.067-.424.135-.625.187-.134.033-.261.06-.388.089a8.933 8.933 0 0 1-1.434.217l-.357.014h-.169c-.089 0-.179 0-.266-.005l-.335-.021a4.145 4.145 0 0 1-.364-.05l-.323-.057-.282-.078-.318-.1-.174-.081-.332-.166a1.841 1.841 0 0 1-.925-2.2 2.471 2.471 0 0 1 .319-.664c1.5-2.18 7.714-7.019 9.452-8.354-.085-.141-.146-.247-.146-.247s-1.26-33.281 2.245-47.644c1.171-4.784 5.207-9.85 10.068-14.48l28.538 16.477-.336.151s-4.337 42.9-6.008 57.758L456.476-315.3" transform="translate(-60.672 600.256)" style="fill:#4e96d4"/>
    <path d="M475.143-492.108s.143-1.392 3.9 6.956-5.272 35.016-7.416 37.944-29.028 11.161-34.938 2.035c3.69-1.894.126-4.621.851-8.886 10.98 3.842 21.881-4.9 25.238-7.685 5.6-4.638 2.225-18.813 12.361-30.364" transform="translate(-60.465 597.683)" style="fill:#cceefa"/>
    <path d="M432.783-360.412s-8.164 6.17-9.917 8.711 2.056 5.262 8.587 1.813 7.924-4.354 9.2-5.08 1.027-1.754.785-3.63-8.65-1.815-8.65-1.815" transform="translate(-60.887 601.586)" style="fill:#fff"/>
    <path d="M440.647-356.222c-1.271.725-2.663 1.632-9.2 5.079-4.909 2.59-8.277 1.7-8.907.018-.734 2.3 2.945 4.3 8.907 1.15 6.532-3.447 7.924-4.354 9.2-5.079.971-.556 1.056-1.289.932-2.441a1.7 1.7 0 0 1-.932 1.273" transform="translate(-60.886 601.672)" style="fill:#454547"/>
    <path d="M502.4-436.576s-.3 18.448-16.6 22.459-33.521 12.317-33.521 12.317l-10.7 46.43a8.425 8.425 0 0 1-4.6.736 7.011 7.011 0 0 1-5.087-3.4s-1.26-33.281 2.245-47.643 32.845-31.277 32.845-31.277l35.409.382" transform="translate(-60.613 599.319)" style="fill:#1f2f58"/>
    <path d="M457.015-344.807s-8.164 6.169-9.919 8.709 2.055 5.262 8.588 1.815 7.921-4.355 9.192-5.081 1.03-1.754.785-3.628-8.647-1.815-8.647-1.815" transform="translate(-60.169 602.048)" style="fill:#fff"/>
    <path d="M464.877-340.617c-1.271.725-2.66 1.632-9.192 5.079-4.909 2.589-8.28 1.7-8.91.018-.735 2.3 2.947 4.3 8.91 1.151 6.532-3.447 7.921-4.355 9.192-5.081.971-.556 1.056-1.288.935-2.44a1.692 1.692 0 0 1-.935 1.273" transform="translate(-60.169 602.135)" style="fill:#454547"/>
    <path d="M517.886-426s1.575 18.383-14.232 24.03-32.1 15.653-32.1 15.653l-5.931 44.787a6.6 6.6 0 0 1-4.749 1.755 7.115 7.115 0 0 1-5.126-2.2s-3.668-33.9-1.642-48.544 24.256-31.881 24.256-31.881l39.524-3.6" transform="translate(-59.967 599.643)" style="fill:#223e73"/>
    <path d="M463.743-433.657s-1.76-55.114 15.055-61.553 32.216 8.882 38.787 23.721 4.841 40.668 0 50.262c-23.063 15.874-54.5-4.809-53.842-12.43" transform="translate(-59.665 597.549)" style="fill:#ebf9fe"/>
    <path d="M517.2-471.489c-6.572-14.839-21.975-30.158-38.788-23.721a9.854 9.854 0 0 0-1.593.794c12.38 1.572 22.907 13.46 28.044 25.055 6.569 14.839 4.837 40.67 0 50.262a32.639 32.639 0 0 1-7.121 3.7 33.517 33.517 0 0 0 19.457-5.824c4.841-9.593 6.57-35.423 0-50.262" transform="translate(-59.276 597.549)" style="fill:#fff"/>
    <g style="clip-path:url(#5e6f8irgbo)" transform="translate(412.395 77.149)">
        <path d="M473.819-519.1s-4.2 6.719-.434 21.3c3.053 11.812 3.508 18.348 8.438 18.847s19.694-3.105 18.083-15.4c1.47-.315 4.475-5.943 2.1-10.416s-4.035.415-4.035.415.1-9.748-6.794-13.3-17.362-1.442-17.362-1.442" transform="translate(-471.819 519.72)" style="fill:url(#b3lynlwacf)"/>
    </g>
    <path d="M490.2-507.208c-.026-.564-5.26 6.906-13.672 4.492a5.177 5.177 0 0 0 3.561-2.913 7.436 7.436 0 0 1-7.652 2.488 11.124 11.124 0 0 0 3.058-1.771 8.336 8.336 0 0 1-6.276.465c1.936-.836 1.646-2.113 1.646-2.113s-1.713 1.713-5.041-1.19c1.355-.173 1.221-6.388 6.11-10.863s8.862-5.517 15.416-4.414c-1.606-1.665-3.3-2.589-5.617-2.219 2.617-1.461 8.149 1.159 9.784 3.578 5.086-1.952 14.673 1.433 11.509 19.969-.051-.466-.489-3.48-2.284-4.051s-3.311 2.964-2.9 3.858.6 6.182.6 6.182l-2.321 1.218s.721-4.6-.936-5.981-4.668.33-4.985-6.734" transform="translate(-59.602 596.692)" style="fill:#1f2f58"/>
    <path d="m434.868-467.378 9.964 13.367 32.184-7.5-1.848 41.6-29.274-.356L436.255-432l-1.387-35.379" transform="translate(-60.519 598.418)" style="fill:#fff"/>
    <path d="m434.868-472.84 9.964 18.992 1.063 33.742-9.64-11.731-1.387-41" transform="translate(-60.519 598.257)" style="fill:#ebf9fe"/>
    <g style="clip-path:url(#pywoo56nap)" transform="translate(401.805 154.361)">
        <path d="M482.8-439.651s-.99 1.524-3.089 0-2.889-4.113-4.186-5.077c-.158 3.319-.008 5.641-4.121 5.564s-6.771-.642-9.112-.479.45 10.5 12.482 10.733c6.631-.411 9.452-4.12 9.452-4.12l-1.426-6.621" transform="translate(-461.534 444.728)" style="fill:url(#siy22ba9gc)"/>
    </g>
    <g style="clip-path:url(#l8gatvvnpq)" transform="translate(372.196 146.301)">
        <path d="M435.529-452.556s2.212 4.526 3.582 5.045.309 8.06-3.893 5.641-2.223-10.447.312-10.686" transform="translate(-432.776 452.556)" style="fill:url(#6t9pjj7ayr)"/>
    </g>
    <path d="M503.595-473.665s.709-11.331 8.676-6.817 16.437 31.366 16.437 34.995-36.93 21.612-47.092 17.742a14.27 14.27 0 0 0-.081-12.42c11.128-3.387 25.4-7.741 27.819-11.37s-7.111-6.824-5.759-22.13" transform="translate(-59.137 597.999)" style="fill:#cceefa"/>
    <path d="m288.3-81.026-166.446-96.1v-6.274l220.6 64.834v6.277L288.3-81.026" transform="translate(-69.788 606.828)" style="fill:#76c5ef"/>
    <path d="m288.3-81.026-166.446-96.1v-6.274l166.457 95.47v6.279l-.008.625" transform="translate(-69.788 606.828)" style="fill:#57b2e7"/>
    <path d="m288.3-86.4-166.443-96.1 54.156-31.263 166.448 96.1L288.3-86.4" transform="translate(-69.788 605.929)" style="fill:#a4e2f9"/>
    <path d="m179.467-196.464-10.974-6.336v-1.341l18.05 2.25v1.343l-7.075 4.084" transform="translate(-68.407 606.214)" style="fill:#4ba7c7"/>
    <path d="m179.467-197.689-10.974-6.334 7.078-4.084 10.972 6.334-7.075 4.084" transform="translate(-68.407 606.096)" style="fill:#bce9f1"/>
    <path d="M190.872-189.865 179.9-196.2v-1.343l18.052 2.251v1.343l-7.08 4.087" transform="translate(-68.069 606.409)" style="fill:#4ba7c7"/>
    <path d="m190.872-191.092-10.972-6.337 7.078-4.084 10.974 6.336-7.08 4.085" transform="translate(-68.069 606.292)" style="fill:#bce9f1"/>
    <path d="m202.284-183.272-10.977-6.335v-1.344l18.053 2.251v1.343l-7.076 4.085" transform="translate(-67.731 606.605)" style="fill:#4ba7c7"/>
    <path d="m202.284-184.5-10.977-6.336 7.078-4.084 10.974 6.336-7.076 4.084" transform="translate(-67.731 606.487)" style="fill:#bce9f1"/>
    <path d="m213.688-176.675-10.974-6.34v-1.34l18.053 2.249v1.343l-7.078 4.088" transform="translate(-67.394 606.8)" style="fill:#4ba7c7"/>
    <path d="m213.688-177.9-10.974-6.337 7.078-4.085 10.974 6.334-7.078 4.088" transform="translate(-67.394 606.682)" style="fill:#bce9f1"/>
    <path d="m225.1-170.083-10.974-6.334v-1.343l18.051 2.251v1.343l-7.077 4.083" transform="translate(-67.056 606.995)" style="fill:#4ba7c7"/>
    <path d="m225.1-171.308-10.974-6.334 7.077-4.086 10.974 6.337-7.077 4.083" transform="translate(-67.056 606.878)" style="fill:#bce9f1"/>
    <path d="m236.5-163.485-10.976-6.337v-1.344l18.051 2.253v1.343l-7.075 4.085" transform="translate(-66.718 607.191)" style="fill:#4ba7c7"/>
    <path d="m236.5-164.713-10.976-6.336 7.078-4.084 10.978 6.333-7.076 4.083" transform="translate(-66.718 607.073)" style="fill:#bce9f1"/>
    <path d="m247.91-156.891-10.971-6.333v-1.345l18.052 2.25v1.343l-7.081 4.085" transform="translate(-66.38 607.386)" style="fill:#4ba7c7"/>
    <path d="m247.91-158.112-10.971-6.34 7.077-4.086 10.976 6.336-7.081 4.09" transform="translate(-66.38 607.268)" style="fill:#bce9f1"/>
    <path d="m259.318-150.3-10.976-6.334v-1.343l18.057 2.252v1.343l-7.081 4.083" transform="translate(-66.042 607.581)" style="fill:#4ba7c7"/>
    <path d="m259.318-151.521-10.976-6.336 7.081-4.084 10.976 6.335-7.081 4.084" transform="translate(-66.042 607.464)" style="fill:#bce9f1"/>
    <path d="m270.725-143.7-10.973-6.334v-1.343l18.052 2.247v1.343l-7.08 4.087" transform="translate(-65.704 607.777)" style="fill:#4ba7c7"/>
    <path d="m270.725-144.924-10.973-6.334 7.075-4.088 10.977 6.335-7.08 4.087" transform="translate(-65.704 607.659)" style="fill:#bce9f1"/>
    <path d="m282.134-137.1-10.974-6.338v-1.345l18.055 2.251v1.341l-7.081 4.091" transform="translate(-65.367 607.972)" style="fill:#4ba7c7"/>
    <path d="m282.134-138.328-10.974-6.338 7.075-4.087 10.98 6.338-7.081 4.087" transform="translate(-65.367 607.854)" style="fill:#bce9f1"/>
    <path d="m293.54-130.511-10.976-6.334v-1.343l18.055 2.249v1.345l-7.08 4.082" transform="translate(-65.029 608.167)" style="fill:#4ba7c7"/>
    <path d="m293.54-131.733-10.976-6.337 7.08-4.086 10.976 6.334-7.08 4.088" transform="translate(-65.029 608.05)" style="fill:#bce9f1"/>
    <path d="m304.948-123.914-10.974-6.334v-1.343l18.052 2.25V-128l-7.078 4.084" transform="translate(-64.691 608.362)" style="fill:#4ba7c7"/>
    <path d="m304.948-125.137-10.974-6.335 7.08-4.087 10.973 6.337-7.078 4.085" transform="translate(-64.691 608.245)" style="fill:#bce9f1"/>
    <path d="m316.356-117.315-10.974-6.339v-1.34l18.051 2.249v1.342l-7.077 4.089" transform="translate(-64.353 608.558)" style="fill:#4ba7c7"/>
    <path d="m316.356-118.541-10.974-6.336 7.077-4.088 10.974 6.336-7.077 4.087" transform="translate(-64.353 608.44)" style="fill:#bce9f1"/>
    <path d="M176.968-187.513 159.6-197.675v-1.344l24.44 6.079v1.343l-7.077 4.086" transform="translate(-68.67 606.366)" style="fill:#4ba7c7"/>
    <path d="M176.968-188.738 159.6-198.9l7.078-4.084 17.362 10.163-7.077 4.086" transform="translate(-68.67 606.248)" style="fill:#bce9f1"/>
    <path d="m188.193-181.028-10.976-6.337v-1.343l18.05 2.25v1.344l-7.074 4.085" transform="translate(-68.149 606.671)" style="fill:#4ba7c7"/>
    <path d="m188.193-182.255-10.976-6.335 7.078-4.084 10.971 6.334-7.074 4.085" transform="translate(-68.149 606.554)" style="fill:#bce9f1"/>
    <path d="m199.6-174.432-10.976-6.334v-1.344l18.055 2.251v1.339l-7.08 4.088" transform="translate(-67.811 606.866)" style="fill:#4ba7c7"/>
    <path d="m199.6-175.657-10.976-6.336 7.082-4.088 10.973 6.34-7.08 4.084" transform="translate(-67.811 606.749)" style="fill:#bce9f1"/>
    <path d="m211-167.836-10.97-6.337v-1.345l18.053 2.251v1.344L211-167.836" transform="translate(-67.473 607.062)" style="fill:#4ba7c7"/>
    <path d="m211-169.064-10.97-6.337 7.078-4.083 10.974 6.334-7.082 4.086" transform="translate(-67.473 606.944)" style="fill:#bce9f1"/>
    <path d="m222.412-161.244-10.972-6.334v-1.341l18.051 2.25v1.344l-7.08 4.081" transform="translate(-67.135 607.257)" style="fill:#4ba7c7"/>
    <path d="m222.412-162.468-10.971-6.332 7.074-4.088 10.977 6.338-7.08 4.084" transform="translate(-67.135 607.139)" style="fill:#bce9f1"/>
    <path d="m233.822-154.647-10.977-6.337v-1.343l18.055 2.253v1.341l-7.078 4.086" transform="translate(-66.797 607.452)" style="fill:#4ba7c7"/>
    <path d="m233.822-155.873-10.977-6.336 7.078-4.087 10.977 6.34-7.078 4.083" transform="translate(-66.797 607.335)" style="fill:#bce9f1"/>
    <path d="m245.23-148.051-10.977-6.337v-1.344l18.053 2.253v1.343l-7.076 4.085" transform="translate(-66.46 607.647)" style="fill:#4ba7c7"/>
    <path d="m245.23-149.273-10.977-6.341 7.08-4.084 10.973 6.337-7.076 4.088" transform="translate(-66.46 607.53)" style="fill:#bce9f1"/>
    <path d="m256.636-141.456-10.977-6.335v-1.345l18.055 2.254v1.343l-7.078 4.084" transform="translate(-66.122 607.843)" style="fill:#4ba7c7"/>
    <path d="m256.636-142.683-10.977-6.337 7.081-4.083 10.974 6.337-7.078 4.083" transform="translate(-66.122 607.725)" style="fill:#bce9f1"/>
    <path d="m268.044-134.86-10.975-6.34v-1.341l18.053 2.247v1.347l-7.077 4.086" transform="translate(-65.784 608.038)" style="fill:#4ba7c7"/>
    <path d="m268.044-136.085-10.976-6.337 7.078-4.087 10.974 6.334-7.077 4.09" transform="translate(-65.784 607.921)" style="fill:#bce9f1"/>
    <path d="m279.451-128.263-10.974-6.337v-1.34l18.052 2.249v1.341l-7.078 4.088" transform="translate(-65.446 608.234)" style="fill:#4ba7c7"/>
    <path d="m279.451-129.489-10.974-6.334 7.078-4.088 10.974 6.337-7.078 4.085" transform="translate(-65.446 608.116)" style="fill:#bce9f1"/>
    <path d="m290.859-121.671-10.974-6.337v-1.342l18.051 2.251v1.344l-7.077 4.084" transform="translate(-65.108 608.429)" style="fill:#4ba7c7"/>
    <path d="m290.859-122.895-10.974-6.338 7.074-4.084 10.977 6.335-7.077 4.087" transform="translate(-65.108 608.311)" style="fill:#bce9f1"/>
    <path d="m307.576-111.953-16.287-9.456v-1.343l23.365 5.371v1.338l-7.078 4.09" transform="translate(-64.771 608.624)" style="fill:#4ba7c7"/>
    <path d="m307.576-113.181-16.287-9.453 7.08-4.088 16.286 9.459-7.078 4.083" transform="translate(-64.771 608.507)" style="fill:#bce9f1"/>
    <path d="m163.642-184.85-13.055-7.609v-1.341l19.2 2.972v1.343l-6.142 4.633" transform="translate(-68.937 606.52)" style="fill:#4ba7c7"/>
    <path d="m164.045-185.851-13.459-7.829 7.076-4.088 13.46 7.833-7.077 4.084" transform="translate(-68.937 606.403)" style="fill:#bce9f1"/>
    <path d="M174.077-178.825 163.1-185.16v-1.34l18.054 2.251v1.343l-7.082 4.084" transform="translate(-68.567 606.736)" style="fill:#4ba7c7"/>
    <path d="m174.077-180.05-10.977-6.336 7.076-4.087 10.978 6.338-7.082 4.084" transform="translate(-68.567 606.619)" style="fill:#bce9f1"/>
    <path d="m185.487-172.228-10.977-6.335v-1.345l18.057 2.251v1.342l-7.08 4.087" transform="translate(-68.229 606.932)" style="fill:#4ba7c7"/>
    <path d="m185.487-173.454-10.977-6.337 7.079-4.084 10.977 6.336-7.08 4.085" transform="translate(-68.229 606.814)" style="fill:#bce9f1"/>
    <path d="m196.9-165.636-10.977-6.334v-1.338l18.053 2.246v1.344l-7.075 4.083" transform="translate(-67.891 607.127)" style="fill:#4ba7c7"/>
    <path d="m196.9-166.856-10.977-6.336 7.077-4.09 10.974 6.337-7.075 4.09" transform="translate(-67.891 607.009)" style="fill:#bce9f1"/>
    <path d="m208.3-159.035-10.971-6.341v-1.34l18.05 2.249v1.343l-7.078 4.09" transform="translate(-67.553 607.322)" style="fill:#4ba7c7"/>
    <path d="m208.3-160.264-10.971-6.336 7.078-4.087 10.971 6.336-7.078 4.085" transform="translate(-67.553 607.205)" style="fill:#bce9f1"/>
    <path d="m219.707-152.443-10.973-6.337v-1.34l18.055 2.251v1.34l-7.082 4.086" transform="translate(-67.215 607.518)" style="fill:#4ba7c7"/>
    <path d="M219.707-153.667 208.734-160l7.08-4.087 10.976 6.338-7.082 4.084" transform="translate(-67.215 607.4)" style="fill:#bce9f1"/>
    <path d="m231.118-145.847-10.976-6.336v-1.345l18.054 2.251v1.341l-7.078 4.088" transform="translate(-66.878 607.713)" style="fill:#4ba7c7"/>
    <path d="m231.118-147.073-10.976-6.337 7.077-4.085 10.977 6.337-7.078 4.085" transform="translate(-66.878 607.595)" style="fill:#bce9f1"/>
    <path d="m242.527-139.251-10.978-6.336v-1.343l18.051 2.25v1.344l-7.073 4.086" transform="translate(-66.54 607.908)" style="fill:#4ba7c7"/>
    <path d="m242.527-140.475-10.978-6.337 7.08-4.088 10.972 6.337-7.073 4.088" transform="translate(-66.54 607.791)" style="fill:#bce9f1"/>
    <path d="m253.934-132.653-10.98-6.337v-1.345l18.057 2.249v1.347l-7.077 4.087" transform="translate(-66.202 608.104)" style="fill:#4ba7c7"/>
    <path d="m253.934-133.883-10.98-6.336 7.081-4.085 10.976 6.334-7.077 4.087" transform="translate(-66.202 607.986)" style="fill:#bce9f1"/>
    <path d="m265.34-126.059-10.973-6.341v-1.344l18.052 2.251v1.343l-7.08 4.088" transform="translate(-65.864 608.299)" style="fill:#4ba7c7"/>
    <path d="m265.34-127.284-10.973-6.34 7.075-4.081 10.977 6.333-7.08 4.088" transform="translate(-65.864 608.181)" style="fill:#bce9f1"/>
    <path d="m276.747-119.466-10.974-6.334v-1.343l18.051 2.25v1.344l-7.077 4.083" transform="translate(-65.526 608.494)" style="fill:#4ba7c7"/>
    <path d="m276.747-120.69-10.974-6.335 7.077-4.086 10.974 6.336-7.077 4.085" transform="translate(-65.526 608.377)" style="fill:#bce9f1"/>
    <path d="m288.154-112.868-10.973-6.342v-1.339l18.053 2.25v1.34l-7.08 4.091" transform="translate(-65.188 608.69)" style="fill:#4ba7c7"/>
    <path d="m288.154-114.093-10.973-6.339 7.078-4.085 10.974 6.335-7.08 4.088" transform="translate(-65.188 608.572)" style="fill:#bce9f1"/>
    <path d="m298.367-106.971-9.781-5.641v-1.34l16.857 1.552v1.344l-7.076 4.084" transform="translate(-64.851 608.885)" style="fill:#4ba7c7"/>
    <path d="m298.367-108.193-9.781-5.641 7.078-4.087 9.779 5.639-7.076 4.088" transform="translate(-64.851 608.767)" style="fill:#bce9f1"/>
    <path d="m160.21-176.453-18.71-10.788v-1.347l25.79 6.708v1.337l-7.08 4.09" transform="translate(-69.207 606.675)" style="fill:#4ba7c7"/>
    <path d="m160.21-177.674-18.71-10.8 7.077-4.084 18.713 10.792-7.08 4.088" transform="translate(-69.207 606.557)" style="fill:#bce9f1"/>
    <path d="m171.4-169.985-10.976-6.335v-1.343l18.051 2.251v1.341l-7.075 4.086" transform="translate(-68.646 606.998)" style="fill:#4ba7c7"/>
    <path d="m171.4-171.212-10.976-6.334 7.08-4.085 10.972 6.337-7.075 4.083" transform="translate(-68.646 606.88)" style="fill:#bce9f1"/>
    <path d="m182.806-163.391-10.977-6.337v-1.344l18.052 2.251v1.344l-7.075 4.085" transform="translate(-68.308 607.193)" style="fill:#4ba7c7"/>
    <path d="m182.806-164.616-10.977-6.338 7.078-4.083 10.974 6.334-7.075 4.087" transform="translate(-68.308 607.076)" style="fill:#bce9f1"/>
    <path d="m194.211-156.792-10.977-6.335v-1.345l18.054 2.25v1.344l-7.077 4.087" transform="translate(-67.971 607.389)" style="fill:#4ba7c7"/>
    <path d="m194.211-158.02-10.977-6.336 7.08-4.088 10.974 6.338-7.077 4.085" transform="translate(-67.971 607.271)" style="fill:#bce9f1"/>
    <path d="m205.618-150.2-10.974-6.34v-1.341l18.053 2.251v1.343l-7.078 4.087" transform="translate(-67.633 607.584)" style="fill:#4ba7c7"/>
    <path d="m205.618-151.425-10.974-6.337 7.077-4.085 10.976 6.337-7.078 4.086" transform="translate(-67.633 607.466)" style="fill:#bce9f1"/>
    <path d="m217.027-143.6-10.976-6.334v-1.349l18.054 2.253v1.343l-7.078 4.088" transform="translate(-67.295 607.779)" style="fill:#4ba7c7"/>
    <path d="m217.027-144.829-10.976-6.34 7.077-4.081 10.977 6.334-7.078 4.087" transform="translate(-67.295 607.662)" style="fill:#bce9f1"/>
    <path d="m228.435-137.009-10.977-6.336v-1.34l18.051 2.25v1.343l-7.074 4.083" transform="translate(-66.957 607.975)" style="fill:#4ba7c7"/>
    <path d="m228.435-138.233-10.977-6.334 7.078-4.088 10.973 6.338-7.074 4.084" transform="translate(-66.957 607.857)" style="fill:#bce9f1"/>
    <path d="m239.839-130.414-10.972-6.337v-1.34l18.051 2.247v1.345l-7.08 4.084" transform="translate(-66.619 608.17)" style="fill:#4ba7c7"/>
    <path d="m239.839-131.637-10.972-6.335 7.078-4.09 10.973 6.337-7.08 4.088" transform="translate(-66.619 608.052)" style="fill:#bce9f1"/>
    <path d="m251.25-123.819-10.976-6.337v-1.34l18.053 2.251v1.34l-7.077 4.085" transform="translate(-66.281 608.365)" style="fill:#4ba7c7"/>
    <path d="m251.25-125.041-10.976-6.337 7.078-4.087 10.974 6.338-7.077 4.086" transform="translate(-66.281 608.248)" style="fill:#bce9f1"/>
    <path d="m262.656-117.22-10.976-6.338v-1.342l18.052 2.251v1.341l-7.077 4.09" transform="translate(-65.944 608.561)" style="fill:#4ba7c7"/>
    <path d="m262.656-118.449-10.976-6.335 7.078-4.086 10.974 6.337-7.077 4.084" transform="translate(-65.944 608.443)" style="fill:#bce9f1"/>
    <path d="m274.063-110.627-10.977-6.334v-1.339l18.055 2.247v1.344l-7.078 4.086" transform="translate(-65.606 608.756)" style="fill:#4ba7c7"/>
    <path d="m274.063-111.85-10.977-6.336 7.081-4.088 10.974 6.335-7.078 4.088" transform="translate(-65.606 608.638)" style="fill:#bce9f1"/>
    <path d="m289.607-101.763-15.109-8.6v-1.344l22.186 4.521v1.342l-7.077 4.084" transform="translate(-65.268 608.951)" style="fill:#4ba7c7"/>
    <path d="m289.607-102.985-15.107-8.608 7.075-4.087 15.111 8.608-7.077 4.087" transform="translate(-65.268 608.834)" style="fill:#bce9f1"/>
    <path d="m145.941-174.338-13.3-7.795v-1.341l20.384 3.709v1.342l-7.084 4.084" transform="translate(-69.469 606.826)" style="fill:#4ba7c7"/>
    <path d="m145.941-175.561-13.3-7.8 7.077-4.086 13.307 7.795-7.084 4.087" transform="translate(-69.469 606.708)" style="fill:#bce9f1"/>
    <path d="m157.286-167.78-10.976-6.338v-1.34l18.055 2.247v1.341l-7.079 4.09" transform="translate(-69.064 607.063)" style="fill:#4ba7c7"/>
    <path d="m157.286-169.005-10.976-6.335 7.078-4.09 10.977 6.337-7.079 4.088" transform="translate(-69.064 606.946)" style="fill:#bce9f1"/>
    <path d="m168.694-161.191-10.974-6.333v-1.338l18.051 2.246v1.344l-7.077 4.081" transform="translate(-68.726 607.259)" style="fill:#4ba7c7"/>
    <path d="m168.694-162.41-10.974-6.334 7.078-4.09 10.973 6.335-7.077 4.088" transform="translate(-68.726 607.141)" style="fill:#bce9f1"/>
    <path d="m238.6-120.67-69.475-40.256v-1.343l76.552 36.169v1.341l-7.077 4.089" transform="translate(-68.388 607.454)" style="fill:#4ba7c7"/>
    <path d="m238.6-121.9-69.475-40.256 7.078-4.088 69.473 40.259-7.076 4.085" transform="translate(-68.388 607.336)" style="fill:#bce9f1"/>
    <path d="m248.544-115.019-10.974-6.334v-1.347l18.051 2.25v1.344l-7.077 4.082" transform="translate(-66.361 608.626)" style="fill:#4ba7c7"/>
    <path d="m248.544-116.243-10.974-6.335 7.078-4.087 10.973 6.336-7.077 4.086" transform="translate(-66.361 608.508)" style="fill:#bce9f1"/>
    <path d="m259.951-108.419-10.975-6.341v-1.34l18.054 2.25v1.343l-7.08 4.089" transform="translate(-66.024 608.821)" style="fill:#4ba7c7"/>
    <path d="m259.951-109.648-10.975-6.336 7.078-4.087 10.976 6.337-7.08 4.086" transform="translate(-66.024 608.704)" style="fill:#bce9f1"/>
    <path d="m271.36-101.828-10.974-6.334v-1.344l18.052 2.252v1.342l-7.078 4.084" transform="translate(-65.686 609.016)" style="fill:#4ba7c7"/>
    <path d="m271.36-103.05-10.974-6.339 7.075-4.084 10.977 6.336-7.078 4.087" transform="translate(-65.686 608.899)" style="fill:#bce9f1"/>
    <path d="m280.478-96.594-8.687-4.975v-1.343l15.763.888v1.343l-7.076 4.087" transform="translate(-65.348 609.212)" style="fill:#4ba7c7"/>
    <path d="m280.478-97.82-8.687-4.974 7.078-4.086 8.684 4.974-7.076 4.086" transform="translate(-65.348 609.094)" style="fill:#bce9f1"/>
    <g style="clip-path:url(#ep273tdsss)">
        <path d="M476.467-128.785 408.318-152.4l49.439-28.587 11.571 12.339-8.111 4.7 7.632 4.41 5.846-3.388-5.846 3.388-.005 8.8 11.2-6.488 14.022 14.95-17.6 13.491" transform="translate(-61.305 606.899)" style="fill:url(#a33m6fkf8t)"/>
    </g>
    <g style="clip-path:url(#zqva7sa0cu)">
        <path d="m408.386-152.359-2.363-.82 50.5-29.156 1.3 1.388-49.439 28.588" transform="translate(-61.373 606.86)" style="fill:url(#urnxs6m1uv)"/>
    </g>
    <path d="M406.023-153.033v-7.778l45.766-26.425 4.733 5.048-50.5 29.157" transform="translate(-61.373 606.714)" style="fill:#253f7c"/>
    <path d="M406.023-160.707v-5.629l42.34-24.447 3.425 3.65-45.766 26.425" transform="translate(-61.373 606.61)" style="fill:#c2d5da"/>
    <path d="M406.023-166.239v-5.161l39.2-22.635 3.137 3.346-42.34 24.447" transform="translate(-61.373 606.513)" style="fill:#d0e5ea"/>
    <path d="M406.023-171.291v-5.642l35.77-20.653 3.433 3.66-39.2 22.635" transform="translate(-61.373 606.408)" style="fill:#d9eff5"/>
    <path d="M406.023-176.776v-8.45l30.629-17.685 5.141 5.482-35.77 20.653" transform="translate(-61.373 606.25)" style="fill:#304f9e"/>
    <path d="M406.023-185.088v-7.393l26.13-15.087 4.5 4.8-30.629 17.685" transform="translate(-61.373 606.112)" style="fill:#3b83c3"/>
    <path d="M406.023-192.38v-5.347l22.877-13.21 3.252 3.469-26.13 15.087" transform="translate(-61.373 606.013)" style="fill:#c2d5da"/>
    <path d="M406.023-197.636v-4.9l19.9-11.488 2.982 3.178-22.878 13.209" transform="translate(-61.373 605.921)" style="fill:#d0e5ea"/>
    <path d="M406.023-202.436v-5.364l16.634-9.606 3.262 3.479-19.9 11.488" transform="translate(-61.373 605.821)" style="fill:#d9eff5"/>
    <path d="M406.023-207.695v-5.468l13.308-7.684 3.326 3.546-16.634 9.606" transform="translate(-61.373 605.719)" style="fill:#66b4e7"/>
    <path d="M406.023-213.031v-7.069l9.008-5.2 4.3 4.584-13.308 7.684" transform="translate(-61.373 605.587)" style="fill:#c5285e"/>
    <path d="M406.023-220v-5.111l5.9-3.406 3.109 3.315-9.008 5.2" transform="translate(-61.373 605.492)" style="fill:#c2d5da"/>
    <path d="M406.023-225.025v-4.684l3.049-1.76 2.85 3.038-5.9 3.406" transform="translate(-61.373 605.405)" style="fill:#d0e5ea"/>
    <path d="M406.023-229.615v-5.012l3.049 3.252-3.049 1.76" transform="translate(-61.373 605.311)" style="fill:#d9eff5"/>
    <path d="m406.023-234.119 30.523-17.681 32.393 23.794-30.519 17.678-32.4-23.791" transform="translate(-61.373 604.802)" style="fill:#a4e2f9"/>
    <path d="m437.48-202.2 30.527-17.689v-8.8l-30.519 17.683-.008 8.808" transform="translate(-60.441 605.487)" style="fill:#76c5ef"/>
    <path d="m437.48-202.464 30.527-17.682 7.622 4.4-30.518 17.686-7.631-4.405" transform="translate(-60.441 605.74)" style="fill:#a4e2f9"/>
    <path d="m444.887-189.377 30.523-17.687v-8.807l-30.518 17.686-.006 8.808" transform="translate(-60.222 605.867)" style="fill:#76c5ef"/>
    <path d="M444.887-189.619 475.41-207.3l7.623 4.4-30.518 17.687-7.629-4.405" transform="translate(-60.222 606.12)" style="fill:#a4e2f9"/>
    <path d="m452.291-176.533 30.523-17.687v-8.807L452.3-185.34l-.005 8.807" transform="translate(-60.003 606.247)" style="fill:#76c5ef"/>
    <path d="m452.291-176.774 30.523-17.686 7.626 4.4-30.519 17.687-7.63-4.405" transform="translate(-60.003 606.501)" style="fill:#a4e2f9"/>
    <path d="m459.7-163.69 30.525-17.685v-8.808L459.7-172.495l-.005 8.805" transform="translate(-59.783 606.627)" style="fill:#76c5ef"/>
    <path d="m459.7-163.93 30.525-17.685 7.624 4.4-30.518 17.69-7.631-4.41" transform="translate(-59.783 606.881)" style="fill:#a4e2f9"/>
    <path d="m467.1-150.846 30.523-17.683v-8.808l-30.518 17.69-.006 8.8" transform="translate(-59.564 607.008)" style="fill:#76c5ef"/>
    <path d="m467.1-151.084 30.525-17.683 7.622 4.4-30.518 17.686-7.629-4.405" transform="translate(-59.564 607.262)" style="fill:#a4e2f9"/>
    <path d="m474.507-138 30.523-17.689v-8.8l-30.518 17.686-.005 8.803" transform="translate(-59.345 607.388)" style="fill:#76c5ef"/>
    <path d="m474.507-138.244 30.523-17.686 7.626 4.407-30.52 17.683-7.629-4.4" transform="translate(-59.345 607.642)" style="fill:#a4e2f9"/>
    <path d="m481.913-125.161 30.523-17.687v-8.8l-30.521 17.683v8.806" transform="translate(-59.125 607.768)" style="fill:#76c5ef"/>
    <path d="M468.912-149.207v-8.805l-7.629-4.4v-8.874l-7.611-4.33v-8.805l-7.629-4.4v-8.8l-7.623-4.4v-8.808l-32.4-23.791 70.515 107.42 7.644 4.4v-8.8l-7.644-4.324v-8.876l-7.623-4.407" transform="translate(-61.373 605.311)" style="fill:#57b2e7"/>
    <path d="M284.9-304.445v37.461c0 7.7 5.093 15.411 15.275 21.291 20.364 11.757 53.383 11.757 73.753 0 10.186-5.88 15.275-13.588 15.273-21.3v-37.455H284.9" transform="translate(-64.96 603.243)" style="fill:#16253a"/>
    <path d="m336.174-255.474-89.385-51.608v-2.472h178.769v2.472l-89.384 51.608" transform="translate(-66.089 603.092)" style="fill:#192c4b"/>
    <path d="m336.174-256.465-89.385-51.606 89.385-51.608 89.384 51.608-89.384 51.606" transform="translate(-66.089 601.608)" style="fill:#223e73"/>
    <path d="M383.024-252.8h-3.091v-31.782l-47-23.548 1.387-2.765 48.707 24.4v33.69" transform="translate(-63.537 603.052)" style="fill:#fad517"/>
    <path d="M340.1-308.922c0 1.707-2.279 3.092-5.1 3.092s-5.1-1.385-5.1-3.092 2.284-3.092 5.1-3.092 5.1 1.387 5.1 3.092" transform="translate(-63.627 603.019)" style="fill:#fad517"/>
    <path d="M383.867-240.112v-15.728a3.592 3.592 0 0 0-3.59-3.594 3.591 3.591 0 0 0-3.6 3.594v15.728h7.185" transform="translate(-62.242 604.576)" style="fill:#f5f122"/>
    <g style="clip-path:url(#ofzj7j5agw)" transform="translate(91.916 479.72)">
        <path d="m160.558-70.619 46.78-58.109 23.271 13.434s-15.44 8.43-34.849 26.37-35.2 18.3-35.2 18.3" transform="translate(-160.558 128.728)" style="fill:url(#2o986fps7x)"/>
    </g>
    <path d="m229.263-115.175-23.271-13.434 2.888-3.589.832-.542 20.246 11.69-.7.409v5.467" transform="translate(-67.297 608.328)" style="fill:#4ea2de"/>
    <path d="m229.852-120.975-20.246-11.69 3.989-2.6 20.433 11.838-4.176 2.451" transform="translate(-67.19 608.254)" style="fill:#8cd4f4"/>
    <g style="clip-path:url(#v3rwoo3p2y)" transform="translate(193.304 433.36)">
        <path d="m282.1-151.358-23.073-13.32 13.931-9.076 22.808 13.168v.128l-13.666 9.1" transform="translate(-259.03 173.754)" style="fill:url(#zem0kt62qz)"/>
    </g>
    <path d="m295.369-160.366-22.808-13.168.217-7.655 22.555 13.021.036 7.8" transform="translate(-65.325 606.894)" style="fill:#253f7c"/>
    <path d="m295.327-168.008-22.556-13.022.158-5.538 22.37 12.916.027 5.644" transform="translate(-65.319 606.734)" style="fill:#c2d5da"/>
    <path d="m295.295-173.506-22.37-12.916.143-5.074 22.2 12.818.023 5.171" transform="translate(-65.314 606.588)" style="fill:#d0e5ea"/>
    <path d="m295.267-178.518-22.2-12.818.158-5.55 22.019 12.712.027 5.656" transform="translate(-65.31 606.429)" style="fill:#d9eff5"/>
    <path d="m295.235-183.924-22.018-12.712.246-8.706 21.731 12.542.041 8.873" transform="translate(-65.306 606.178)" style="fill:#304f9e"/>
    <path d="m295.187-192.587-21.732-12.546.207-7.272L295.153-200l.034 7.41" transform="translate(-65.299 605.969)" style="fill:#3b83c3"/>
    <path d="m295.147-199.846-21.49-12.408.148-5.262 21.317 12.307.025 5.362" transform="translate(-65.293 605.818)" style="fill:#c2d5da"/>
    <path d="M295.118-205.069 273.8-217.377l.137-4.82 21.157 12.215.023 4.912" transform="translate(-65.289 605.679)" style="fill:#d0e5ea"/>
    <path d="m295.091-209.86-21.157-12.215.07-2.515 1.885-1.717 19.175 11.072.026 5.376" transform="translate(-65.285 605.557)" style="fill:#d9eff5"/>
    <path d="M295.008-215.124 275.833-226.2l4.273-3.893 14.873 8.587.029 6.378" transform="translate(-65.228 605.445)" style="fill:#66b4e7"/>
    <path d="m294.856-221.377-14.873-8.587 4.747-4.324 10.093 5.826.033 7.085" transform="translate(-65.105 605.321)" style="fill:#c5285e"/>
    <path d="m294.687-228.372-10.093-5.828 3.433-3.13 6.635 3.831.025 5.125" transform="translate(-64.969 605.231)" style="fill:#c2d5da"/>
    <path d="m294.563-233.415-6.635-3.831 3.147-2.866 3.466 2 .022 4.7" transform="translate(-64.87 605.149)" style="fill:#d0e5ea"/>
    <path d="m294.451-238.021-3.466-2 3.443-3.136.023 5.137" transform="translate(-64.78 605.058)" style="fill:#d9eff5"/>
    <path d="M294.328-243.158" transform="translate(-64.681 605.059)" style="fill:#d54f7c"/>
    <path d="M241.859-127.341 221-139.429l.987-.643 6.344 3.661.77-.445v.9l10.972 6.337.773-.445v.9l2.079 1.2-1.064.623m9.235-5.42-3.171-1.831-.771.446v-.9l-10.973-6.337-.774.448v-.9l-5.677-3.28.961-.626.4.232.769-.443v.9l10.978 6.336.765-.442v.9l8.5 4.906-1.013.594m9.19-5.392-9.6-5.539-.773.445v-.9l-10.972-6.337-.77.445v-.577l1.192-.777 6.26 3.615.767-.443v.9l10.977 6.336.77-.445v.9l3.127 1.807-.98.575m9.154-5.372-4.223-2.438-.77.445v-.9l-10.974-6.337-.773.445v-.9l-5.593-3.23.961-.626.316.183.77-.445v.9l10.976 6.334.773-.445v.9l9.549 5.512-1.012.594m9.187-5.391-10.649-6.146-.767.443v-.9l-10.976-6.335-.77.445v-.474l4.694-3.059 23.073 13.32-4.6 2.7" transform="translate(-66.852 607.375)" style="fill:#8cd4f4"/>
    <path d="m247.6-156.968-.316-.183 7.4-4.819v.474l-6.311 3.639v.443l-.77.445" transform="translate(-66.074 607.463)" style="fill:#4398be"/>
    <path d="m259.318-150.3-10.976-6.334v-1.343l10.976 6.336 7.081-4.084v.9l-6.308 3.645v.438l-.773.445" transform="translate(-66.042 607.581)" style="fill:#4398be"/>
    <path d="m259.318-151.521-10.976-6.336 6.311-3.639.77-.445 10.976 6.335-7.081 4.084" transform="translate(-66.042 607.464)" style="fill:#a1e0ea"/>
    <path d="m269.3-144.521-9.549-5.512v-1.343l10.7 6.178-1.153.677" transform="translate(-65.704 607.777)" style="fill:#4398be"/>
    <path d="m270.455-145.08-10.7-6.178 6.308-3.645.767-.443 10.649 6.146-7.022 4.12" transform="translate(-65.704 607.659)" style="fill:#a1e0ea"/>
    <path d="m245.094-148.116-6.26-3.615 1.091-.711 5.169 2.986 7.076-4.088v.9l-6.308 3.638v.448l-.767.443" transform="translate(-66.324 607.712)" style="fill:#4398be"/>
    <path d="m245.063-149.362-5.169-2.986 6.651-4.333 5.593 3.23-7.075 4.088" transform="translate(-66.293 607.619)" style="fill:#a1e0ea"/>
    <path d="m256.636-141.456-10.977-6.335v-1.345l10.977 6.337 7.078-4.083v.9l-6.308 3.642v.443l-.77.445" transform="translate(-66.122 607.843)" style="fill:#4398be"/>
    <path d="m256.636-142.683-10.977-6.337 6.308-3.638.773-.445 10.974 6.337-7.078 4.083" transform="translate(-66.122 607.725)" style="fill:#a1e0ea"/>
    <path d="m260.2-139.392-3.127-1.807v-1.341l4.28 2.471-1.153.677" transform="translate(-65.784 608.038)" style="fill:#4398be"/>
    <path d="m261.349-139.951-4.28-2.471 6.308-3.642.77-.445 4.223 2.438-7.02 4.12" transform="translate(-65.784 607.921)" style="fill:#a1e0ea"/>
    <path d="m230.814-145.921-.4-.232 7.482-4.875v.577l-6.309 3.644v.443l-.769.443" transform="translate(-66.573 607.787)" style="fill:#4398be"/>
    <path d="m242.527-139.251-10.978-6.336v-1.343l10.978 6.337 7.073-4.088v.9l-6.308 3.641v.448l-.765.442" transform="translate(-66.54 607.908)" style="fill:#4398be"/>
    <path d="m242.527-140.475-10.978-6.337 6.309-3.644.77-.445 10.972 6.337-7.073 4.088" transform="translate(-66.54 607.791)" style="fill:#a1e0ea"/>
    <path d="m251.457-134.084-8.5-4.906v-1.345l9.659 5.574-1.156.678" transform="translate(-66.202 608.104)" style="fill:#4398be"/>
    <path d="m252.613-134.644-9.659-5.574 6.308-3.641.773-.445 9.6 5.539-7.021 4.12" transform="translate(-66.202 607.986)" style="fill:#a1e0ea"/>
    <path d="m228.3-137.074-6.344-3.661 1.091-.711 5.252 3.031 7.074-4.084v.9l-6.3 3.642v.441l-.77.445" transform="translate(-66.824 608.039)" style="fill:#4398be"/>
    <path d="m228.271-138.321-5.252-3.031 6.65-4.333 5.677 3.28-7.074 4.084" transform="translate(-66.792 607.945)" style="fill:#a1e0ea"/>
    <path d="m239.839-130.414-10.972-6.337v-1.34l10.972 6.335 7.08-4.088v.9l-6.307 3.641v.442l-.773.445" transform="translate(-66.619 608.17)" style="fill:#4398be"/>
    <path d="m239.839-131.637-10.972-6.335 6.3-3.642.774-.448 10.973 6.337-7.08 4.088" transform="translate(-66.619 608.052)" style="fill:#a1e0ea"/>
    <path d="m242.353-128.955-2.078-1.2v-1.34l3.229 1.864-1.15.677" transform="translate(-66.281 608.365)" style="fill:#4398be"/>
    <path d="m243.5-129.514-3.229-1.864 6.307-3.641.772-.446 3.171 1.831-7.021 4.12" transform="translate(-66.281 608.248)" style="fill:#a1e0ea"/>
    <path d="m233.914-123.405-20.433-11.838 1.091-.711 20.492 11.873-1.15.676" transform="translate(-67.075 608.233)" style="fill:#4398be"/>
    <path d="m235.033-123.957-20.492-11.873 6.65-4.333 20.86 12.087-7.018 4.118" transform="translate(-67.043 608.109)" style="fill:#a1e0ea"/>
    <path d="M188.785-85.844c-3.5 4.979-22.973 22.79-28.723 18.751s4.4-28.4 7.9-33.38L275.757-253.9c3.5-4.978 10.995-5.738 16.746-1.7s7.574 11.35 4.076 16.328L188.785-85.844" transform="translate(-68.708 604.613)" style="fill:#3367b1"/>
    <path d="M292.5-255.62a14.5 14.5 0 0 0-3.679-1.863c2.514 3.921 2.783 8.741.251 12.343L181.28-91.712c-2.691 3.829-14.825 15.238-22.9 18.47-.183 2.884.265 5.129 1.686 6.128 5.751 4.039 25.224-13.772 28.723-18.751l107.789-153.427c3.5-4.978 1.672-12.289-4.076-16.328" transform="translate(-68.708 604.634)" style="fill:#2a5698"/>
    <path d="m171.722-110.207-3.759 5.351c-3.5 4.979-13.65 29.34-7.9 33.38s25.224-13.772 28.723-18.751l3.759-5.351-20.822-14.629" transform="translate(-68.708 608.996)" style="fill:#3f79c6"/>
    <path d="m186.188-100.325-2.718 3.87c-3.5 4.979-18.882 27.1-24.632 23.062a3.533 3.533 0 0 0 1.209 1.625c5.753 4.039 25.223-13.772 28.723-18.751l3.759-5.351-6.341-4.455" transform="translate(-68.693 609.288)" style="fill:#3773b9"/>
    <path d="m246.045-166.043-16.188-11.374-8.575-6.023 47.035-66.947 24.763 17.4-47.035 66.945" transform="translate(-66.844 604.844)" style="fill:#223e73"/>
    <path d="m282.4-240.775-46.969 66.852-14.085-9.9-.066.095 8.575 6.023 16.188 11.374 47.035-66.945-10.678-7.5" transform="translate(-66.844 605.129)" style="fill:#1d365c"/>
    <path d="m287.094-226.282-24.763-17.4 2.725-3.878 24.763 17.4-2.725 3.878" transform="translate(-65.628 604.928)" style="fill:#192b45"/>
    <path d="M286.817-237.144s12.073 4.685 3.43 18.482-29.741 36.054-31.825 44.715-10.308 7.741-10.542 1.452 7.424-13.04 14.463-22.363 28.545-35.637 20.423-45.131l4.05 2.844" transform="translate(-66.056 605.152)" style="fill:#3f79c6"/>
    <path d="m483.5-594.649-94.542 37 40.763 4.856z" transform="translate(-61.878 594.649)" style="fill:#fff"/>
    <path d="m427.906-552.87 6.311 17.643 48.13-59.422z" transform="translate(-60.725 594.649)" style="fill:#a4e2f9"/>
    <path d="m441.242-548.811-7.207 13.584 48.13-59.422z" transform="translate(-60.543 594.649)" style="fill:#76c5ef"/>
    <path d="m481.957-594.649-12.729 62.33-28.194-16.491z" transform="translate(-60.336 594.649)" style="fill:#fff"/>
    <path d="m425.538-536.175-2.1-1.771c2.282-2.7 3.555-4.193 3.555-4.193l2.085 1.785s-1.267 1.485-3.542 4.179" transform="translate(-60.857 596.204)" style="fill:#57b2e7"/>
    <path d="m414.794-519.686-2.118-1.745a1820.08 1820.08 0 0 1 7.014-8.465l2.11 1.757a1977.616 1977.616 0 0 0-7.006 8.453zm-13.875 17.009-2.137-1.726c2.391-2.963 4.709-5.815 6.926-8.532l2.126 1.736q-3.324 4.07-6.915 8.522zm-13.691 17.153-2.155-1.7q3.466-4.4 6.828-8.609l2.146 1.712q-3.347 4.199-6.819 8.597zm-13.477 17.317-2.176-1.672q3.365-4.386 6.719-8.694l2.166 1.685q-3.338 4.288-6.709 8.681zm-13.2 17.518-2.206-1.632q3.258-4.4 6.577-8.808l2.194 1.654q-3.316 4.385-6.568 8.786zm-12.837 17.776-2.247-1.577q3.118-4.438 6.386-8.957l2.225 1.609q-3.25 4.5-6.365 8.925zm-12.285 18.139-2.308-1.492c1.889-2.917 3.937-6 6.09-9.173l2.272 1.542a474.62 474.62 0 0 0-6.057 9.124zm-10.21 19.134-2.524-1.078c1.463-3.432 3.071-6.8 4.777-10.008l2.424 1.289a126.986 126.986 0 0 0-4.68 9.798zm-6.868 20.584-2.668-.658a139.55 139.55 0 0 1 3.079-10.641l2.606.869a134.366 134.366 0 0 0-3.02 10.431zm267.8 12.707a71.986 71.986 0 0 0-6.083-8.872l2.144-1.715a74.429 74.429 0 0 1 6.315 9.212zm-271.205 8.709-2.739-.195c.258-3.634.688-7.34 1.277-11.016l2.71.433a122.866 122.866 0 0 0-1.253 10.779zm278.727 11.3a62.539 62.539 0 0 0-2.912-10.315l2.569-.971a65.5 65.5 0 0 1 3.041 10.77zm-280.959 10.672c-.444-3.615-.712-7.34-.793-11.076l2.746-.061c.079 3.643.34 7.277.773 10.8zm283.991 11.113-2.714-.423a63.547 63.547 0 0 0 .77-9.8l-.008-.9 2.746-.036.008.937a66.408 66.408 0 0 1-.8 10.22zm-278.881 10.487a96.077 96.077 0 0 1-3.164-10.664l2.673-.627A93.707 93.707 0 0 0 320.406-311zm272.007 10.7-2.456-1.23a72.732 72.732 0 0 0 4.1-9.943l2.61.855a75.972 75.972 0 0 1-4.255 10.313zm-261.964 9.118a89.715 89.715 0 0 1-5.633-9.6l2.449-1.239a87.325 87.325 0 0 0 5.46 9.3zM577.309-281l-2.057-1.818a87.911 87.911 0 0 0 6.642-8.508l2.265 1.553a90.986 90.986 0 0 1-6.85 8.773zm-234.9 7.528a95.871 95.871 0 0 1-7.772-7.948l2.071-1.8a92.981 92.981 0 0 0 7.551 7.72zm218.474 7.39-1.628-2.212a106.416 106.416 0 0 0 8.393-6.841l1.842 2.036a109.073 109.073 0 0 1-8.607 7.016zM360.3-260.376a112.422 112.422 0 0 1-9.278-6.082l1.617-2.218c2.853 2.081 5.9 4.077 9.051 5.933zm181.614 5.741L540.7-257.1a129.597 129.597 0 0 0 9.529-5.191l1.415 2.352a130.766 130.766 0 0 1-9.727 5.303zm-161.654 3.81a143.3 143.3 0 0 1-10.171-4.361l1.181-2.478a140.835 140.835 0 0 0 9.976 4.276zm141.125 4.425-.836-2.614a153.48 153.48 0 0 0 10.231-3.671l1.019 2.549a155.753 155.753 0 0 1-10.414 3.736zm-120.021 2.117a185.559 185.559 0 0 1-10.65-2.931l.81-2.625a181.075 181.075 0 0 0 10.491 2.888zm98.582 3.243-.5-2.7a182.24 182.24 0 0 0 10.639-2.308l.662 2.665c-3.527.875-7.16 1.663-10.802 2.34zm-76.912.87a235.538 235.538 0 0 1-10.884-1.788l.509-2.7c3.5.659 7.117 1.253 10.757 1.765zm55.02 1.964-.209-2.737c3.66-.28 7.306-.654 10.84-1.109l.351 2.724c-3.579.458-7.275.837-10.983 1.12zm-33.077.206c-3.2-.188-6.5-.44-9.794-.752l-1.2-.115.269-2.732 1.187.115c3.266.308 6.529.557 9.7.744zm15.262.457q-2.107 0-4.238-.036l.045-2.746c3.666.062 7.28.045 10.91-.058l.075 2.746a248.72 248.72 0 0 1-6.793.093" transform="translate(-64.16 596.567)" style="fill:#57b2e7"/>
    <path d="M565.221-383.482a92.293 92.293 0 0 0-4.037-3.6l1.764-2.1a91.913 91.913 0 0 1 4.161 3.707l-1.888 1.993" transform="translate(-56.778 600.734)" style="fill:#57b2e7"/>
    <path d="m152.515-326.77-2.526-1.078a73.63 73.63 0 0 1 3.539-6.9v5.6c-.3.692-.069.162-1.013 2.379" transform="translate(-68.955 602.346)" style="fill:#3367b1"/>
    <path d="M299.694-517.528a52.35 52.35 0 0 0-10.778-.73l-.108-2.742a55.437 55.437 0 0 1 11.344.765zm-31.188 5.253-1.407-2.358a45.009 45.009 0 0 1 10.457-4.562l.767 2.635a42.356 42.356 0 0 0-9.816 4.285zm51.817 1.628a88.439 88.439 0 0 0-10.1-4.181l.885-2.6a91.729 91.729 0 0 1 10.411 4.311zm-67.375 13.16-2.24-1.587a60.668 60.668 0 0 1 7.367-8.622l1.905 1.977a58.029 58.029 0 0 0-7.031 8.233zm-9.91 19.391-2.581-.936a94.547 94.547 0 0 1 4.443-10.348l2.452 1.238a91.926 91.926 0 0 0-4.314 10.042zm-5.471 21.242-2.709-.453a136.21 136.21 0 0 1 2.3-10.979l2.659.678a135.26 135.26 0 0 0-2.249 10.754zm-2.067 21.913-2.744-.074c.1-3.774.323-7.535.663-11.177l2.733.254c-.33 3.582-.552 7.282-.652 10.997zm-2 22.281a191.668 191.668 0 0 1-.7-11.165l2.744-.094c.124 3.63.357 7.333.693 11.009zm3.26 22.122a211.066 211.066 0 0 1-1.932-11.015l2.717-.4a206.528 206.528 0 0 0 1.905 10.869zm5.614 21.638a214.587 214.587 0 0 1-3.1-10.744l2.656-.691a206.66 206.66 0 0 0 3.057 10.6zm6.679 21.118c-.95-3.5-2.008-7.058-3.149-10.576l2.611-.847a229.69 229.69 0 0 1 3.188 10.705zm4.635 21.557c-.556-3.55-1.236-7.2-2.022-10.84l2.684-.579a192.96 192.96 0 0 1 2.05 10.995zm1.955 21.919a147.894 147.894 0 0 0-.6-10.988l2.735-.247c.345 3.8.551 7.565.61 11.19zm-109.812 3.884-2.667-.649c.857-3.523 1.91-7.15 3.125-10.778l2.6.873a133.926 133.926 0 0 0-3.051 10.554zm110.892 18.452-2.7-.484a103.852 103.852 0 0 0 1.34-10.873l2.739.2a106.4 106.4 0 0 1-1.379 11.157zM140.3-278.757v-.326a82.522 82.522 0 0 1 .769-10.94l2.721.365a79.841 79.841 0 0 0-.744 10.575v.306zm109.46 18.216-2.445-1.248a67.112 67.112 0 0 0 4.1-10.061l2.617.835a69.82 69.82 0 0 1-4.272 10.474zM144.923-256.6a45.071 45.071 0 0 1-3.556-10.853l2.693-.531a42.277 42.277 0 0 0 3.34 10.184zm90.7 13.7-1.712-2.144a47.721 47.721 0 0 0 7.588-7.63l2.15 1.708a50.37 50.37 0 0 1-8.029 8.057zm-75.323 2.939a40.932 40.932 0 0 1-8.919-7.168l2.01-1.87a38.077 38.077 0 0 0 8.323 6.683zm54.96 6.861-.655-2.666a53.2 53.2 0 0 0 10.178-3.6l1.181 2.478a55.768 55.768 0 0 1-10.704 3.788zm-33.634.543a73.2 73.2 0 0 1-10.973-2.7l.873-2.6a70.393 70.393 0 0 0 10.558 2.6zm16.461 1.411c-1.711 0-3.487-.052-5.279-.157l.157-2.74a83.474 83.474 0 0 0 10.914-.059l.2 2.738a80.593 80.593 0 0 1-6 .218" transform="translate(-69.242 596.829)" style="fill:#3367b1"/>
    <path d="M329.291-502.682a142.001 142.001 0 0 0-4.578-2.935l1.434-2.341c1.542.946 3.112 1.952 4.669 2.991l-1.525 2.284" transform="translate(-63.781 597.216)" style="fill:#3367b1"/>
    <g style="clip-path:url(#mdxn7ajfiA)">
        <path d="M516.4-164.87a28.369 28.369 0 0 1-13.172-2.956l-.652-.351c-7.273-3.941-7.273-10.331 0-14.271l51-27.625 5.306 2.873 7.607-4.121v23.5l-36.912 20a28.373 28.373 0 0 1-13.177 2.951" transform="translate(-58.675 606.002)" style="fill:url(#6qt3ktmemB)"/>
    </g>
    <path d="m573.3-197.291 23.281-13.441v-6.233l-41.688 9.047 18.407 10.627" transform="translate(-56.964 605.834)" style="fill:#a8a8a6"/>
    <path d="m573.3-203.218 23.281-13.441-18.407-10.628-23.281 13.443 18.407 10.626" transform="translate(-56.964 605.528)" style="fill:#fefefe"/>
    <path d="m587.428-214.628 3.531-2.037-5.157-2.976-3.528 2.037 5.154 2.976" transform="translate(-56.153 605.755)" style="fill:#a8a8a6"/>
    <path d="m585.8-219.1-3.061 1.768-.467-.271 3.528-2.037 5.156 2.976-.469.27-4.687-2.706" transform="translate(-56.153 605.755)" style="fill:#484849"/>
    <path d="m578.759-219.634 3.528-2.037-5.154-2.976-3.531 2.036 5.156 2.978" transform="translate(-56.41 605.607)" style="fill:#a8a8a6"/>
    <path d="m577.133-224.108-3.061 1.767-.469-.27 3.531-2.036 5.153 2.976-.467.27-4.687-2.707" transform="translate(-56.41 605.607)" style="fill:#484849"/>
    <path d="m507.6-187.577 4.349 4.075c.247-.162.5-.324.773-.479l73.174-24.03v11.026l-47.847 27.627c-6.827 3.941-17.892 3.941-24.716 0l-.611-.353c-3.533-2.039-5.232-4.733-5.108-7.4h-.014v-10.466" transform="translate(-58.365 606.099)" style="fill:#eb2762"/>
    <path d="m512.725-194.588 47.844-27.625 25.331 14.622-47.847 27.625c-6.827 3.94-17.892 3.94-24.716 0l-.611-.353c-6.827-3.94-6.827-10.329 0-14.269" transform="translate(-58.364 605.679)" style="fill:#f25282"/>
    <path d="M517.016-184.291a16.736 16.736 0 0 0 15.145 0c4.179-2.413 4.179-6.329 0-8.742a16.736 16.736 0 0 0-15.145 0c-4.183 2.413-4.181 6.329 0 8.742" transform="translate(-58.179 606.489)" style="fill:#f8a3c2"/>
    <path d="M161.038-514.953s-.2 9.85 4.952 12c4.147-.828-.486-11.436-.486-11.436l-4.466-.562" transform="translate(-68.628 597.009)" style="fill:#1f2f58"/>
    <path d="m220.391-437.69 3.472-1.945a4.422 4.422 0 0 1-1.669 1.737 16.623 16.623 0 0 1-1.8.209" transform="translate(-66.87 599.24)" style="fill:#8ecce5"/>
    <g style="clip-path:url(#p485j9uepC)" transform="translate(99.619 191.318)">
        <path d="m168.052-408.389-.012-.007.781-.438-.769.445" transform="translate(-168.04 408.834)" style="fill:url(#q5st34m4jD)"/>
    </g>
    <path d="M176.751-403.713a2238.282 2238.282 0 0 1-8.7-3.952l.769-.445 44.913-25.168-.839 6.19.1 2.45-36.245 20.924" transform="translate(-68.42 599.428)" style="fill:#8ecce5"/>
    <path d="M183.259-400.914c-1.761-.792-4.14-1.863-6.758-3.046l36.245-20.925.284 6.783-29.771 17.188" transform="translate(-68.17 599.677)" style="fill:#60afe4"/>
    <path d="M207.961-326.134h-.12l-.355-.016a5.728 5.728 0 0 1-.5-.051c-.124-.015-.246-.029-.373-.054a10.381 10.381 0 0 1-.559-.11c-.128-.031-.254-.056-.39-.09-.2-.054-.412-.121-.623-.188-.132-.04-.258-.078-.394-.126-.238-.082-.48-.183-.726-.284l-.357-.141a18.627 18.627 0 0 1-1.146-.556c-6.532-3.447-7.923-4.353-9.192-5.081a2.133 2.133 0 0 1-.513-.4l-.092-.1a1.559 1.559 0 0 1-.269-.485l-.007-.027a2.3 2.3 0 0 1-.088-.577v-.121a15.505 15.505 0 0 1 .187-1.911.852.852 0 0 1 .336-.517c-.323-.242-6.64-62.754-6.64-62.754l-3.072-1.378 29.768-17.199.023.566c5.5 4.99 10.26 10.593 11.547 15.853a90.314 90.314 0 0 1 1.878 14.2v4.563l.255-.147c.06 1.271.111 2.549.152 3.822l-.408.236v4.971l.531-.306c.022 1.321.037 2.622.047 3.884l-.578.334v4.971l.581-.335c-.007 1.4-.021 2.725-.037 3.932l-.544.314v4.972l.443-.255c-.043 1.583-.077 2.493-.077 2.493s-.059.106-.145.247c1.737 1.336 7.947 6.175 9.453 8.355a2.466 2.466 0 0 1 .319.662v.005a1.84 1.84 0 0 1-.924 2.2l-.332.166-.176.081-.317.1-.281.077-.323.059c-.119.019-.24.039-.365.048l-.336.022c-.088 0-.177.005-.266.005h-.167l-.356-.014a9.642 9.642 0 0 1-1.432-.217c-.129-.029-.254-.057-.388-.091-.2-.051-.413-.118-.625-.186-.132-.042-.259-.081-.394-.129-.238-.082-.481-.183-.728-.281l-.356-.147q-.56-.241-1.145-.55c-6.533-3.447-7.924-4.357-9.194-5.081a2.135 2.135 0 0 1-.513-.408l-.092-.1a1.556 1.556 0 0 1-.269-.483l-.007-.029a2.345 2.345 0 0 1-.089-.574v-.123a7.07 7.07 0 0 1 .049-.828c-.17-.07-.286-.126-.286-.126l-5.5-48.717s-3.564 10.74-9.081 10.74a4.552 4.552 0 0 1-1.727-.35c4.15 5.137-1.328.106-.575 5.544 2.026 14.645 2.065 46.507 2.065 46.507s-.087.093-.218.22c2.127 1.643 7.669 6.023 9.078 8.063a2.452 2.452 0 0 1 .32.664v.005a1.836 1.836 0 0 1-.924 2.2l-.332.166-.176.084-.317.1-.282.077-.323.061c-.119.021-.24.037-.365.051l-.335.018c-.1 0-.209.007-.316.007" transform="translate(-67.976 599.872)" style="fill:#cfdfe4"/>
    <path d="M225.041-384v-4.563c.1 1.452.184 2.931.255 4.416l-.255.147" transform="translate(-66.732 600.752)" style="fill:#b5d2d8"/>
    <path d="M225.041-375.356v-4.971l.408-.236c.055 1.651.095 3.292.124 4.9l-.531.306" transform="translate(-66.732 600.989)" style="fill:#b5d2d8"/>
    <path d="M225.041-366.726v-4.974l.578-.334a374 374 0 0 1 0 4.97l-.581.335" transform="translate(-66.732 601.242)" style="fill:#b5d2d8"/>
    <path d="M225.041-358.1v-4.973l.543-.314a438.062 438.062 0 0 1-.1 5.031l-.443.255" transform="translate(-66.732 601.498)" style="fill:#b5d2d8"/>
    <path d="M224.739-425.939s-7.839.636-9.5 7.093c-1.315 5.549-3.546 2.194-3.089 3.222s4.405 8.79 8.181 5.358 9.327-6.983 7.18-14.246a4.951 4.951 0 0 0-2.776-1.428" transform="translate(-67.116 599.646)" style="fill:#162337"/>
    <path d="M203.977-412.831s-7.839.636-9.5 7.093c-1.315 5.549-1.371 5.778-.914 6.808s2.231 5.2 6.006 1.772 11.452-4.464 9.306-11.727c-1.518-1.371-4.9-3.947-4.9-3.947" transform="translate(-67.672 600.034)" style="fill:#1f2f58"/>
    <g style="clip-path:url(#w0m36winfE)" transform="translate(117.93 94.054)">
        <path d="M190.634-503.214s-.141-1.391-3.9 6.957 5.273 35.016 7.417 37.943 29.027 11.163 34.937 2.036c-3.689-1.9-.126-4.621-.851-8.888-10.98 3.843-26.8-2.774-30.159-5.558-5.6-4.639 2.695-20.94-7.439-32.491" transform="translate(-185.824 503.3)" style="fill:url(#kuu6a5zedF)"/>
    </g>
    <path d="M231.292-371.451s9.172 6.145 10.926 8.687-2.056 5.261-8.588 1.812-7.923-4.354-9.194-5.078-1.179-4.249.005-6.367c.924-1.649 6.85.946 6.85.946" transform="translate(-66.778 601.215)" style="fill:#f25282"/>
    <path d="M224.438-367.326c1.271.726 2.662 1.632 9.194 5.081 4.909 2.588 8.278 1.7 8.908.015.735 2.3-2.946 4.3-8.908 1.151-6.532-3.445-7.923-4.355-9.194-5.078-.971-.557-1.056-1.289-.935-2.44a1.7 1.7 0 0 0 .935 1.271" transform="translate(-66.779 601.343)" style="fill:#454547"/>
    <g style="clip-path:url(#17udl51r2G)" transform="translate(95.635 151.309)">
        <path d="M164.17-447.692s.3 18.448 16.6 22.459 37.611 10.253 37.611 10.253l8.15 46.686s2.772 2.761 4.949 1.864a2.652 2.652 0 0 0 1.572-2.807s1.13-34.541-1.886-49.015c-2.229-10.7-40.07-26.833-40.07-26.833l-26.924-2.607" transform="translate(-164.17 447.692)" style="fill:url(#rbh1g0m2sH)"/>
    </g>
    <path d="M228.934-423.856c-8.727-12.31-29.355-24.207-29.355-24.207l-35.409.382s.3 18.448 16.6 22.459c13.794 3.4 30.864 11.931 34.981 13.839.137-7.581 5.907-15.753 13.186-12.474" transform="translate(-68.535 598.99)" style="fill:#1f2f58"/>
    <path d="M208.07-355.854s8.164 6.171 9.917 8.712-2.055 5.261-8.587 1.812-7.923-4.353-9.194-5.078-1.273-4.585.106-7.041c.925-1.649 7.758 1.6 7.758 1.6" transform="translate(-67.496 601.66)" style="fill:#f25282"/>
    <path d="M200.208-351.722c1.271.726 2.662 1.632 9.194 5.081 4.909 2.588 8.278 1.7 8.908.016.734 2.3-2.946 4.3-8.908 1.149-6.532-3.444-7.923-4.353-9.194-5.078-.971-.557-1.056-1.289-.934-2.44a1.693 1.693 0 0 0 .934 1.271" transform="translate(-67.497 601.806)" style="fill:#454547"/>
    <g style="clip-path:url(#h2mmyl0jnI)">
        <path d="M148.5-437.109s-1.573 18.385 14.232 24.03 35.349 12.813 35.349 12.813l3.833 46.3a5.409 5.409 0 0 0 4.519 2.117c3.252 0 3.142-1.662 3.142-1.662S213.023-387 211-401.64s-22.97-31.863-22.97-31.863l-39.53-3.606" transform="translate(-69 599.314)" style="fill:url(#w1ef87gduJ)"/>
    </g>
    <path d="M210.207-408.165c-6-12.784-22.182-25.338-22.182-25.338l-39.525-3.606s-1.573 18.385 14.232 24.03c13.892 4.961 29.866 14.813 33.118 16.759 2.122-7 5.351-13.944 14.358-11.845" transform="translate(-69 599.315)" style="fill:#223e73"/>
    <path d="M202.465-444.762s1.757-55.114-15.056-61.553-32.215 8.884-38.788 23.721-4.839 40.67 0 50.261c23.063 15.874 54.5-4.807 53.843-12.429" transform="translate(-69.123 597.221)" style="fill:#f793b9"/>
    <path d="M148.622-482.594c6.573-14.837 21.975-30.158 38.787-23.721a9.78 9.78 0 0 1 1.594.794c-12.381 1.573-22.908 13.46-28.044 25.057-6.569 14.837-4.839 40.668 0 50.26a32.55 32.55 0 0 0 7.119 3.7 33.533 33.533 0 0 1-19.457-5.825c-4.839-9.592-6.57-35.423 0-50.262" transform="translate(-69.123 597.22)" style="fill:#f9b0d2"/>
    <g style="clip-path:url(#ct8wyx7zsK)" transform="translate(93.953 65.715)">
        <path d="M191.608-530.2s4.2 6.719.435 21.3c-3.056 11.813-3.508 18.348-8.437 18.847s-19.694-3.105-18.084-15.4c-1.469-.316-4.474-5.942-2.1-10.416s4.035.416 4.035.416-.095-9.748 6.8-13.3 17.361-1.442 17.361-1.442" transform="translate(-162.537 530.825)" style="fill:url(#u4w3wj4cvL)"/>
    </g>
    <path d="M175.425-518.311c.025-.566 5.259 6.9 13.67 4.49a5.18 5.18 0 0 1-3.561-2.912 7.438 7.438 0 0 0 7.652 2.486 11.082 11.082 0 0 1-3.057-1.771 8.328 8.328 0 0 0 6.276.466c-1.936-.835-1.646-2.113-1.646-2.113s1.712 1.713 5.041-1.189c-1.355-.174-1.22-6.389-6.112-10.864s-8.863-5.517-15.414-4.412c1.606-1.665 3.3-2.59 5.616-2.22-2.617-1.461-8.148 1.158-9.783 3.577-5.088-1.952-14.674 1.433-11.51 19.97.051-.467.489-3.482 2.284-4.053s3.311 2.964 2.9 3.857-.6 6.183-.6 6.183l2.319 1.216s-.721-4.6.935-5.981 4.669.33 4.986-6.732" transform="translate(-68.6 596.363)" style="fill:#1f2f58"/>
    <path d="m230.877-478.483-9.963 13.368-32.186-7.5 1.849 41.6 29.273-.354 9.641-11.732 1.385-35.379" transform="translate(-67.808 598.089)" style="fill:#fff"/>
    <path d="m229.982-483.945-9.963 18.993-1.064 33.742 9.641-11.732 1.385-41" transform="translate(-66.913 597.928)" style="fill:#ebf9fe"/>
    <g style="clip-path:url(#100axxmezM)" transform="translate(158.325 134.867)">
        <path d="M229.2-463.661s-2.213 4.526-3.583 5.047-.309 8.058 3.895 5.639 2.223-10.446-.312-10.686" transform="translate(-225.057 463.661)" style="fill:url(#8zhp1k2vyN)"/>
    </g>
    <g style="clip-path:url(#n4ys3bts1O)" transform="translate(73.652 105.094)">
        <path d="M204.024-449.66c-2.339-.163-5 .4-9.111.48s-3.962-2.246-4.12-5.564c-1.3.964-2.088 3.553-4.187 5.075s-3.089 0-3.089 0l-.443.332c-14.891-2.629-25.41-6.323-27.771-9.864-2.418-3.628 4.22-14.59 4.792-24.49 0 0 1.325-12.413-6.643-7.9s-10.632 36.325-10.632 39.953 26.709 8.663 40.676 9.939a19.226 19.226 0 0 0 8.046 2.77c12.033-.233 14.822-10.571 12.482-10.733" transform="translate(-142.82 492.578)" style="fill:url(#aishur30rP)"/>
    </g>
    <path d="M162.153-484.771s-.71-11.33-8.678-6.817c-4.087 2.315-8.3 14.518-11.44 22.437a35.285 35.285 0 0 0 14.95 6.348 37.126 37.126 0 0 0 5.167-21.968" transform="translate(-69.191 597.67)" style="fill:#f46aa1"/>
    <path d="M197.082-524.99s-.535 8.112-34.576 11.456a9.9 9.9 0 0 1-2.028-5.171c-.632-4.359.187-9.641 1.274-11.732 1.606-3.09 1.218-7.324-.7-9.268s-1.512-6.178 5.147-3.2 23.769.715 30.887 17.918" transform="translate(-68.657 596.151)" style="fill:#f46aa1"/>
    <path d="M164.6-543.461a4.865 4.865 0 0 1-4.865 4.865 4.866 4.866 0 0 1-4.865-4.865 4.865 4.865 0 0 1 4.865-4.865 4.864 4.864 0 0 1 4.865 4.865" transform="translate(-68.811 596.021)" style="fill:#fff"/>
</svg>
