<svg xmlns="http://www.w3.org/2000/svg" xmlns:xlink="http://www.w3.org/1999/xlink" width="350.023" height="349.049" viewBox="0 0 350.023 349.049">
    <defs>
        <clipPath id="f8uce5owtg">
            <path d="m157.883-231.079-17.694-10.215-14.958 8.635-53.946-31.2 54.859-32.783v42.5a1.923 1.923 0 0 0 .8 1.773l.23.1 4.736 2.722a1.382 1.382 0 0 0 .82.251 2.492 2.492 0 0 0 1.223-.373l53.759-31.037v7.981l-32.286 18.64a2.861 2.861 0 0 0-1.748 2.7v5.6a1.906 1.906 0 0 0-.01.2 2.984 2.984 0 0 0 1.757 2.453l9.582 5.534a7.963 7.963 0 0 0 2.927.931l-10.051 5.583" transform="translate(-71.286 296.645)"/>
        </clipPath>
        <clipPath id="tqnn60a6lh">
            <path d="m307.857-153.971-18.353-.008L257-172.746l8.865-5.9v-.083l41.19 23.78 33.15-19.139 1.532.531-33.879 19.589m-65.825-27.415-34.18-19.734 33.269-13.338.84.484-4.971 2.87v15.7l14.079 8.128-9.037 5.887M373.8-192.1l-.845-.9 28.082-16.213-.577-.333 2.006.871-28.661 16.575" transform="translate(-207.851 214.458)"/>
        </clipPath>
        <clipPath id="3w5gkn2l0j">
            <path d="m205.559-205.318-4.61-2.662L211-213.562a10.3 10.3 0 0 0 1.33.086 8.721 8.721 0 0 0 4.259-1.017l21.828-12.6v8.2l.411.238-33.269 13.338" transform="translate(-200.949 227.097)"/>
        </clipPath>
        <clipPath id="stgllo4t2k">
            <path d="m323.419-297.418 1.267-.731-1.267.731" transform="translate(-323.419 298.149)"/>
        </clipPath>
        <clipPath id="9a9pq7y4jl">
            <path d="m396.677-331.647-6.67-3.85 6.67 3.85" transform="translate(-390.007 335.498)"/>
        </clipPath>
        <clipPath id="9h0p4qtzln">
            <path d="m500.2-449.95-29.644-17.114c2.349-3.533 1.312-11.2 6.44-17.824.159-.221.33-.42.5-.623.08-.1.146-.194.23-.289l.052-.056c.133-.143.27-.27.4-.4-.272-1.145-.569-2.4-.923-3.76a33.811 33.811 0 0 1-.723-3.577h-.009.009c-.029-.2-.053-.392-.077-.584-.153.013-.31.021-.471.021a4.173 4.173 0 0 1-1.549-.282c1.256-.541 1.069-1.371 1.069-1.371s-2.479-4.915.694-7.818a1.248 1.248 0 0 1 .876-.307c4.5 0 18.084 16.008 17.384 16.158a8.674 8.674 0 0 1 .054 1.622c3.166 1.991.515 24.26 2.717 27.472a33.747 33.747 0 0 1 2.972 8.74" transform="translate(-470.553 503.943)"/>
        </clipPath>
        <clipPath id="n5mi9etd0o">
            <path d="M473.116-519.316s-2.721 4.358-.281 13.815c1.98 7.662 2.275 11.9 5.473 12.225s12.775-2.014 11.729-9.99c.954-.2 2.9-3.855 1.365-6.756s-2.617.269-2.617.269.062-6.323-4.407-8.628-11.262-.935-11.262-.935z" transform="translate(-471.819 519.72)"/>
        </clipPath>
        <clipPath id="pgdlykzfcp">
            <path d="M475.327-441.435s-.642.988-2 0-1.874-2.668-2.715-3.293c-.1 2.153-.005 3.659-2.673 3.609s-4.392-.417-5.91-.311.292 6.81 8.1 6.962c4.3-.266 6.131-2.672 6.131-2.672z" transform="translate(-461.534 444.728)"/>
        </clipPath>
        <clipPath id="b8zw2hrq5q">
            <path d="M434.562-452.556s1.435 2.936 2.323 3.273.2 5.228-2.526 3.659-1.441-6.776.203-6.932z" transform="translate(-432.776 452.556)"/>
        </clipPath>
        <clipPath id="4gi2bjrzos">
            <path d="m452.523-147.125-44.205-15.317 32.069-18.543 7.506 8-5.261 3.048 4.95 2.86 3.792-2.2-3.792 2.2v5.709l7.264-4.208 9.1 9.7-11.414 8.751" transform="translate(-408.318 180.986)"/>
        </clipPath>
        <clipPath id="hsmvmaq8lu">
            <path d="m407.555-162.89-1.533-.532 32.757-18.912.845.9-32.069 18.544" transform="translate(-406.023 182.334)"/>
        </clipPath>
        <clipPath id="6ohcp8jckw">
            <path d="m160.558-91.035 30.342-37.693 15.1 8.714s-10.015 5.468-22.6 17.105-22.834 11.873-22.834 11.873" transform="translate(-160.558 128.728)"/>
        </clipPath>
        <clipPath id="7eg1ccb7qy">
            <path d="m274-159.227-14.966-8.64 9.037-5.887 14.795 8.542v.083l-8.865 5.9" transform="translate(-259.03 173.754)"/>
        </clipPath>
        <clipPath id="md9dg45ixA">
            <path d="M509.622-181.19a18.4 18.4 0 0 1-8.544-1.917l-.423-.228c-4.718-2.557-4.718-6.7 0-9.257l33.079-17.919 3.442 1.864 4.934-2.673v15.243l-23.944 12.97a18.4 18.4 0 0 1-8.544 1.917" transform="translate(-497.117 211.321)"/>
        </clipPath>
        <clipPath id="1mi311um0C">
            <path d="M168.048-408.545h-.008l.507-.284-.5.289" transform="translate(-168.04 408.834)"/>
        </clipPath>
        <clipPath id="vegt8ps7pE">
            <path d="M188.944-503.244s-.092-.9-2.533 4.513 3.42 22.714 4.811 24.612 18.828 7.241 22.662 1.321c-2.393-1.23-.082-3-.552-5.765-7.122 2.493-17.386-1.8-19.563-3.605-3.629-3.01 1.748-13.584-4.825-21.076z" transform="translate(-185.824 503.3)"/>
        </clipPath>
        <clipPath id="frguuwfcuG">
            <path d="M164.17-447.692s.2 11.966 10.766 14.568 24.4 6.651 24.4 6.651l5.287 30.283s1.8 1.791 3.21 1.209a1.72 1.72 0 0 0 1.02-1.821s.733-22.405-1.224-31.794C206.18-435.538 181.634-446 181.634-446z" transform="translate(-164.17 447.692)"/>
        </clipPath>
        <clipPath id="5cja9x76aI">
            <path d="M148.484-437.109s-1.021 11.925 9.232 15.587 22.929 8.311 22.929 8.311l2.486 30.035a3.509 3.509 0 0 0 2.931 1.373c2.11 0 2.038-1.078 2.038-1.078s2.237-21.721.922-31.22-14.9-20.668-14.9-20.668z" transform="translate(-148.456 437.109)"/>
        </clipPath>
        <clipPath id="0rieq46tzK">
            <path d="M181.394-530.421s2.721 4.358.282 13.815c-1.982 7.663-2.275 11.9-5.473 12.225s-12.775-2.014-11.73-9.99c-.953-.205-2.9-3.854-1.365-6.756s2.617.27 2.617.27-.061-6.323 4.408-8.629 11.261-.935 11.261-.935z" transform="translate(-162.537 530.825)"/>
        </clipPath>
        <clipPath id="4bhawmpveM">
            <path d="M227.747-463.661s-1.435 2.936-2.324 3.274-.2 5.227 2.526 3.658 1.442-6.777-.202-6.932z" transform="translate(-225.057 463.661)"/>
        </clipPath>
        <clipPath id="hi767iivfO">
            <path d="M182.52-464.739c-1.517-.106-3.242.263-5.91.312s-2.57-1.457-2.672-3.609c-.842.625-1.354 2.3-2.716 3.292s-2 0-2 0l-.288.215c-9.659-1.705-16.482-4.1-18.014-6.4-1.568-2.354 2.737-9.464 3.109-15.885 0 0 .859-8.052-4.309-5.125s-6.9 23.562-6.9 25.916 17.325 5.619 26.385 6.447a12.471 12.471 0 0 0 5.219 1.8c7.805-.153 9.614-6.858 8.096-6.963z" transform="translate(-142.82 492.578)"/>
        </clipPath>
        <radialGradient id="ddwx83016a" cx=".694" cy="14.422" r="3.395" gradientTransform="matrix(.563 0 0 1 .403 0)" gradientUnits="objectBoundingBox">
            <stop offset="0" stop-color="#daeff4"/>
            <stop offset="1" stop-color="#bdd0d5"/>
        </radialGradient>
        <radialGradient id="9nsdd9d3si" cx="-3.839" cy="16.722" r="3.68" gradientTransform="matrix(.311 0 0 1 -2.217 0)" xlink:href="#ddwx83016a"/>
        <radialGradient id="r29gkck9cd" cx="-9.481" cy="31.227" r="10.222" gradientTransform="matrix(.575 0 0 1 -3.225 0)" gradientUnits="objectBoundingBox">
            <stop offset="0" stop-color="#b9dee9"/>
            <stop offset="1" stop-color="#9fbfca"/>
        </radialGradient>
        <radialGradient id="ncus9arknb" cx="-429.612" cy="1263.488" r="304.509" gradientTransform="matrix(.577 0 0 1 -155.454 .004)" gradientUnits="objectBoundingBox">
            <stop offset="0" stop-color="#f279aa"/>
            <stop offset="1" stop-color="#d16a92"/>
        </radialGradient>
        <radialGradient id="9m5sjupq7m" cx="-141.78" cy="273.367" r="57.817" gradientTransform="matrix(.577 0 0 1 -51.773 .001)" xlink:href="#ncus9arknb"/>
        <radialGradient id="oyhhez41je" cx="87.943" cy="-46.633" r="4.123" gradientTransform="matrix(1.821 0 0 1 -62.968 0)" gradientUnits="objectBoundingBox">
            <stop offset="0" stop-color="#e4e4e3"/>
            <stop offset="1" stop-color="#c7c6c4"/>
        </radialGradient>
        <radialGradient id="jj2by2tyat" cx="-17.788" cy="14.14" r="6.575" gradientTransform="matrix(.609 0 0 1 -6.009 0)" xlink:href="#ddwx83016a"/>
        <radialGradient id="q2xfpvziuv" cx="-31.398" cy="26.723" r="11.45" gradientTransform="matrix(.579 0 0 1 -11.431 0)" xlink:href="#r29gkck9cd"/>
        <radialGradient id="uhg2otyrex" cx="1.009" cy="3.186" r="5.906" gradientTransform="matrix(.83 0 0 1 .259 0)" xlink:href="#ddwx83016a"/>
        <radialGradient id="alc1xsecbz" cx="-20.88" cy="31.273" r="15.324" gradientTransform="matrix(.61 0 0 1 -6.769 0)" xlink:href="#r29gkck9cd"/>
        <radialGradient id="0w41ax3mdB" cx="-23.971" cy="16.344" r="7.389" gradientTransform="matrix(.67 0 0 1 -6.898 0)" gradientUnits="objectBoundingBox">
            <stop offset="0" stop-color="#c8e2eb"/>
            <stop offset="1" stop-color="#acc4cc"/>
        </radialGradient>
        <radialGradient id="v2gdn2iixD" cx="-224.334" cy="4603.759" r="771.54" gradientTransform="matrix(.569 0 0 1 52.35 -.358)" xlink:href="#oyhhez41je"/>
        <linearGradient id="gnz5t4b25f" x1="-15.635" y1="13.111" x2="-15.63" y2="13.111" gradientUnits="objectBoundingBox">
            <stop offset="0" stop-color="#fddebb"/>
            <stop offset="1" stop-color="#f9ad59"/>
        </linearGradient>
        <linearGradient id="6plipuh0xc" x1="-20.942" y1="28.949" x2="-20.936" y2="28.949" gradientUnits="objectBoundingBox">
            <stop offset="0" stop-color="#f9ad59"/>
            <stop offset="1" stop-color="#fddebb"/>
        </linearGradient>
        <linearGradient id="v5fg97gjjr" x1="-64.595" y1="41.741" x2="-64.575" y2="41.741" xlink:href="#6plipuh0xc"/>
        <linearGradient id="g063oxsn2F" x1="-4.423" y1="10.121" x2="-4.42" y2="10.121" xlink:href="#6plipuh0xc"/>
        <linearGradient id="ds7qlxyluH" x1="-2.447" y1="5.66" x2="-2.445" y2="5.66" xlink:href="#gnz5t4b25f"/>
        <linearGradient id="ocdn7ke4gJ" x1="-2.419" y1="5.278" x2="-2.417" y2="5.278" xlink:href="#gnz5t4b25f"/>
        <linearGradient id="7ko8ap47vL" x1="-5.386" y1="13.392" x2="-5.382" y2="13.392" xlink:href="#gnz5t4b25f"/>
        <linearGradient id="9wkj3dxucN" x1="-33.585" y1="42.765" x2="-33.565" y2="42.765" xlink:href="#6plipuh0xc"/>
        <linearGradient id="rqkmn3wemP" x1="-2.373" y1="9.453" x2="-2.371" y2="9.453" xlink:href="#6plipuh0xc"/>
    </defs>
    <g data-name="2085404">
        <g style="clip-path:url(#f8uce5owtg)" transform="translate(0 199.027)">
            <path d="m157.883-231.079-17.694-10.215-14.958 8.635-53.946-31.2 54.859-32.783v42.5a1.923 1.923 0 0 0 .8 1.773l.23.1 4.736 2.722a1.382 1.382 0 0 0 .82.251 2.492 2.492 0 0 0 1.223-.373l53.759-31.037v7.981l-32.286 18.64a2.861 2.861 0 0 0-1.748 2.7v5.6a1.906 1.906 0 0 0-.01.2 2.984 2.984 0 0 0 1.757 2.453l9.582 5.534a7.963 7.963 0 0 0 2.927.931l-10.051 5.583" transform="translate(-71.286 296.645)" style="fill:url(#ddwx83016a)"/>
        </g>
        <path d="M291.2-281.358v-5.724l-4.112 2.07-7.22-4.172a9.421 9.421 0 0 0-8.518 0l-72.575 41.9-4.133-2.016v5.655a2.878 2.878 0 0 0 1.747 2.655l9.582 5.534a9.422 9.422 0 0 0 8.517 0l74.958-43.28a2.892 2.892 0 0 0 1.75-2.624" transform="translate(-112.255 493.532)" style="fill:#76c5ef"/>
        <path d="m198.78-229.192-4.133-2.016v5.655a2.878 2.878 0 0 0 1.753 2.653l9.582 5.534a8.688 8.688 0 0 0 4.14 1.01v-19.383l-11.337 6.545" transform="translate(-112.255 475.442)" style="fill:#449fd1"/>
        <path d="M205.974-244.5a9.411 9.411 0 0 0 8.517 0l74.958-43.279c2.352-1.361 2.352-3.56 0-4.916l-9.579-5.533a9.415 9.415 0 0 0-8.518 0l-74.959 43.278c-2.351 1.358-2.351 3.559 0 4.917l9.582 5.531" transform="translate(-112.252 496.536)" style="fill:#a4e2f9"/>
        <path d="m243.013-264.088-5.225-2.957v-26.735l33.712-19.46-28.485 49.152" transform="translate(-126.587 501.184)" style="fill:#449fd1"/>
        <path d="m279.321-282.079-33.709 19.461v-26.734l33.709-19.461v26.733" transform="translate(-129.185 499.713)" style="fill:#57b2e7"/>
        <path d="m304.226-521.753-4.9-2.8a1.255 1.255 0 0 0-.334-.19 2.06 2.06 0 0 0-1.75.281l-141.078 81.447a6.055 6.055 0 0 0-2.737 4.744v108.333a1.923 1.923 0 0 0 .8 1.773l.23.1 4.878 2.8 1.014-5.279-1.456.606L297.234-409.8a6.054 6.054 0 0 0 2.742-4.745V-518.8l4.25-2.954" transform="translate(-98.567 571.462)" style="fill:#57b2e7"/>
        <path d="M299.826-524.551a1.254 1.254 0 0 0-.334-.19 2.06 2.06 0 0 0-1.75.281l-141.074 81.445a5.41 5.41 0 0 0-1.724 1.721l94.3 59.488 48.49-28a6.054 6.054 0 0 0 2.742-4.745V-518.8l4.25-2.954-4.9-2.8" transform="translate(-99.071 571.462)" style="fill:#a4e2f9"/>
        <path d="M307.568-410.214a6.057 6.057 0 0 1-2.737 4.745l-141.074 81.447c-1.513.871-2.737.165-2.737-1.581v-108.334a6.053 6.053 0 0 1 2.737-4.745l141.073-81.446c1.511-.875 2.737-.166 2.737 1.58v108.334" transform="translate(-101.089 570.023)" style="fill:#76c5ef"/>
        <path d="M306.229-415.744 165-334.206v-97.518l141.229-81.537v97.517" transform="translate(-102.411 567.617)" style="fill:#ebf9fe"/>
        <path d="M304.846-512.464v95.645L165-336.08v1.874l141.229-81.538v-97.517l-1.383.8" transform="translate(-102.411 567.617)" style="fill:#fff"/>
        <path d="m328.68-478.99-56.3 32.5v-3.226l56.3-32.5v3.226" transform="translate(-138.077 557.306)" style="fill:#cfeef6"/>
        <path d="M312.956-470.363 225.041-419.6v-3.225l87.915-50.758v3.225" transform="translate(-122.353 554.441)" style="fill:#cfeef6"/>
        <path d="m312.956-461.736-87.915 50.758v-3.222l87.915-50.758v3.225" transform="translate(-122.353 551.575)" style="fill:#cfeef6"/>
        <path d="m312.956-453.109-87.915 50.758v-3.225l87.915-50.759v3.225" transform="translate(-122.353 548.71)" style="fill:#cfeef6"/>
        <path d="m312.956-444.482-87.915 50.757v-3.224l87.915-50.758v3.225" transform="translate(-122.353 545.845)" style="fill:#cfeef6"/>
        <path d="M312.956-435.855 225.041-385.1v-3.225l87.915-50.758v3.225" transform="translate(-122.353 542.979)" style="fill:#cfeef6"/>
        <path d="m328.68-418.6-56.3 32.5v-3.225l56.3-32.5v3.225" transform="translate(-138.077 537.249)" style="fill:#cfeef6"/>
        <path d="m312.956-409.974-87.915 50.757v-3.225l87.915-50.758v3.226" transform="translate(-122.353 534.384)" style="fill:#cfeef6"/>
        <path d="m312.956-401.348-87.915 50.758v-3.224l87.915-50.759v3.225" transform="translate(-122.353 531.519)" style="fill:#cfeef6"/>
        <path d="m312.956-392.72-87.915 50.758v-3.226l87.915-50.757v3.225" transform="translate(-122.353 528.653)" style="fill:#cfeef6"/>
        <path d="m312.956-384.094-87.915 50.759v-3.226l87.915-50.759v3.226" transform="translate(-122.353 525.788)" style="fill:#cfeef6"/>
        <path d="m267.2-335.911-42.158 24.34v-3.229l42.158-24.34v3.227" transform="translate(-122.353 509.785)" style="fill:#cfeef6"/>
        <path d="m515.782-307.009-75.643-43.671-14.621-103.051 14.622-8.356 75.642 43.672v111.406" transform="translate(-188.938 550.621)" style="fill:#244485"/>
        <path d="M512.179-306.883 499.49-300.4l-73.48-147.492 13.959-7.977 72.21 41.692v107.295" transform="translate(-189.102 548.556)" style="fill:#fff"/>
        <path d="m501.16-294.5-75.642-43.672v-111.404L501.16-405.9v111.4" transform="translate(-188.938 546.465)" style="fill:#3656a6"/>
        <path d="m490.259-292.246-75.644-43.671-14.621-103.051 14.622-8.356 75.644 43.672v111.406" transform="translate(-180.461 545.717)" style="fill:#4090cc"/>
        <path d="m486.659-292.12-12.689 6.483-73.482-147.493 13.959-7.977 72.211 41.692v107.295" transform="translate(-180.625 543.652)" style="fill:#fff"/>
        <path d="m475.636-279.734-75.642-43.672v-111.406l75.642 43.672v111.406" transform="translate(-180.461 541.562)" style="fill:#76c5ef"/>
        <path d="m427.987-348.471-27.993-16.161v-70.179l34.129 19.7c-3.153 3-5.771 6.289-6.531 9.393-2.273 9.316-1.456 30.9-1.456 30.9s.039.069.094.16c-1.127.866-5.155 4-6.131 5.419a1.592 1.592 0 0 0-.207.431 1.194 1.194 0 0 0 .6 1.427l.215.108.113.053.207.068.183.051.209.037c.077.013.155.025.236.032l.217.013h.282l.232-.009a5.742 5.742 0 0 0 .564-.068c.118-.019.239-.045.362-.073l.252-.058c.13-.034.268-.077.405-.121.086-.028.167-.053.256-.083.153-.053.312-.119.471-.183l.232-.094c.242-.1.489-.223.743-.358 4.237-2.236 5.14-2.825 5.964-3.3a1.362 1.362 0 0 0 .332-.264l.06-.066a1.011 1.011 0 0 0 .175-.313v-.019a1.445 1.445 0 0 0 .057-.373v-.079a4.575 4.575 0 0 0-.033-.537c.111-.046.186-.082.186-.082l3.567-31.6s4.826 7.926 8.873 7.926a2.83 2.83 0 0 0 1.074-.207c-.891 1.1-1.419 1.375-1.744 1.375a.545.545 0 0 1-.354-.133c-.082-.067-.134-.134-.174-.134-.086 0-.124.3-.291 1.507-1.315 9.5-1.339 30.166-1.339 30.166s.056.061.141.143c-1.378 1.067-4.974 3.906-5.887 5.23a1.53 1.53 0 0 0-.208.432 1.188 1.188 0 0 0 .6 1.426l.215.108.115.054.2.064-9.216 8.251m20.533-18.385c1.084-9.639 3.9-37.465 3.9-37.465l.218-.1 23 13.281-27.117 24.283" transform="translate(-180.461 541.562)" style="fill:#5daae2"/>
        <path d="m425.7-436.3-6.434-3.635v-13.685l3.216 4.568 3.217-2.117v14.869" transform="translate(-186.861 547.809)" style="fill:#eb2762"/>
        <g style="clip-path:url(#tqnn60a6lh)" transform="translate(91.208 253.917)">
            <path d="m307.857-153.971-18.353-.008L257-172.746l8.865-5.9v-.083l41.19 23.78 33.15-19.139 1.532.531-33.879 19.589m-65.825-27.415-34.18-19.734 33.269-13.338.84.484-4.971 2.87v15.7l14.079 8.128-9.037 5.887M373.8-192.1l-.845-.9 28.082-16.213-.577-.333 2.006.871-28.661 16.575" transform="translate(-207.851 214.458)" style="fill:url(#9nsdd9d3si)"/>
        </g>
        <g style="clip-path:url(#3w5gkn2l0j)" transform="translate(86.597 245.476)">
            <path d="m205.559-205.318-4.61-2.662L211-213.562a10.3 10.3 0 0 0 1.33.086 8.721 8.721 0 0 0 4.259-1.017l21.828-12.6v8.2l.411.238-33.269 13.338" transform="translate(-200.949 227.097)" style="fill:url(#r29gkck9cd)"/>
        </g>
        <path d="M217.328-214.319A10.312 10.312 0 0 1 216-214.4h.008a10.433 10.433 0 0 0 1.2.083v-.752l26.2-14.554v1.694l-21.828 12.6a8.721 8.721 0 0 1-4.259 1.017" transform="translate(-119.35 473.415)" style="fill:#66b4e7"/>
        <path d="M217.215-207.088a10.435 10.435 0 0 1-1.2-.083l1.2-.67v.753" transform="translate(-119.354 466.177)" style="fill:#3e91c7"/>
        <path d="m321.544-172.461-70.064-40.45v-15.7l93.992-38.563 70.06 40.45-93.988 54.265" transform="translate(-131.135 485.884)" style="fill:#244485"/>
        <path d="M347.205-274.734 256.7-232.739v14.282l66.579 38.44 93.988-54.266-70.06-40.45" transform="translate(-132.867 488.395)" style="fill:#e8e7e6"/>
        <path d="m347.205-280.2-15.005 6.964v44.967h-75.5v4.346l66.579 38.44 93.988-54.267-70.062-40.45" transform="translate(-132.868 490.21)" style="fill:#f7f7f7"/>
        <path d="m347.205-285.209-15.005 6.963v48.313h-75.5v1l66.579 38.44 93.988-54.266-70.06-40.45" transform="translate(-132.868 491.874)" style="fill:#fff"/>
        <path d="m321.544-195.972-70.064-40.45 93.992-54.265 70.06 40.449-93.988 54.267" transform="translate(-131.135 493.693)" style="fill:#3656a6"/>
        <path d="m323.616-202.021-66.566-38.433v-14.917l89.3-36.639 66.564 38.431-89.3 51.558" transform="translate(-132.984 494.132)" style="fill:#4090cc"/>
        <path d="m348-299.19-86 39.898v13.57l63.262 36.522 89.3-51.557L348-299.19" transform="translate(-134.63 496.517)" style="fill:#e8e7e6"/>
        <path d="m348-304.382-14.256 6.615v42.723H262v4.129l63.257 36.521 89.3-51.557L348-304.382" transform="translate(-134.63 498.242)" style="fill:#f7f7f7"/>
        <path d="m348-309.142-14.256 6.615v45.9H262v.952l63.257 36.52 89.3-51.557L348-309.142" transform="translate(-134.63 499.823)" style="fill:#fff"/>
        <path d="M323.616-224.359 257.05-262.79l89.3-51.557 66.564 38.43-89.3 51.558" transform="translate(-132.984 501.551)" style="fill:#76c5ef"/>
        <path d="M325.828-228.128 262.2-264.865v-14.259l85.359-35.021 63.628 36.734-85.358 49.282" transform="translate(-134.694 501.484)" style="fill:#eb2762"/>
        <path d="m349.131-321.01-82.194 38.138v12.972l60.465 34.91 85.358-49.284-63.629-36.736" transform="translate(-136.268 503.764)" style="fill:#e8e7e6"/>
        <path d="m349.131-325.973-13.631 6.324v40.838h-68.563v3.947l60.465 34.91 85.358-49.283-63.628-36.734" transform="translate(-136.268 505.413)" style="fill:#f7f7f7"/>
        <path d="M349.131-330.523 335.5-324.2v43.876h-68.563v.909L327.4-244.5l85.358-49.282-63.628-36.736" transform="translate(-136.268 506.924)" style="fill:#fff"/>
        <path d="M325.828-249.48 262.2-286.216l85.357-49.284 63.628 36.734-85.357 49.286" transform="translate(-134.694 508.576)" style="fill:#f25282"/>
        <g style="clip-path:url(#stgllo4t2k)" transform="translate(168.391 198.023)">
            <path d="m323.419-297.418 1.267-.731-1.267.731" transform="translate(-323.419 298.149)" style="fill:url(#ncus9arknb)"/>
        </g>
        <path d="m296.085-286.514 18.256-10.54-18.256 10.54" transform="translate(-145.949 495.808)" style="fill:#8a76ad"/>
        <path d="m262.2-268.206 22.632-13.067-22.632 13.067" transform="translate(-134.694 490.566)" style="fill:#385f9e"/>
        <path d="M312.721-244.643 262.2-273.811l22.632-13.067 18.256-10.54 1.267-.731-4.048 2.337 7.018-.623 47.55 27.455-42.152 24.336" transform="translate(-134.694 496.171)" style="fill:#ef2954"/>
        <g style="clip-path:url(#9a9pq7y4jl)" transform="translate(212.863 173.078)">
            <path d="m396.677-331.647-6.67-3.85 6.67 3.85" transform="translate(-390.007 335.498)" style="fill:url(#9m5sjupq7m)"/>
        </g>
        <path d="M441.907-305.534" transform="translate(-194.382 498.625)" style="fill:#4f6aae"/>
        <path d="m427.986-313.571-27.992-16.161 27.993 16.161" transform="translate(-180.461 506.661)" style="fill:#3f5b9e"/>
        <path d="m328.286-308.839-2.97-1.714 43.2-24.944 6.67 3.85 27.992 16.161-74.9 6.647" transform="translate(-155.658 508.576)" style="fill:#ef2954"/>
        <path d="m319.255-295.811 4.048-2.337 2.97 1.714-7.018.623" transform="translate(-153.645 496.171)" style="fill:#e01c39"/>
        <g style="clip-path:url(#9h0p4qtzln)" transform="translate(266.657 60.58)">
            <path d="m500.2-449.95-29.644-17.114c2.349-3.533 1.312-11.2 6.44-17.824.159-.221.33-.42.5-.623.08-.1.146-.194.23-.289l.052-.056c.133-.143.27-.27.4-.4-.272-1.145-.569-2.4-.923-3.76a33.811 33.811 0 0 1-.723-3.577h-.009.009c-.029-.2-.053-.392-.077-.584-.153.013-.31.021-.471.021a4.173 4.173 0 0 1-1.549-.282c1.256-.541 1.069-1.371 1.069-1.371s-2.479-4.915.694-7.818a1.248 1.248 0 0 1 .876-.307c4.5 0 18.084 16.008 17.384 16.158a8.674 8.674 0 0 1 .054 1.622c3.166 1.991.515 24.26 2.717 27.472a33.747 33.747 0 0 1 2.972 8.74" transform="translate(-470.553 503.943)" style="fill:url(#oyhhez41je)"/>
        </g>
        <path d="m491.095-429.984-32.983-19.042a34.944 34.944 0 0 0 2.143-1.655 4.42 4.42 0 0 0 .852-.961l29.644 17.114a20.417 20.417 0 0 1 .343 4.543m-48.884-24.653-.1-2.869 1.18 2.25-1.084.619" transform="translate(-194.45 549.1)" style="fill:#233d73"/>
        <path d="M485.62-419.573 442.436-444.5l-.322-8.234.128.173-.032-.952 1.084-.619 5.283 10.07 4.577-1.067a24.877 24.877 0 0 0 4.958-2.772l32.983 19.042c-.167 3.617-1.554 7.129-5.475 9.291" transform="translate(-194.45 547.98)" style="fill:#e4e4e3"/>
        <path d="m482.6-413.453-41.368-23.884a1.448 1.448 0 0 1 .973-.714l-.065-1.664 43.184 24.932-.07.038c-.438.238-1.393.7-2.654 1.292" transform="translate(-194.159 543.19)" style="fill:#304e93"/>
        <path d="m478.022-410.336-30.041-17.345-.23-1.694c-.078-.026-1.643-.147-3.174-.272l-4.469-2.58a5.676 5.676 0 0 1 .724-3.927L482.2-412.27a504.544 504.544 0 0 1-4.179 1.933" transform="translate(-193.755 542.007)" style="fill:#377eb5"/>
        <path d="M465.972-402.913 447.46-413.6c.314-.3.635-.6.958-.89l.266-6.356-.661-4.881 30.042 17.345a1866.438 1866.438 0 0 1-12.094 5.47m-21.351-24.78c-1.46-.119-2.891-.242-2.972-.289a3.21 3.21 0 0 1-1.5-2.29l4.469 2.58" transform="translate(-193.799 540.054)" style="fill:#e4e4e3"/>
        <path d="M456.762-322.789h-.2l-.217-.012a4.266 4.266 0 0 1-.238-.033l-.209-.038-.183-.051h-.006l11.317-10.134c-.225 2-.375 3.213-.411 3.24a.549.549 0 0 1 .218.336 9.914 9.914 0 0 1 .121 1.24v.078a1.57 1.57 0 0 1-.057.374l-.005.018a1.029 1.029 0 0 1-.174.314l-.06.066a1.4 1.4 0 0 1-.334.263c-.825.472-1.725 1.06-5.962 3.3-.254.134-.5.252-.744.36l-.232.092a7.358 7.358 0 0 1-.471.184c-.087.032-.171.056-.256.082-.138.044-.273.087-.4.122-.089.022-.171.038-.254.059a5.524 5.524 0 0 1-.363.071c-.083.016-.161.025-.241.035a4.279 4.279 0 0 1-.323.034l-.23.01h-.078" transform="translate(-198.965 507.768)" style="fill:#60afe4"/>
        <path d="m447.067-346.925-.2-.064-.115-.054-.216-.108a1.188 1.188 0 0 1-.6-1.426 1.54 1.54 0 0 1 .208-.432c.913-1.323 4.508-4.163 5.887-5.23-.085-.082-.141-.142-.141-.142s.024-20.667 1.339-30.166c.167-1.211.2-1.507.291-1.507.04 0 .092.067.174.133a.545.545 0 0 0 .354.133c.326 0 .854-.273 1.744-1.375a2.829 2.829 0 0 1-1.074.207c-4.047 0-8.873-7.926-8.873-7.926l-3.567 31.6s-.075.036-.186.082a4.568 4.568 0 0 1 .033.537v.079a1.449 1.449 0 0 1-.057.373v.019a1.014 1.014 0 0 1-.175.313l-.06.066a1.359 1.359 0 0 1-.332.264c-.824.471-1.727 1.06-5.964 3.3-.254.134-.5.253-.743.358l-.232.094c-.159.064-.318.13-.471.184-.089.03-.17.055-.256.083a7.858 7.858 0 0 1-.405.121l-.252.058a5.953 5.953 0 0 1-.362.073c-.083.015-.163.025-.243.035-.11.014-.217.026-.321.033l-.232.009h-.283l-.217-.013a2.917 2.917 0 0 1-.236-.032l-.209-.037-.183-.051-.207-.068-.113-.053-.216-.108a1.194 1.194 0 0 1-.6-1.427 1.6 1.6 0 0 1 .207-.431c.976-1.414 5-4.553 6.131-5.419l-.095-.16s-.817-21.588 1.456-30.9c.759-3.1 3.377-6.389 6.531-9.393l18.514 10.671-.218.1s-2.813 27.827-3.9 37.465l-11.317 10.134" transform="translate(-190.327 531.763)" style="fill:#4e96d4"/>
        <path d="M461.634-492.139s.093-.9 2.533 4.512-3.419 22.714-4.81 24.613-18.829 7.24-22.663 1.32c2.394-1.229.082-3 .552-5.764 7.122 2.492 14.193-3.179 16.371-4.985 3.63-3.008 1.443-12.2 8.018-19.7" transform="translate(-192.65 560.621)" style="fill:#cceefa"/>
        <path d="M429.149-360.412s-5.3 4-6.433 5.65 1.334 3.413 5.57 1.176 5.14-2.825 5.964-3.295.666-1.138.509-2.354-5.611-1.177-5.611-1.177" transform="translate(-187.916 516.851)" style="fill:#fff"/>
        <path d="M434.255-356.67c-.824.47-1.728 1.059-5.964 3.295-3.184 1.68-5.369 1.1-5.777.012-.476 1.494 1.91 2.787 5.777.746 4.237-2.236 5.14-2.825 5.964-3.295.63-.361.685-.836.6-1.583a1.1 1.1 0 0 1-.6.825" transform="translate(-187.92 515.882)" style="fill:#454547"/>
        <path d="M477.55-436.71s-.194 11.966-10.765 14.568a130.646 130.646 0 0 0-21.744 7.987l-6.941 30.117a5.464 5.464 0 0 1-2.983.477 4.548 4.548 0 0 1-3.3-2.2s-.817-21.588 1.456-30.9 21.3-20.288 21.3-20.288l22.968.247" transform="translate(-190.984 542.274)" style="fill:#1f2f58"/>
        <path d="M453.38-344.807s-5.3 4-6.434 5.649 1.333 3.413 5.571 1.177 5.138-2.825 5.963-3.3.668-1.138.509-2.354-5.609-1.177-5.609-1.177" transform="translate(-195.963 511.668)" style="fill:#fff"/>
        <path d="M458.484-341.064c-.825.47-1.726 1.059-5.963 3.295-3.185 1.679-5.371 1.1-5.779.012-.477 1.493 1.912 2.788 5.779.746 4.237-2.236 5.138-2.825 5.963-3.3.63-.361.685-.835.606-1.583a1.1 1.1 0 0 1-.606.826" transform="translate(-195.968 510.699)" style="fill:#454547"/>
        <path d="M495.265-426s1.021 11.924-9.232 15.587a130.669 130.669 0 0 0-20.819 10.153l-3.847 29.051a4.28 4.28 0 0 1-3.08 1.138 4.615 4.615 0 0 1-3.325-1.425s-2.379-21.99-1.065-31.489 15.73-20.677 15.73-20.677L495.265-426" transform="translate(-198.233 538.636)" style="fill:#223e73"/>
        <path d="M463.724-455.814s-1.142-35.75 9.765-39.927 20.9 5.761 25.16 15.387 3.14 26.38 0 32.6c-14.96 10.3-35.351-3.119-34.925-8.063" transform="translate(-201.617 562.123)" style="fill:#ebf9fe"/>
        <path d="M503.009-480.354c-4.263-9.625-14.254-19.562-25.16-15.387a6.393 6.393 0 0 0-1.033.515c8.03 1.019 14.859 8.731 18.191 16.252 4.261 9.625 3.137 26.381 0 32.6a21.173 21.173 0 0 1-4.619 2.4 21.741 21.741 0 0 0 12.621-3.778c3.14-6.223 4.262-22.977 0-32.6" transform="translate(-205.976 562.123)" style="fill:#fff"/>
        <g style="clip-path:url(#n5mi9etd0o)" transform="translate(267.502 50.043)">
            <path d="M473.116-519.316s-2.721 4.358-.281 13.815c1.98 7.662 2.275 11.9 5.473 12.225s12.775-2.014 11.729-9.99c.954-.2 2.9-3.855 1.365-6.756s-2.617.269-2.617.269.062-6.323-4.407-8.628-11.262-.935-11.262-.935" transform="translate(-471.819 519.72)" style="fill:url(#gnz5t4b25f)"/>
        </g>
        <path d="M481.633-513.693c-.017-.366-3.412 4.479-8.868 2.914a3.358 3.358 0 0 0 2.31-1.89 4.823 4.823 0 0 1-4.963 1.614 7.215 7.215 0 0 0 1.984-1.149 5.407 5.407 0 0 1-4.071.3c1.256-.542 1.068-1.37 1.068-1.37s-1.111 1.111-3.27-.772c.879-.112.792-4.143 3.963-7.046s5.748-3.579 10-2.863a3.924 3.924 0 0 0-3.644-1.439c1.7-.947 5.286.752 6.346 2.321 3.3-1.266 9.518.93 7.465 12.953-.033-.3-.317-2.257-1.482-2.628s-2.148 1.923-1.882 2.5a25.967 25.967 0 0 1 .391 4.01l-1.506.79s.467-2.982-.607-3.88-3.028.214-3.233-4.368" transform="translate(-202.325 571.738)" style="fill:#1f2f58"/>
        <path d="m434.868-467.378 6.463 8.671 20.877-4.866-1.2 26.984-18.989-.231-6.253-7.609-.9-22.949" transform="translate(-192.044 552.378)" style="fill:#fff"/>
        <path d="m434.868-472.84 6.463 12.319.689 21.887-6.253-7.609-.9-26.6" transform="translate(-192.044 554.192)" style="fill:#ebf9fe"/>
        <g style="clip-path:url(#pgdlykzfcp)" transform="translate(260.633 100.127)">
            <path d="M475.327-441.435s-.642.988-2 0-1.874-2.668-2.715-3.293c-.1 2.153-.005 3.659-2.673 3.609s-4.392-.417-5.91-.311.292 6.81 8.1 6.962c4.3-.266 6.131-2.672 6.131-2.672l-.925-4.295" transform="translate(-461.534 444.728)" style="fill:url(#6plipuh0xc)"/>
        </g>
        <g style="clip-path:url(#b8zw2hrq5q)" transform="translate(241.427 94.899)">
            <path d="M434.562-452.556s1.435 2.936 2.323 3.273.2 5.228-2.526 3.659-1.442-6.777.2-6.932" transform="translate(-432.776 452.556)" style="fill:url(#v5fg97gjjr)"/>
        </g>
        <path d="M495.844-476.434s.46-7.35 5.628-4.422 10.662 20.346 10.662 22.7-23.955 14.019-30.546 11.509a9.256 9.256 0 0 0-.052-8.056c7.218-2.2 16.476-5.021 18.045-7.375s-4.613-4.427-3.736-14.355" transform="translate(-207.543 557.084)" style="fill:#cceefa"/>
        <path d="m229.823-117-107.966-62.33v-4.07l143.1 42.055v4.072L229.823-117" transform="translate(-88.082 458.061)" style="fill:#76c5ef"/>
        <path d="m229.823-117-107.966-62.33v-4.07l107.971 61.93v4.073l-.005.405" transform="translate(-88.082 458.061)" style="fill:#57b2e7"/>
        <path d="m229.823-131.153-107.966-62.335 35.129-20.279 107.968 62.334-35.131 20.281" transform="translate(-88.082 468.146)" style="fill:#a4e2f9"/>
        <path d="m175.611-199.161-7.119-4.11v-.87l11.708 1.46v.871l-4.59 2.649" transform="translate(-103.572 464.948)" style="fill:#4ba7c7"/>
        <path d="m175.611-201.35-7.119-4.109 4.591-2.649L180.2-204l-4.59 2.649" transform="translate(-103.572 466.266)" style="fill:#bce9f1"/>
        <path d="m187.017-192.564-7.118-4.111v-.871l11.71 1.46v.871l-4.592 2.651" transform="translate(-107.36 462.758)" style="fill:#4ba7c7"/>
        <path d="m187.017-194.753-7.118-4.11 4.591-2.649 7.119 4.11-4.592 2.65" transform="translate(-107.36 464.075)" style="fill:#bce9f1"/>
        <path d="m198.428-185.97-7.12-4.11v-.872l11.71 1.46v.871l-4.59 2.65" transform="translate(-111.149 460.568)" style="fill:#4ba7c7"/>
        <path d="m198.428-188.159-7.12-4.11 4.591-2.649 7.119 4.11-4.59 2.649" transform="translate(-111.149 461.885)" style="fill:#bce9f1"/>
        <path d="m209.833-179.373-7.119-4.112v-.869l11.71 1.459v.871l-4.591 2.652" transform="translate(-114.938 458.376)" style="fill:#4ba7c7"/>
        <path d="m209.833-181.562-7.119-4.11 4.591-2.65 7.119 4.109-4.591 2.652" transform="translate(-114.938 459.694)" style="fill:#bce9f1"/>
        <path d="m221.241-172.78-7.118-4.109v-.871l11.709 1.46v.871l-4.59 2.648" transform="translate(-118.727 456.186)" style="fill:#4ba7c7"/>
        <path d="m221.241-174.969-7.118-4.109 4.59-2.65 7.119 4.111-4.59 2.648" transform="translate(-118.727 457.504)" style="fill:#bce9f1"/>
        <path d="m232.648-166.184-7.119-4.111v-.872l11.709 1.461v.871l-4.59 2.65" transform="translate(-122.515 453.996)" style="fill:#4ba7c7"/>
        <path d="m232.648-168.374-7.119-4.11 4.591-2.649 7.118 4.11-4.59 2.648" transform="translate(-122.515 455.314)" style="fill:#bce9f1"/>
        <path d="m244.055-159.588-7.117-4.108v-.873l11.71 1.46v.871l-4.593 2.65" transform="translate(-126.305 451.805)" style="fill:#4ba7c7"/>
        <path d="m244.055-161.775-7.117-4.112 4.59-2.65 7.119 4.11-4.593 2.653" transform="translate(-126.305 453.123)" style="fill:#bce9f1"/>
        <path d="m255.461-152.995-7.119-4.109v-.871l11.713 1.46v.871l-4.593 2.648" transform="translate(-130.092 449.615)" style="fill:#4ba7c7"/>
        <path d="m255.461-155.182-7.119-4.11 4.593-2.649 7.12 4.11-4.593 2.649" transform="translate(-130.092 450.932)" style="fill:#bce9f1"/>
        <path d="m266.87-146.4-7.118-4.109v-.871l11.71 1.458v.871l-4.592 2.651" transform="translate(-133.882 447.423)" style="fill:#4ba7c7"/>
        <path d="m266.87-148.586-7.118-4.109 4.589-2.652 7.12 4.11-4.592 2.651" transform="translate(-133.882 448.742)" style="fill:#bce9f1"/>
        <path d="m278.278-139.8-7.118-4.111v-.873l11.712 1.46v.87l-4.593 2.654" transform="translate(-137.671 445.234)" style="fill:#4ba7c7"/>
        <path d="m278.278-141.991-7.118-4.111 4.59-2.651 7.122 4.111-4.593 2.651" transform="translate(-137.671 446.552)" style="fill:#bce9f1"/>
        <path d="m289.684-133.208-7.119-4.109v-.871l11.712 1.459v.873l-4.592 2.648" transform="translate(-141.459 443.043)" style="fill:#4ba7c7"/>
        <path d="m289.684-135.4-7.119-4.11 4.592-2.65 7.119 4.109-4.592 2.652" transform="translate(-141.459 444.361)" style="fill:#bce9f1"/>
        <path d="m301.092-126.611-7.119-4.108v-.871l11.71 1.46v.871l-4.591 2.649" transform="translate(-145.248 440.852)" style="fill:#4ba7c7"/>
        <path d="m301.092-128.8-7.119-4.109 4.592-2.651 7.118 4.111-4.591 2.65" transform="translate(-145.248 442.17)" style="fill:#bce9f1"/>
        <path d="m312.5-120.013-7.119-4.112v-.869l11.709 1.459v.87l-4.59 2.653" transform="translate(-149.037 438.661)" style="fill:#4ba7c7"/>
        <path d="m312.5-122.2-7.119-4.11 4.59-2.652 7.119 4.11-4.59 2.652" transform="translate(-149.037 439.98)" style="fill:#bce9f1"/>
        <path d="m170.868-191.555-11.268-6.593v-.872l15.853 3.943v.871l-4.59 2.65" transform="translate(-100.62 463.247)" style="fill:#4ba7c7"/>
        <path d="m170.868-193.744-11.268-6.593 4.591-2.649 11.262 6.592-4.59 2.65" transform="translate(-100.62 464.565)" style="fill:#bce9f1"/>
        <path d="m184.336-183.726-7.119-4.11v-.871l11.708 1.459v.872l-4.589 2.65" transform="translate(-106.469 459.822)" style="fill:#4ba7c7"/>
        <path d="m184.336-185.915-7.119-4.11 4.591-2.649 7.117 4.109-4.589 2.65" transform="translate(-106.469 461.14)" style="fill:#bce9f1"/>
        <path d="m195.74-177.13-7.119-4.109v-.872l11.712 1.46v.868l-4.592 2.652" transform="translate(-110.257 457.631)" style="fill:#4ba7c7"/>
        <path d="m195.74-179.319-7.119-4.11 4.594-2.652 7.118 4.112-4.592 2.649" transform="translate(-110.257 458.95)" style="fill:#bce9f1"/>
        <path d="m207.147-170.535-7.116-4.11v-.873l11.71 1.46v.872l-4.594 2.651" transform="translate(-114.047 455.442)" style="fill:#4ba7c7"/>
        <path d="m207.147-172.725-7.116-4.11 4.591-2.648 7.119 4.109-4.594 2.65" transform="translate(-114.047 456.759)" style="fill:#bce9f1"/>
        <path d="m218.558-163.941-7.117-4.109v-.87l11.709 1.46v.872l-4.592 2.647" transform="translate(-117.836 453.25)" style="fill:#4ba7c7"/>
        <path d="m218.558-166.13-7.117-4.109 4.589-2.652 7.12 4.111-4.592 2.649" transform="translate(-117.836 454.569)" style="fill:#bce9f1"/>
        <path d="m229.965-157.345-7.12-4.11v-.871l11.712 1.461v.87l-4.591 2.65" transform="translate(-121.624 451.06)" style="fill:#4ba7c7"/>
        <path d="m229.965-159.535-7.12-4.11 4.591-2.651 7.12 4.112-4.591 2.648" transform="translate(-121.624 452.378)" style="fill:#bce9f1"/>
        <path d="m241.373-150.749-7.12-4.11v-.872l11.71 1.461v.871l-4.59 2.65" transform="translate(-125.413 448.87)" style="fill:#4ba7c7"/>
        <path d="m241.373-152.936-7.12-4.113 4.592-2.649 7.118 4.111-4.59 2.652" transform="translate(-125.413 450.187)" style="fill:#bce9f1"/>
        <path d="m252.78-144.155-7.12-4.11v-.873l11.712 1.462v.871l-4.591 2.649" transform="translate(-129.201 446.679)" style="fill:#4ba7c7"/>
        <path d="m252.78-146.343-7.12-4.11 4.593-2.648 7.118 4.11-4.591 2.648" transform="translate(-129.201 447.996)" style="fill:#bce9f1"/>
        <path d="m264.188-137.558-7.119-4.111v-.87l11.71 1.458v.874l-4.59 2.65" transform="translate(-132.991 444.488)" style="fill:#4ba7c7"/>
        <path d="m264.188-139.748-7.119-4.11 4.591-2.651 7.119 4.109-4.59 2.653" transform="translate(-132.991 445.807)" style="fill:#bce9f1"/>
        <path d="m275.6-130.96-7.118-4.111v-.869l11.71 1.459v.87l-4.592 2.651" transform="translate(-136.78 442.297)" style="fill:#4ba7c7"/>
        <path d="m275.6-133.151-7.118-4.109 4.591-2.652 7.118 4.11-4.591 2.65" transform="translate(-136.78 443.615)" style="fill:#bce9f1"/>
        <path d="m287-124.369-7.118-4.111v-.871l11.709 1.46v.872l-4.591 2.65" transform="translate(-140.569 440.108)" style="fill:#4ba7c7"/>
        <path d="m287-126.556-7.118-4.111 4.589-2.649 7.12 4.109-4.591 2.651" transform="translate(-140.569 441.425)" style="fill:#bce9f1"/>
        <path d="m301.853-115.747-10.565-6.134v-.871l15.156 3.484v.868l-4.591 2.653" transform="translate(-144.356 437.916)" style="fill:#4ba7c7"/>
        <path d="m301.853-117.939-10.565-6.132 4.592-2.652 10.564 6.136-4.591 2.648" transform="translate(-144.356 439.235)" style="fill:#bce9f1"/>
        <path d="m159.055-187.994-8.469-4.936v-.868l12.453 1.928v.87l-3.984 3.005" transform="translate(-97.624 461.513)" style="fill:#4ba7c7"/>
        <path d="m159.317-190.038-8.73-5.078 4.59-2.652 8.731 5.081-4.59 2.649" transform="translate(-97.624 462.832)" style="fill:#bce9f1"/>
        <path d="m170.222-181.523-7.117-4.109v-.872l11.711 1.46v.871l-4.594 2.649" transform="translate(-101.782 459.09)" style="fill:#4ba7c7"/>
        <path d="m170.222-183.712-7.117-4.11 4.59-2.651 7.121 4.111-4.594 2.649" transform="translate(-101.782 460.408)" style="fill:#bce9f1"/>
        <path d="m181.631-174.927-7.12-4.11v-.873l11.713 1.46v.871l-4.592 2.651" transform="translate(-105.57 456.9)" style="fill:#4ba7c7"/>
        <path d="m181.631-177.116-7.12-4.11 4.592-2.649 7.12 4.11-4.592 2.65" transform="translate(-105.57 458.217)" style="fill:#bce9f1"/>
        <path d="m193.04-168.332-7.12-4.109v-.868l11.71 1.457v.872l-4.59 2.648" transform="translate(-109.36 454.708)" style="fill:#4ba7c7"/>
        <path d="m193.04-170.519-7.12-4.11 4.591-2.654 7.119 4.11-4.59 2.653" transform="translate(-109.36 456.027)" style="fill:#bce9f1"/>
        <path d="m204.445-161.733-7.117-4.113v-.869l11.708 1.459v.871l-4.591 2.653" transform="translate(-113.149 452.518)" style="fill:#4ba7c7"/>
        <path d="m204.445-163.925-7.117-4.109 4.591-2.651 7.117 4.11-4.591 2.65" transform="translate(-113.149 453.836)" style="fill:#bce9f1"/>
        <path d="m215.852-155.14-7.118-4.111v-.869l11.712 1.46v.869l-4.594 2.65" transform="translate(-116.937 450.327)" style="fill:#4ba7c7"/>
        <path d="m215.852-157.328-7.118-4.11 4.592-2.651 7.119 4.111-4.594 2.649" transform="translate(-116.937 451.646)" style="fill:#bce9f1"/>
        <path d="m227.262-148.545-7.119-4.11v-.873l11.711 1.46v.87l-4.591 2.652" transform="translate(-120.726 448.138)" style="fill:#4ba7c7"/>
        <path d="m227.262-150.735-7.119-4.111 4.59-2.65 7.12 4.111-4.591 2.65" transform="translate(-120.726 449.456)" style="fill:#bce9f1"/>
        <path d="m238.67-141.948-7.121-4.11v-.871l11.709 1.459v.872l-4.588 2.65" transform="translate(-124.515 445.946)" style="fill:#4ba7c7"/>
        <path d="m238.67-144.137-7.121-4.11 4.592-2.652 7.117 4.11-4.588 2.652" transform="translate(-124.515 447.265)" style="fill:#bce9f1"/>
        <path d="m250.076-135.352-7.122-4.111v-.873l11.713 1.459v.877l-4.59 2.651" transform="translate(-128.303 443.756)" style="fill:#4ba7c7"/>
        <path d="m250.076-137.544-7.122-4.11 4.593-2.65 7.12 4.109-4.591 2.651" transform="translate(-128.303 445.074)" style="fill:#bce9f1"/>
        <path d="m261.485-128.758-7.118-4.111v-.872l11.71 1.46v.871l-4.592 2.652" transform="translate(-132.093 441.566)" style="fill:#4ba7c7"/>
        <path d="m261.485-130.945-7.118-4.112 4.59-2.647 7.12 4.108-4.592 2.652" transform="translate(-132.093 442.883)" style="fill:#bce9f1"/>
        <path d="m272.891-122.163-7.118-4.108v-.871l11.709 1.46v.872l-4.59 2.648" transform="translate(-135.882 439.374)" style="fill:#4ba7c7"/>
        <path d="m272.891-124.351-7.118-4.109 4.59-2.65 7.118 4.11-4.59 2.65" transform="translate(-135.882 440.692)" style="fill:#bce9f1"/>
        <path d="m284.3-115.567-7.118-4.114v-.868l11.71 1.46v.869l-4.592 2.653" transform="translate(-139.671 437.185)" style="fill:#4ba7c7"/>
        <path d="m284.3-117.755-7.118-4.112 4.591-2.65 7.118 4.109-4.592 2.652" transform="translate(-139.671 438.502)" style="fill:#bce9f1"/>
        <path d="m294.931-109.424-6.345-3.659v-.869l10.934 1.007v.872l-4.59 2.649" transform="translate(-143.459 434.993)" style="fill:#4ba7c7"/>
        <path d="m294.931-111.611-6.345-3.659 4.591-2.651 6.343 3.658-4.59 2.652" transform="translate(-143.459 436.312)" style="fill:#bce9f1"/>
        <path d="m153.636-180.716-12.136-7v-.874l16.729 4.351v.867l-4.592 2.653" transform="translate(-94.606 459.782)" style="fill:#4ba7c7"/>
        <path d="m153.636-182.9-12.136-7 4.59-2.649 12.138 7-4.592 2.652" transform="translate(-94.606 461.1)" style="fill:#bce9f1"/>
        <path d="m167.54-172.683-7.119-4.11v-.871l11.709 1.46v.87l-4.59 2.65" transform="translate(-100.891 456.154)" style="fill:#4ba7c7"/>
        <path d="m167.54-174.873-7.119-4.109 4.592-2.65 7.117 4.11-4.59 2.648" transform="translate(-100.891 457.472)" style="fill:#bce9f1"/>
        <path d="m178.949-166.089-7.12-4.11v-.872l11.71 1.46v.872l-4.59 2.65" transform="translate(-104.68 453.965)" style="fill:#4ba7c7"/>
        <path d="m178.949-168.277-7.12-4.111 4.591-2.648 7.119 4.109-4.59 2.651" transform="translate(-104.68 455.282)" style="fill:#bce9f1"/>
        <path d="m190.354-159.491-7.12-4.11v-.873l11.711 1.46v.872l-4.59 2.651" transform="translate(-108.468 451.773)" style="fill:#4ba7c7"/>
        <path d="m190.354-161.682-7.12-4.11 4.592-2.652 7.119 4.111-4.59 2.65" transform="translate(-108.468 453.092)" style="fill:#bce9f1"/>
        <path d="m201.762-152.9-7.119-4.112v-.87l11.71 1.46v.871l-4.591 2.651" transform="translate(-112.257 449.583)" style="fill:#4ba7c7"/>
        <path d="m201.762-155.087-7.119-4.111 4.59-2.65 7.119 4.11-4.591 2.65" transform="translate(-112.257 450.901)" style="fill:#bce9f1"/>
        <path d="m213.171-146.3-7.119-4.109v-.875l11.711 1.461v.871l-4.591 2.652" transform="translate(-116.046 447.393)" style="fill:#4ba7c7"/>
        <path d="m213.171-148.491-7.119-4.112 4.59-2.647 7.12 4.109-4.591 2.651" transform="translate(-116.046 448.71)" style="fill:#bce9f1"/>
        <path d="m224.578-139.706-7.12-4.11v-.869l11.709 1.46v.871l-4.589 2.648" transform="translate(-119.835 445.201)" style="fill:#4ba7c7"/>
        <path d="m224.578-141.9-7.12-4.1 4.591-2.652 7.118 4.111-4.589 2.649" transform="translate(-119.835 446.52)" style="fill:#bce9f1"/>
        <path d="m235.984-133.111-7.117-4.11v-.869l11.709 1.458v.873l-4.592 2.649" transform="translate(-123.624 443.011)" style="fill:#4ba7c7"/>
        <path d="m235.984-135.3-7.117-4.11 4.591-2.653 7.118 4.11-4.592 2.652" transform="translate(-123.624 444.33)" style="fill:#bce9f1"/>
        <path d="m247.393-126.516-7.119-4.11v-.869l11.71 1.46v.869l-4.59 2.65" transform="translate(-127.412 440.82)" style="fill:#4ba7c7"/>
        <path d="m247.393-128.7-7.119-4.11 4.591-2.651 7.118 4.111-4.59 2.65" transform="translate(-127.412 442.139)" style="fill:#bce9f1"/>
        <path d="m258.8-119.919-7.119-4.111v-.872l11.71 1.46v.87l-4.591 2.653" transform="translate(-131.201 438.63)" style="fill:#4ba7c7"/>
        <path d="m258.8-122.111-7.119-4.11 4.591-2.65 7.119 4.11-4.591 2.649" transform="translate(-131.201 439.948)" style="fill:#bce9f1"/>
        <path d="m270.206-113.324-7.12-4.109v-.871l11.712 1.458v.872l-4.591 2.65" transform="translate(-134.989 436.439)" style="fill:#4ba7c7"/>
        <path d="m270.206-115.513-7.12-4.11 4.593-2.652 7.118 4.11-4.591 2.652" transform="translate(-134.989 437.757)" style="fill:#bce9f1"/>
        <path d="m284.3-105.258-9.8-5.58v-.872l14.391 2.933v.871l-4.59 2.649" transform="translate(-138.78 434.249)" style="fill:#4ba7c7"/>
        <path d="m284.3-107.445-9.8-5.584 4.59-2.651 9.8 5.584-4.59 2.651" transform="translate(-138.78 435.567)" style="fill:#bce9f1"/>
        <path d="m141.268-177.548-8.627-5.056v-.87l13.222 2.406v.871l-4.595 2.649" transform="translate(-91.664 458.084)" style="fill:#4ba7c7"/>
        <path d="m141.268-179.735-8.627-5.057 4.591-2.65 8.632 5.056-4.595 2.651" transform="translate(-91.664 459.402)" style="fill:#bce9f1"/>
        <path d="m153.43-170.478-7.119-4.111v-.869L158.022-174v.87l-4.592 2.653" transform="translate(-96.204 455.422)" style="fill:#4ba7c7"/>
        <path d="m153.43-172.668-7.119-4.11 4.591-2.653 7.12 4.111-4.592 2.652" transform="translate(-96.204 456.741)" style="fill:#bce9f1"/>
        <path d="m164.838-163.886-7.119-4.108v-.868l11.709 1.457v.872l-4.59 2.647" transform="translate(-99.993 453.231)" style="fill:#4ba7c7"/>
        <path d="m164.838-166.073-7.119-4.109 4.591-2.653 7.118 4.11-4.59 2.652" transform="translate(-99.993 454.55)" style="fill:#bce9f1"/>
        <path d="M214.192-135.285 169.126-161.4v-.871l49.655 23.463v.87l-4.59 2.651" transform="translate(-103.782 451.041)" style="fill:#4ba7c7"/>
        <path d="m214.192-137.475-45.066-26.113 4.591-2.652 45.064 26.115-4.59 2.65" transform="translate(-103.782 452.36)" style="fill:#bce9f1"/>
        <path d="m244.688-117.716-7.118-4.109v-.871l11.709 1.459v.872l-4.59 2.648" transform="translate(-126.514 437.897)" style="fill:#4ba7c7"/>
        <path d="m244.688-119.9-7.118-4.11 4.591-2.651 7.118 4.11-4.59 2.65" transform="translate(-126.514 439.216)" style="fill:#bce9f1"/>
        <path d="m256.1-111.118-7.119-4.113v-.87l11.711 1.46v.871l-4.592 2.653" transform="translate(-130.303 435.707)" style="fill:#4ba7c7"/>
        <path d="m256.1-113.31-7.119-4.11 4.591-2.651 7.119 4.11-4.592 2.65" transform="translate(-130.303 437.026)" style="fill:#bce9f1"/>
        <path d="m267.5-104.526-7.118-4.109v-.872l11.71 1.461v.871l-4.591 2.649" transform="translate(-134.092 433.517)" style="fill:#4ba7c7"/>
        <path d="m267.5-106.712-7.118-4.112 4.59-2.649 7.12 4.11-4.591 2.651" transform="translate(-134.092 434.834)" style="fill:#bce9f1"/>
        <path d="m277.426-98.814-5.635-3.227v-.871l10.225.576v.871l-4.59 2.651" transform="translate(-137.881 431.327)" style="fill:#4ba7c7"/>
        <path d="m277.426-101-5.635-3.226 4.591-2.65 5.633 3.226-4.59 2.65" transform="translate(-137.881 432.645)" style="fill:#bce9f1"/>
        <g style="clip-path:url(#4gi2bjrzos)">
            <path d="m452.523-147.125-44.205-15.317 32.069-18.543 7.506 8-5.261 3.048 4.95 2.86 3.792-2.2-3.792 2.2v5.709l7.264-4.208 9.1 9.7-11.414 8.751" transform="translate(-183.226 457.258)" style="fill:url(#jj2by2tyat)"/>
        </g>
        <g style="clip-path:url(#hsmvmaq8lu)">
            <path d="m407.555-162.89-1.533-.532 32.757-18.912.845.9-32.069 18.544" transform="translate(-182.463 457.705)" style="fill:url(#q2xfpvziuv)"/>
        </g>
        <path d="M406.023-165.05v-5.05l29.686-17.141 3.07 3.274-32.756 18.917" transform="translate(-182.463 459.334)" style="fill:#253f7c"/>
        <path d="M406.023-171.273v-3.651l27.464-15.858 2.222 2.368-29.686 17.141" transform="translate(-182.463 460.511)" style="fill:#c2d5da"/>
        <path d="M406.023-176v-3.346l25.43-14.682 2.035 2.17L406.023-176" transform="translate(-182.463 461.591)" style="fill:#d0e5ea"/>
        <path d="M406.023-180.53v-3.66l23.2-13.4 2.227 2.374-25.43 14.682" transform="translate(-182.463 462.771)" style="fill:#d9eff5"/>
        <path d="M406.023-185.958v-5.481l19.868-11.471 3.335 3.556-23.2 13.4" transform="translate(-182.463 464.539)" style="fill:#304f9e"/>
        <path d="M406.023-192.986v-4.8l16.95-9.786 2.918 3.11-19.868 11.471" transform="translate(-182.463 466.086)" style="fill:#3b83c3"/>
        <path d="M406.023-198.9v-3.468l14.84-8.568 2.11 2.25-16.95 9.786" transform="translate(-182.463 467.205)" style="fill:#c2d5da"/>
        <path d="M406.023-203.394v-3.178l12.906-7.452 1.934 2.061-14.84 8.568" transform="translate(-182.463 468.23)" style="fill:#d0e5ea"/>
        <path d="M406.023-207.694v-3.477l10.79-6.231 2.116 2.257-12.906 7.452" transform="translate(-182.463 469.353)" style="fill:#d9eff5"/>
        <path d="M406.023-212.315v-3.547l8.632-4.984 2.158 2.3-10.79 6.231" transform="translate(-182.463 470.497)" style="fill:#66b4e7"/>
        <path d="M406.023-217.341v-4.583l5.843-3.374 2.789 2.973-8.632 4.984" transform="translate(-182.463 471.975)" style="fill:#c5285e"/>
        <path d="M406.023-222.993v-3.315l3.826-2.209 2.017 2.151-5.843 3.374" transform="translate(-182.463 473.045)" style="fill:#c2d5da"/>
        <path d="M406.023-227.289v-3.038l1.977-1.142 1.849 1.971-3.826 2.209" transform="translate(-182.463 474.025)" style="fill:#d0e5ea"/>
        <path d="M406.023-231.376v-3.251l1.977 2.109-1.978 1.142" transform="translate(-182.463 475.074)" style="fill:#d9eff5"/>
        <path d="m406.023-240.333 19.8-11.472 21.012 15.434-19.8 11.47-21.015-15.432" transform="translate(-182.463 480.779)" style="fill:#a4e2f9"/>
        <path d="m437.48-211.512 19.8-11.474v-5.71l-19.8 11.47-.005 5.713" transform="translate(-192.911 473.103)" style="fill:#76c5ef"/>
        <path d="m437.48-208.677 19.8-11.469 4.944 2.855-19.8 11.472-4.95-2.858" transform="translate(-192.911 470.264)" style="fill:#a4e2f9"/>
        <path d="m444.887-198.686 19.8-11.473v-5.713L444.89-204.4v5.713" transform="translate(-195.371 468.844)" style="fill:#76c5ef"/>
        <path d="m444.887-195.833 19.8-11.472 4.945 2.857-19.8 11.473-4.948-2.858" transform="translate(-195.371 465.999)" style="fill:#a4e2f9"/>
        <path d="m452.291-185.842 19.8-11.473v-5.712l-19.8 11.473v5.712" transform="translate(-197.83 464.578)" style="fill:#76c5ef"/>
        <path d="m452.291-182.987 19.8-11.472 4.947 2.857-19.8 11.473-4.949-2.858" transform="translate(-197.83 461.733)" style="fill:#a4e2f9"/>
        <path d="m459.7-173 19.8-11.471v-5.713l-19.8 11.473v5.712" transform="translate(-200.29 460.312)" style="fill:#76c5ef"/>
        <path d="m459.7-170.143 19.8-11.471 4.946 2.857-19.8 11.475-4.95-2.86" transform="translate(-200.29 457.466)" style="fill:#a4e2f9"/>
        <path d="m467.1-160.153 19.8-11.47v-5.713l-19.8 11.475v5.709" transform="translate(-202.75 456.046)" style="fill:#76c5ef"/>
        <path d="m467.1-157.3 19.8-11.47 4.944 2.856-19.8 11.472-4.944-2.858" transform="translate(-202.75 453.199)" style="fill:#a4e2f9"/>
        <path d="m474.507-147.307 19.8-11.474v-5.711l-19.8 11.472v5.713" transform="translate(-205.209 451.779)" style="fill:#76c5ef"/>
        <path d="m474.507-144.458 19.8-11.472 4.947 2.859-19.8 11.47-4.949-2.857" transform="translate(-205.209 448.936)" style="fill:#a4e2f9"/>
        <path d="m481.913-134.468 19.8-11.473v-5.71l-19.8 11.47v5.712" transform="translate(-207.669 447.514)" style="fill:#76c5ef"/>
        <path d="M446.816-179.219v-5.712l-4.948-2.855v-5.756l-4.937-2.809v-5.712l-4.949-2.854v-5.711l-4.945-2.856v-5.716l-21.015-15.432 45.738 69.686 4.958 2.855v-5.709l-4.958-2.8v-5.759l-4.945-2.858" transform="translate(-182.463 475.074)" style="fill:#57b2e7"/>
        <path d="M284.9-304.445v24.3c0 5 3.3 10 9.908 13.811 13.21 7.626 34.628 7.626 47.84 0 6.607-3.814 9.908-8.814 9.907-13.815v-24.3H284.9" transform="translate(-142.235 498.262)" style="fill:#16253a"/>
        <path d="m304.769-274.475-57.98-33.476v-1.6h115.96v1.6l-57.979 33.476" transform="translate(-129.576 499.96)" style="fill:#192c4b"/>
        <path d="m304.769-292.729-57.98-33.471 57.98-33.476 57.98 33.476-57.979 33.474" transform="translate(-129.576 516.608)" style="fill:#223e73"/>
        <path d="M365.424-273.214h-2.005v-20.616L332.93-309.1l.9-1.793 31.594 15.83v21.853" transform="translate(-158.187 500.406)" style="fill:#fad517"/>
        <path d="M336.515-310.009c0 1.107-1.478 2.005-3.307 2.005s-3.309-.9-3.309-2.005 1.482-2.005 3.309-2.005 3.307.9 3.307 2.005" transform="translate(-157.18 500.776)" style="fill:#fad517"/>
        <path d="M381.343-246.9v-10.2a2.33 2.33 0 0 0-2.329-2.331 2.33 2.33 0 0 0-2.332 2.331v10.2h4.661" transform="translate(-172.718 483.313)" style="fill:#f5f122"/>
        <g style="clip-path:url(#6ohcp8jckw)" transform="translate(59.622 311.173)">
            <path d="m160.558-91.035 30.342-37.693 15.1 8.714s-10.015 5.468-22.6 17.105-22.834 11.873-22.834 11.873" transform="translate(-160.558 128.728)" style="fill:url(#uhg2otyrex)"/>
        </g>
        <path d="m221.087-121.346-15.095-8.714 1.874-2.328.54-.352 13.133 7.583-.451.265v3.546" transform="translate(-116.027 441.233)" style="fill:#4ea2de"/>
        <path d="m222.739-126-13.133-7.583 2.588-1.686 13.254 7.679-2.709 1.59" transform="translate(-117.227 442.072)" style="fill:#8cd4f4"/>
        <g style="clip-path:url(#7eg1ccb7qy)" transform="translate(125.388 281.102)">
            <path d="m274-159.227-14.966-8.64 9.037-5.887 14.795 8.542v.083l-8.865 5.9" transform="translate(-259.03 173.754)" style="fill:url(#alc1xsecbz)"/>
        </g>
        <path d="m287.355-167.682-14.795-8.542.141-4.965 14.631 8.446.023 5.061" transform="translate(-138.136 457.325)" style="fill:#253f7c"/>
        <path d="m287.4-174.529-14.631-8.446.1-3.592 14.51 8.378.018 3.661" transform="translate(-138.206 459.111)" style="fill:#c2d5da"/>
        <path d="m287.435-179.827-14.51-8.378.093-3.291 14.4 8.314.015 3.354" transform="translate(-138.257 460.748)" style="fill:#d0e5ea"/>
        <path d="m287.466-184.971-14.4-8.314.1-3.6 14.282 8.246.018 3.669" transform="translate(-138.303 462.539)" style="fill:#d9eff5"/>
        <path d="m287.5-191.449-14.282-8.246.159-5.647 14.1 8.138.027 5.755" transform="translate(-138.354 465.347)" style="fill:#304f9e"/>
        <path d="m287.552-199.55-14.1-8.138.134-4.717 13.94 8.048.022 4.807" transform="translate(-138.433 467.693)" style="fill:#3b83c3"/>
        <path d="m287.6-206.054-13.94-8.048.1-3.413 13.827 7.983.016 3.478" transform="translate(-138.5 469.39)" style="fill:#c2d5da"/>
        <path d="M287.628-211.087 273.8-219.07l.089-3.127 13.723 7.924.015 3.186" transform="translate(-138.548 470.945)" style="fill:#d0e5ea"/>
        <path d="m287.657-215.639-13.723-7.924.045-1.631 1.223-1.114 12.438 7.182.017 3.487" transform="translate(-138.592 472.31)" style="fill:#d9eff5"/>
        <path d="m288.271-220.382-12.438-7.182 2.772-2.525 9.648 5.57.019 4.137" transform="translate(-139.223 473.566)" style="fill:#66b4e7"/>
        <path d="m289.631-225.914-9.648-5.57 3.079-2.805 6.547 3.779.021 4.6" transform="translate(-140.601 474.961)" style="fill:#c5285e"/>
        <path d="m291.141-231.519-6.547-3.779 2.227-2.03 4.3 2.485.016 3.324" transform="translate(-142.133 475.971)" style="fill:#c2d5da"/>
        <path d="m292.232-235.768-4.3-2.485 2.041-1.859 2.249 1.3.014 3.046" transform="translate(-143.24 476.896)" style="fill:#d0e5ea"/>
        <path d="m293.233-239.826-2.248-1.3 2.233-2.034.015 3.332" transform="translate(-144.255 477.907)" style="fill:#d9eff5"/>
        <path d="M294.328-243.158" transform="translate(-145.366 477.907)" style="fill:#d54f7c"/>
        <path d="M234.53-140.551 221-148.392l.64-.417 4.115 2.375.5-.289v.583l7.117 4.11.5-.288v.582l1.348.779-.69.4m5.99-3.516-2.057-1.188-.5.289v-.585l-7.118-4.111-.5.29v-.582l-3.682-2.127.623-.406.262.15.5-.288v.583l7.121 4.11.5-.287v.582l5.516 3.183-.657.386m5.961-3.5-6.226-3.593-.5.289v-.583l-7.117-4.11-.5.289v-.374l.773-.5 4.061 2.345.5-.288v.582l7.12 4.11.5-.289v.582l2.029 1.172-.636.373m5.938-3.485-2.739-1.582-.5.289v-.581l-7.119-4.111-.5.288v-.583l-3.628-2.1.623-.406.2.118.5-.288v.583l7.119 4.109.5-.289v.587l6.194 3.575-.656.386m5.959-3.5-6.907-3.987-.5.288v-.582l-7.119-4.11-.5.289v-.307l3.045-1.984 14.966 8.64-2.987 1.753" transform="translate(-121.011 451.928)" style="fill:#8cd4f4"/>
        <path d="m247.492-158.725-.2-.118 4.8-3.126v.307l-4.094 2.361v.288l-.5.289" transform="translate(-129.742 450.941)" style="fill:#4398be"/>
        <path d="m255.461-152.995-7.119-4.109v-.871l7.119 4.11 4.593-2.649v.582l-4.092 2.364v.284l-.5.289" transform="translate(-130.092 449.615)" style="fill:#4398be"/>
        <path d="m255.461-155.182-7.119-4.11 4.093-2.361.5-.288 7.12 4.11-4.593 2.649" transform="translate(-130.092 450.932)" style="fill:#a1e0ea"/>
        <path d="m265.947-146.929-6.194-3.575v-.871l6.942 4.007-.748.439" transform="translate(-133.882 447.423)" style="fill:#4398be"/>
        <path d="m266.695-148.687-6.942-4.007 4.092-2.364.5-.288 6.908 3.987-4.555 2.672" transform="translate(-133.882 448.742)" style="fill:#a1e0ea"/>
        <path d="m242.895-150.023-4.06-2.345.708-.461 3.353 1.937 4.59-2.652v.583l-4.092 2.36v.29l-.5.288" transform="translate(-126.934 448.143)" style="fill:#4398be"/>
        <path d="m243.247-151.934-3.353-1.937 4.314-2.81 3.628 2.1-4.59 2.652" transform="translate(-127.286 449.185)" style="fill:#a1e0ea"/>
        <path d="m252.78-144.155-7.12-4.11v-.873l7.12 4.11 4.591-2.648v.581l-4.092 2.362v.288l-.5.288" transform="translate(-129.201 446.679)" style="fill:#4398be"/>
        <path d="m252.78-146.343-7.12-4.11 4.092-2.36.5-.288 7.118 4.11-4.591 2.648" transform="translate(-129.201 447.996)" style="fill:#a1e0ea"/>
        <path d="m259.1-140.5-2.029-1.172v-.87l2.777 1.6-.748.439" transform="translate(-132.991 444.488)" style="fill:#4398be"/>
        <path d="m259.845-142.255-2.777-1.6 4.092-2.362.5-.289 2.739 1.582-4.554 2.672" transform="translate(-132.991 445.807)" style="fill:#a1e0ea"/>
        <path d="m230.672-147.715-.262-.151 4.853-3.162v.374l-4.093 2.363v.291l-.5.288" transform="translate(-124.136 447.307)" style="fill:#4398be"/>
        <path d="m238.67-141.948-7.121-4.11v-.871l7.121 4.11 4.588-2.652v.583l-4.092 2.362v.29l-.5.287" transform="translate(-124.515 445.946)" style="fill:#4398be"/>
        <path d="m238.67-144.137-7.121-4.11 4.093-2.363.5-.288 7.117 4.11-4.588 2.652" transform="translate(-124.515 447.265)" style="fill:#a1e0ea"/>
        <path d="m248.47-136.28-5.516-3.183v-.873l6.266 3.615-.75.44" transform="translate(-128.303 443.756)" style="fill:#4398be"/>
        <path d="m249.22-138.038-6.266-3.615 4.092-2.362.5-.289 6.226 3.593-4.554 2.672" transform="translate(-128.303 445.074)" style="fill:#a1e0ea"/>
        <path d="m226.073-138.98-4.115-2.375.708-.461 3.407 1.966 4.589-2.649v.582l-4.089 2.362v.286l-.5.288" transform="translate(-121.329 444.475)" style="fill:#4398be"/>
        <path d="m226.425-140.908-3.407-1.966 4.314-2.81 3.682 2.127-4.589 2.649" transform="translate(-121.681 445.533)" style="fill:#a1e0ea"/>
        <path d="m235.984-133.111-7.117-4.11v-.869l7.117 4.11 4.592-2.652v.585l-4.091 2.362v.287l-.5.288" transform="translate(-123.624 443.011)" style="fill:#4398be"/>
        <path d="m235.984-135.3-7.117-4.11 4.089-2.362.5-.29 7.118 4.11-4.592 2.652" transform="translate(-123.624 444.33)" style="fill:#a1e0ea"/>
        <path d="m241.622-129.847-1.348-.779v-.869l2.094 1.209-.746.439" transform="translate(-127.413 440.82)" style="fill:#4398be"/>
        <path d="m242.368-131.6-2.094-1.209 4.091-2.362.5-.289 2.057 1.188-4.554 2.672" transform="translate(-127.413 442.139)" style="fill:#a1e0ea"/>
        <path d="m226.735-127.814-13.254-7.679.708-.461 13.292 7.7-.746.438" transform="translate(-118.514 442.301)" style="fill:#4398be"/>
        <path d="m227.833-129.65-13.292-7.7 4.314-2.81 13.531 7.841-4.552 2.671" transform="translate(-118.866 443.699)" style="fill:#a1e0ea"/>
        <path d="M178.086-146.4c-2.27 3.23-14.9 14.783-18.632 12.163s2.856-18.422 5.126-21.652l69.92-99.519c2.269-3.229 7.132-3.722 10.862-1.1s4.913 7.363 2.644 10.592l-69.92 99.516" transform="translate(-100.198 482.901)" style="fill:#3367b1"/>
        <path d="M245.364-256.275a9.4 9.4 0 0 0-2.387-1.208 7.151 7.151 0 0 1 .163 8.006l-69.922 99.522c-1.745 2.484-9.616 9.884-14.857 11.981-.118 1.871.172 3.327 1.094 3.975 3.73 2.62 16.362-8.933 18.632-12.163l69.921-99.522c2.269-3.229 1.085-7.972-2.644-10.591" transform="translate(-100.198 482.665)" style="fill:#2a5698"/>
        <path d="m167.018-110.207-2.438 3.471c-2.27 3.23-8.854 19.031-5.126 21.652s16.362-8.933 18.632-12.163l2.438-3.471-13.506-9.489" transform="translate(-100.198 433.749)" style="fill:#3f79c6"/>
        <path d="m176.578-100.325-1.763 2.51c-2.269 3.23-12.248 17.579-15.978 14.959a2.291 2.291 0 0 0 .784 1.054c3.73 2.62 16.362-8.933 18.632-12.163l2.438-3.471-4.113-2.89" transform="translate(-100.365 430.467)" style="fill:#3773b9"/>
        <path d="m237.345-195.676-10.5-7.378-5.562-3.907 30.51-43.425 16.061 11.286-30.51 43.425" transform="translate(-121.105 480.308)" style="fill:#223e73"/>
        <path d="m260.928-240.775-30.467 43.364-9.136-6.419-.043.061 5.562 3.907 10.5 7.378 30.51-43.425-6.926-4.867" transform="translate(-121.105 477.116)" style="fill:#1d365c"/>
        <path d="m278.394-233.757-16.063-11.285 1.768-2.516 16.063 11.285-1.768 2.516" transform="translate(-134.739 479.368)" style="fill:#192b45"/>
        <path d="M273.135-238.144s7.831 3.039 2.225 11.989-19.291 23.387-20.643 29-6.687 5.021-6.838.942 4.816-8.459 9.381-14.506 18.516-23.116 13.248-29.275l2.627 1.845" transform="translate(-129.937 476.854)" style="fill:#3f79c6"/>
        <path d="m450.283-594.649-61.325 24L415.4-567.5z" transform="translate(-176.795 594.649)" style="fill:#fff"/>
        <path d="M427.906-567.549 432-556.1l31.22-38.545z" transform="translate(-189.731 594.649)" style="fill:#a4e2f9"/>
        <path d="m438.71-564.916-4.675 8.811 31.22-38.545z" transform="translate(-191.767 594.649)" style="fill:#76c5ef"/>
        <path d="m467.579-594.649-8.256 40.431-18.288-10.7z" transform="translate(-194.092 594.649)" style="fill:#fff"/>
        <path d="m424.8-538.27-1.361-1.149a633.23 633.23 0 0 1 2.306-2.719l1.353 1.158s-.822.963-2.3 2.711" transform="translate(-188.248 577.209)" style="fill:#57b2e7"/>
        <path d="m378.65-523.273-1.374-1.132c1.663-2.019 3.19-3.859 4.549-5.491l1.369 1.14c-1.358 1.63-2.883 3.467-4.544 5.483zm-9 11.033-1.386-1.119c1.551-1.922 3.054-3.772 4.492-5.534l1.379 1.126q-2.156 2.639-4.485 5.527zm-8.881 11.127-1.4-1.1q2.248-2.852 4.429-5.584l1.392 1.11q-2.169 2.721-4.421 5.573zm-8.742 11.233-1.411-1.085q2.183-2.845 4.358-5.639l1.405 1.093q-2.165 2.783-4.352 5.63zm-8.564 11.363-1.431-1.059q2.113-2.857 4.266-5.713l1.423 1.073q-2.147 2.843-4.258 5.698zm-8.327 11.531-1.458-1.023q2.022-2.879 4.143-5.81l1.444 1.044q-2.108 2.917-4.128 5.789zm-7.969 11.766-1.5-.968a328.295 328.295 0 0 1 3.95-5.95l1.474 1a354.059 354.059 0 0 0-3.924 5.917zm-6.623 12.412-1.638-.7a83.974 83.974 0 0 1 3.1-6.492l1.572.836a84.706 84.706 0 0 0-3.033 6.355zm-4.455 13.352-1.73-.427a88.745 88.745 0 0 1 2-6.9l1.69.564a86.077 86.077 0 0 0-1.959 6.762zm173.711 8.241a46.689 46.689 0 0 0-3.946-5.755l1.391-1.112a48.28 48.28 0 0 1 4.1 5.975zm-175.92 5.649-1.777-.126c.167-2.357.446-4.761.828-7.145l1.758.281a80.786 80.786 0 0 0-.809 6.99zm180.8 7.331a40.565 40.565 0 0 0-1.889-6.691l1.666-.63a42.488 42.488 0 0 1 1.972 6.986zm-182.242 6.92a72.098 72.098 0 0 1-.515-7.184l1.781-.039c.052 2.363.221 4.72.5 7.006zm184.213 7.208-1.761-.274a41.22 41.22 0 0 0 .5-6.355l-.005-.584 1.781-.023.005.608a43.078 43.078 0 0 1-.52 6.629zm-180.9 6.8a62.322 62.322 0 0 1-2.053-6.917l1.734-.407a60.784 60.784 0 0 0 1.994 6.719zm176.439 6.938-1.593-.8a47.18 47.18 0 0 0 2.661-6.45l1.693.555a49.278 49.278 0 0 1-2.762 6.698zm-169.924 5.917a58.194 58.194 0 0 1-3.654-6.227l1.589-.8a56.645 56.645 0 0 0 3.541 6.036zm161.8 6-1.334-1.179a57.027 57.027 0 0 0 4.308-5.519l1.469 1.007a59.019 59.019 0 0 1-4.443 5.694zM331.7-363.566a62.191 62.191 0 0 1-5.041-5.156L328-369.89a60.306 60.306 0 0 0 4.9 5.008zm141.715 4.794-1.056-1.435a69.021 69.021 0 0 0 5.444-4.437l1.2 1.32a70.749 70.749 0 0 1-5.591 4.552zM343.3-355.07a72.52 72.52 0 0 1-6.018-3.945l1.049-1.439a71.6 71.6 0 0 0 5.871 3.849zm117.8 3.724-.786-1.6a84.505 84.505 0 0 0 6.181-3.367l.918 1.525a83.824 83.824 0 0 1-6.304 3.442zm-104.858 2.471a93.657 93.657 0 0 1-6.6-2.829l.766-1.607a91.074 91.074 0 0 0 6.471 2.774zm91.54 2.869-.542-1.7a99.344 99.344 0 0 0 6.637-2.381l.661 1.653a100.637 100.637 0 0 1-6.755 2.423zm-77.852 1.373a120.957 120.957 0 0 1-6.908-1.9l.525-1.7c2.2.678 4.489 1.309 6.8 1.873zm63.946 2.1-.325-1.751a115.83 115.83 0 0 0 6.9-1.5l.429 1.729c-2.28.575-4.634 1.086-6.996 1.525zm-49.889.565a152.88 152.88 0 0 1-7.06-1.16l.33-1.749c2.27.427 4.616.813 6.978 1.145zm35.689 1.274-.135-1.776c2.374-.182 4.739-.424 7.031-.72l.228 1.767c-2.314.303-4.711.549-7.116.732zm-21.455.135a178.036 178.036 0 0 1-6.353-.488l-.778-.075.174-1.772.77.075c2.118.2 4.235.361 6.29.483zm9.9.3q-1.367 0-2.749-.023l.029-1.781c2.378.04 4.722.029 7.077-.037l.049 1.781c-1.465.04-2.948.061-4.406.061" transform="translate(-151.209 573.143)" style="fill:#57b2e7"/>
        <path d="M563.8-385.484a58.917 58.917 0 0 0-2.619-2.333l1.144-1.364a62.074 62.074 0 0 1 2.7 2.4l-1.225 1.293" transform="translate(-233.998 526.406)" style="fill:#57b2e7"/>
        <path d="m151.627-329.572-1.638-.7a47.764 47.764 0 0 1 2.3-4.474v3.63l-.657 1.543" transform="translate(-97.426 508.326)" style="fill:#3367b1"/>
        <path d="M243.691-518.762a33.953 33.953 0 0 0-6.991-.474l-.07-1.779a35.959 35.959 0 0 1 7.358.5zm-20.23 3.408-.913-1.53a29.2 29.2 0 0 1 6.783-2.959l.5 1.709a27.475 27.475 0 0 0-6.37 2.78zm33.611 1.056a57.379 57.379 0 0 0-6.55-2.712l.574-1.687a59.5 59.5 0 0 1 6.753 2.8zm-43.7 8.536-1.453-1.029a39.353 39.353 0 0 1 4.778-5.593l1.236 1.282a37.643 37.643 0 0 0-4.564 5.34zm-6.428 12.578-1.674-.607a61.329 61.329 0 0 1 2.884-6.712l1.59.8a59.628 59.628 0 0 0-2.803 6.519zm-3.549 13.778-1.757-.294a85.118 85.118 0 0 1 1.5-7.122l1.725.44a82.38 82.38 0 0 0-1.471 6.977zm-1.339 14.214-1.78-.048c.065-2.448.209-4.888.43-7.25l1.773.165a106.62 106.62 0 0 0-.426 7.133zm-1.295 14.453a126.507 126.507 0 0 1-.457-7.242l1.78-.061c.08 2.354.232 4.757.45 7.141zm2.115 14.349a138.09 138.09 0 0 1-1.253-7.145l1.762-.26c.347 2.347.762 4.72 1.236 7.05zm3.641 14.036c-.727-2.289-1.4-4.634-2.008-6.969l1.723-.448c.6 2.3 1.265 4.619 1.983 6.878zm4.332 13.7c-.616-2.271-1.3-4.578-2.043-6.86l1.694-.549a150.014 150.014 0 0 1 2.068 6.944zm3.006 13.983c-.361-2.3-.8-4.668-1.312-7.031l1.741-.376c.517 2.4.964 4.8 1.33 7.132zm1.268 14.218a96.212 96.212 0 0 0-.388-7.127l1.774-.16c.224 2.465.357 4.907.4 7.258zm-71.23 2.519-1.73-.421a86.644 86.644 0 0 1 2.027-6.991l1.689.566a82.173 82.173 0 0 0-1.988 6.845zm71.926 11.969-1.753-.314a67.365 67.365 0 0 0 .869-7.053l1.777.127a69.016 69.016 0 0 1-.895 7.239zm-75.52 2.084v-.211a53.529 53.529 0 0 1 .5-7.1l1.765.237a51.791 51.791 0 0 0-.483 6.859v.2zm71 11.816-1.586-.81a43.531 43.531 0 0 0 2.662-6.526l1.7.542a45.29 45.29 0 0 1-2.775 6.793zm-68 2.554a29.236 29.236 0 0 1-2.306-7.04l1.747-.345a27.423 27.423 0 0 0 2.164 6.611zm58.831 8.884-1.11-1.391a30.954 30.954 0 0 0 4.922-4.949l1.395 1.108a32.674 32.674 0 0 1-5.208 5.231zm-48.858 1.912a26.551 26.551 0 0 1-5.785-4.649l1.3-1.213a24.7 24.7 0 0 0 5.4 4.335zm35.652 4.452-.425-1.729a34.512 34.512 0 0 0 6.6-2.333l.766 1.607a36.172 36.172 0 0 1-6.943 2.454zm-21.817.352a47.485 47.485 0 0 1-7.118-1.753l.566-1.689a45.658 45.658 0 0 0 6.849 1.686zm10.678.915c-1.11 0-2.262-.034-3.424-.1l.1-1.777a54.143 54.143 0 0 0 7.079-.038l.132 1.776a52.295 52.295 0 0 1-3.889.141" transform="translate(-94.207 570.201)" style="fill:#3367b1"/>
        <path d="M327.682-504.535c-.991-.662-1.99-1.3-2.97-1.9l.93-1.518c1 .614 2.019 1.266 3.029 1.94l-.989 1.482" transform="translate(-155.457 565.856)" style="fill:#3367b1"/>
        <g style="clip-path:url(#md9dg45ixA)">
            <path d="M509.622-181.19a18.4 18.4 0 0 1-8.544-1.917l-.423-.228c-4.718-2.557-4.718-6.7 0-9.257l33.079-17.919 3.442 1.864 4.934-2.673v15.243l-23.944 12.97a18.4 18.4 0 0 1-8.544 1.917" transform="translate(-212.719 467.333)" style="fill:url(#0w41ax3mdB)"/>
        </g>
        <path d="m566.829-204.2 15.1-8.719v-4.043l-27.04 5.862 11.94 6.893" transform="translate(-231.907 469.207)" style="fill:#a8a8a6"/>
        <path d="m566.829-211.674 15.1-8.719-11.94-6.894-15.1 8.72 11.94 6.893" transform="translate(-231.907 472.636)" style="fill:#fefefe"/>
        <path d="m585.617-216.39 2.291-1.322-3.345-1.931-2.289 1.321 3.343 1.931" transform="translate(-241.002 470.096)" style="fill:#a8a8a6"/>
        <path d="m584.563-219.292-1.986 1.147-.3-.175 2.289-1.321 3.345 1.931-.3.175-3.04-1.756" transform="translate(-241.003 470.096)" style="fill:#484849"/>
        <path d="m576.947-221.4 2.289-1.321-3.343-1.931-2.29 1.321 3.345 1.931" transform="translate(-238.122 471.759)" style="fill:#a8a8a6"/>
        <path d="m575.893-224.3-1.986 1.146-.3-.175 2.291-1.321 3.343 1.931-.3.175-3.04-1.756" transform="translate(-238.122 471.759)" style="fill:#484849"/>
        <path d="m507.6-194.757 2.821 2.643c.16-.105.325-.21.5-.311l47.465-15.587v7.152l-31.036 17.92a17.715 17.715 0 0 1-16.032 0l-.4-.229c-2.291-1.322-3.394-3.07-3.314-4.8h-.009v-6.789" transform="translate(-216.202 466.234)" style="fill:#eb2762"/>
        <path d="m510.926-204.293 31.034-17.919 16.43 9.485-31.036 17.919a17.72 17.72 0 0 1-16.032 0l-.4-.229c-4.428-2.556-4.428-6.7 0-9.256" transform="translate(-216.202 470.95)" style="fill:#f25282"/>
        <path d="M515.914-188a10.856 10.856 0 0 0 9.824 0c2.711-1.565 2.711-4.105 0-5.671a10.856 10.856 0 0 0-9.824 0c-2.713 1.565-2.712 4.105 0 5.671" transform="translate(-218.286 461.86)" style="fill:#f8a3c2"/>
        <path d="M161.038-514.953s-.127 6.389 3.212 7.782c2.69-.537-.315-7.418-.315-7.418l-2.9-.364" transform="translate(-101.095 568.179)" style="fill:#1f2f58"/>
        <path d="m220.391-438.373 2.252-1.262a2.868 2.868 0 0 1-1.083 1.126 10.791 10.791 0 0 1-1.169.135" transform="translate(-120.809 543.164)" style="fill:#8ecce5"/>
        <g style="clip-path:url(#1mi311um0C)" transform="translate(64.619 124.1)">
            <path d="M168.048-408.545h-.008l.507-.284-.5.289" transform="translate(-168.04 408.834)" style="fill:url(#v2gdn2iixD)"/>
        </g>
        <path d="M173.695-414.1c-1.8-.815-3.784-1.713-5.643-2.564l.5-.289 29.133-16.325-.544 4.015.066 1.589-23.512 13.574" transform="translate(-103.425 541.052)" style="fill:#8ecce5"/>
        <path d="M180.885-409.337c-1.143-.514-2.686-1.208-4.384-1.976l23.511-13.573.184 4.4-19.311 11.149" transform="translate(-106.231 538.265)" style="fill:#60afe4"/>
        <path d="M199.214-358.515h-.078l-.231-.011a3.91 3.91 0 0 1-.322-.033c-.08-.01-.159-.019-.242-.035-.118-.019-.24-.045-.362-.071-.083-.02-.165-.036-.253-.059a7.539 7.539 0 0 1-.4-.122c-.085-.026-.167-.051-.256-.082a8.284 8.284 0 0 1-.471-.184l-.232-.092c-.242-.108-.49-.226-.744-.361-4.237-2.236-5.139-2.824-5.963-3.3a1.384 1.384 0 0 1-.333-.263l-.06-.066a1.011 1.011 0 0 1-.175-.314v-.018a1.491 1.491 0 0 1-.057-.374v-.078a10.054 10.054 0 0 1 .121-1.24.553.553 0 0 1 .218-.336c-.209-.157-4.307-40.706-4.307-40.706l-1.993-.894 19.302-11.146.015.367c3.571 3.237 6.655 6.871 7.49 10.283a58.585 58.585 0 0 1 1.218 9.208v2.96l.166-.1c.039.825.072 1.654.1 2.479l-.264.153v3.224l.345-.2c.014.857.024 1.7.03 2.519l-.375.216v3.224l.377-.217c0 .91-.013 1.768-.024 2.55l-.353.2v3.225l.288-.166c-.028 1.027-.05 1.617-.05 1.617s-.038.069-.094.16c1.126.867 5.155 4.005 6.132 5.42a1.6 1.6 0 0 1 .207.429 1.193 1.193 0 0 1-.6 1.428l-.215.108-.114.052-.206.068-.183.05-.209.038c-.077.012-.156.025-.237.031l-.218.014h-.282l-.231-.009a7.053 7.053 0 0 1-.564-.068 5.66 5.66 0 0 1-.362-.073c-.084-.019-.165-.037-.252-.059-.131-.033-.268-.077-.405-.12-.085-.027-.168-.053-.255-.084-.154-.053-.312-.118-.472-.183l-.231-.1q-.363-.156-.743-.357c-4.238-2.236-5.14-2.826-5.964-3.3a1.385 1.385 0 0 1-.333-.264l-.06-.066a1.009 1.009 0 0 1-.175-.313v-.019a1.522 1.522 0 0 1-.058-.372v-.08a4.583 4.583 0 0 1 .032-.537c-.11-.045-.185-.082-.185-.082l-3.567-31.6s-2.312 6.966-5.891 6.966a2.953 2.953 0 0 1-1.12-.227c2.692 3.332-.861.069-.373 3.6 1.314 9.5 1.339 30.167 1.339 30.167s-.056.061-.142.143c1.379 1.066 4.974 3.907 5.889 5.23a1.591 1.591 0 0 1 .207.431 1.191 1.191 0 0 1-.6 1.427l-.215.108-.114.054-.206.066-.183.05-.209.039a4.23 4.23 0 0 1-.237.033l-.217.012h-.2" transform="translate(-108.411 536.077)" style="fill:#cfdfe4"/>
        <path d="M225.041-385.6v-2.96c.065.942.119 1.9.166 2.865l-.166.1" transform="translate(-122.353 526.201)" style="fill:#b5d2d8"/>
        <path d="M225.041-377.185v-3.224l.264-.153c.036 1.071.061 2.135.08 3.179l-.345.2" transform="translate(-122.353 523.544)" style="fill:#b5d2d8"/>
        <path d="M225.041-368.59v-3.225l.375-.216c.007 1.128.007 2.209 0 3.224l-.377.217" transform="translate(-122.353 520.71)" style="fill:#b5d2d8"/>
        <path d="M225.041-359.956v-3.225l.353-.2c-.019 1.32-.044 2.434-.065 3.264l-.288.166" transform="translate(-122.353 517.839)" style="fill:#b5d2d8"/>
        <path d="M220.3-425.939s-5.085.412-6.16 4.6c-.853 3.6-2.3 1.423-2 2.09s2.858 5.7 5.306 3.476 6.05-4.53 4.657-9.241a3.212 3.212 0 0 0-1.8-.926" transform="translate(-118.053 538.615)" style="fill:#162337"/>
        <path d="M200.228-412.831s-5.085.412-6.16 4.6c-.853 3.6-.89 3.748-.593 4.416s1.447 3.376 3.9 1.15 7.428-2.9 6.037-7.607c-.985-.89-3.18-2.56-3.18-2.56" transform="translate(-111.813 534.261)" style="fill:#1f2f58"/>
        <g style="clip-path:url(#vegt8ps7pE)" transform="translate(76.496 61.009)">
            <path d="M188.944-503.244s-.092-.9-2.533 4.513 3.42 22.714 4.811 24.612 18.828 7.241 22.662 1.321c-2.393-1.23-.082-3-.552-5.765-7.122 2.493-17.386-1.8-19.563-3.605-3.63-3.009 1.748-13.583-4.826-21.075" transform="translate(-185.824 503.3)" style="fill:url(#g063oxsn2F)"/>
        </g>
        <path d="M228.561-371.976s5.949 3.986 7.087 5.635-1.334 3.412-5.571 1.175-5.139-2.825-5.964-3.294-.765-2.756 0-4.13c.6-1.069 4.443.614 4.443.614" transform="translate(-121.847 521.014)" style="fill:#f25282"/>
        <path d="M224.095-367.773c.825.471 1.727 1.059 5.964 3.3 3.184 1.679 5.37 1.1 5.778.01.476 1.494-1.911 2.788-5.778.746-4.237-2.234-5.139-2.825-5.964-3.294-.63-.362-.685-.836-.606-1.582a1.1 1.1 0 0 0 .606.825" transform="translate(-121.828 519.57)" style="fill:#454547"/>
        <g style="clip-path:url(#frguuwfcuG)" transform="translate(62.034 98.148)">
            <path d="M164.17-447.692s.2 11.966 10.766 14.568 24.4 6.651 24.4 6.651l5.287 30.283s1.8 1.791 3.21 1.209a1.72 1.72 0 0 0 1.02-1.821s.733-22.405-1.224-31.794C206.18-435.538 181.634-446 181.634-446l-17.464-1.691" transform="translate(-164.17 447.692)" style="fill:url(#ds7qlxyluH)"/>
        </g>
        <path d="M206.18-432.361c-5.661-7.985-19.041-15.7-19.041-15.7l-22.968.247s.2 11.966 10.766 14.568c8.948 2.2 20.02 7.739 22.69 8.977.089-4.917 3.832-10.218 8.553-8.091" transform="translate(-102.136 545.963)" style="fill:#1f2f58"/>
        <path d="M204.977-356.579s5.3 4 6.433 5.651-1.333 3.412-5.57 1.175-5.139-2.824-5.964-3.294-.826-2.974.069-4.567c.6-1.069 5.032 1.035 5.032 1.035" transform="translate(-113.792 516.023)" style="fill:#f25282"/>
        <path d="M199.864-352.169c.825.471 1.727 1.059 5.964 3.3 3.184 1.679 5.37 1.1 5.778.011.476 1.493-1.911 2.787-5.778.745-4.237-2.234-5.139-2.824-5.964-3.294-.63-.362-.685-.836-.606-1.582a1.1 1.1 0 0 0 .606.825" transform="translate(-113.781 514.387)" style="fill:#454547"/>
        <g style="clip-path:url(#5cja9x76aI)">
            <path d="M148.484-437.109s-1.021 11.925 9.232 15.587 22.929 8.311 22.929 8.311l2.486 30.035a3.509 3.509 0 0 0 2.931 1.373c2.11 0 2.038-1.078 2.038-1.078s2.237-21.722.922-31.22-14.9-20.668-14.9-20.668l-25.639-2.339" transform="translate(-96.917 542.324)" style="fill:url(#ocdn7ke4gJ)"/>
        </g>
        <path d="M188.512-418.335c-3.894-8.292-14.388-16.436-14.388-16.436l-25.639-2.339s-1.021 11.925 9.232 15.587c9.011 3.218 19.373 9.608 21.482 10.871 1.377-4.543 3.471-9.045 9.313-7.683" transform="translate(-96.917 542.325)" style="fill:#223e73"/>
        <path d="M182.036-466.919s1.14-35.75-9.766-39.927-20.9 5.762-25.16 15.387-3.139 26.381 0 32.6c14.96 10.3 35.351-3.118 34.926-8.062" transform="translate(-95.543 565.812)" style="fill:#f793b9"/>
        <path d="M147.11-491.459c4.264-9.624 14.254-19.562 25.16-15.387a6.342 6.342 0 0 1 1.034.515c-8.031 1.021-14.86 8.731-18.191 16.253-4.261 9.624-3.139 26.38 0 32.6a21.114 21.114 0 0 0 4.618 2.4 21.752 21.752 0 0 1-12.621-3.778c-3.139-6.222-4.262-22.977 0-32.6" transform="translate(-95.543 565.812)" style="fill:#f9b0d2"/>
        <g style="clip-path:url(#0rieq46tzK)" transform="translate(60.943 42.626)">
            <path d="M181.394-530.421s2.721 4.358.282 13.815c-1.982 7.663-2.275 11.9-5.473 12.225s-12.775-2.014-11.73-9.99c-.953-.205-2.9-3.854-1.365-6.756s2.617.27 2.617.27-.061-6.323 4.408-8.629 11.261-.935 11.261-.935" transform="translate(-162.537 530.825)" style="fill:url(#7ko8ap47vL)"/>
        </g>
        <path d="M170.7-524.8c.016-.367 3.411 4.478 8.867 2.913a3.36 3.36 0 0 1-2.31-1.889 4.825 4.825 0 0 0 4.964 1.613 7.188 7.188 0 0 1-1.983-1.149 5.4 5.4 0 0 0 4.071.3c-1.256-.541-1.068-1.371-1.068-1.371s1.11 1.111 3.27-.771c-.879-.113-.792-4.144-3.964-7.047s-5.749-3.579-10-2.862a3.923 3.923 0 0 1 3.643-1.44c-1.7-.947-5.285.751-6.346 2.32-3.3-1.266-9.518.93-7.466 12.954.033-.3.317-2.258 1.482-2.629s2.148 1.922 1.882 2.5a25.963 25.963 0 0 0-.39 4.011l1.506.789s-.467-2.981.606-3.88 3.029.214 3.234-4.367" transform="translate(-101.406 575.426)" style="fill:#1f2f58"/>
        <path d="m216.069-478.483-6.462 8.672-20.877-4.866 1.2 26.983 18.988-.23 6.254-7.61.9-22.949" transform="translate(-110.293 556.066)" style="fill:#fff"/>
        <path d="m226.108-483.945-6.462 12.32-.69 21.887 6.254-7.61.9-26.6" transform="translate(-120.332 557.881)" style="fill:#ebf9fe"/>
        <g style="clip-path:url(#4bhawmpveM)" transform="translate(102.698 87.482)">
            <path d="M227.747-463.661s-1.435 2.936-2.324 3.274-.2 5.227 2.526 3.658 1.442-6.776-.2-6.932" transform="translate(-225.057 463.661)" style="fill:url(#9wkj3dxucN)"/>
        </g>
        <g style="clip-path:url(#hi767iivfO)" transform="translate(47.775 68.17)">
            <path d="M182.52-464.739c-1.517-.106-3.242.263-5.91.312s-2.57-1.457-2.672-3.609c-.842.625-1.354 2.3-2.716 3.292s-2 0-2 0l-.288.215c-9.659-1.705-16.482-4.1-18.014-6.4-1.568-2.354 2.737-9.464 3.109-15.885 0 0 .859-8.052-4.309-5.125s-6.9 23.562-6.9 25.916 17.325 5.619 26.385 6.447a12.471 12.471 0 0 0 5.219 1.8c7.805-.151 9.615-6.857 8.1-6.962" transform="translate(-142.82 492.578)" style="fill:url(#rqkmn3wemP)"/>
        </g>
        <path d="M155.085-487.539s-.46-7.349-5.629-4.422c-2.651 1.5-5.384 9.417-7.42 14.554a22.888 22.888 0 0 0 9.7 4.117 24.082 24.082 0 0 0 3.352-14.249" transform="translate(-94.784 560.772)" style="fill:#f46aa1"/>
        <path d="M184.07-531.646s-.347 5.262-22.428 7.431a6.422 6.422 0 0 1-1.315-3.354 15.392 15.392 0 0 1 .826-7.61c1.042-2 .79-4.751-.457-6.012s-.98-4.007 3.338-2.078 15.418.464 20.035 11.622" transform="translate(-100.767 577.805)" style="fill:#f46aa1"/>
        <path d="M161.181-545.17a3.156 3.156 0 0 1-3.156 3.156 3.156 3.156 0 0 1-3.156-3.156 3.156 3.156 0 0 1 3.156-3.156 3.155 3.155 0 0 1 3.156 3.156" transform="translate(-99.047 579.264)" style="fill:#fff"/>
    </g>
</svg>
