<svg xmlns="http://www.w3.org/2000/svg" width="24" height="24" viewBox="0 0 24 24">
  <g id="arrow-square-right" transform="translate(-556 -188)">
    <path id="Vector" d="M14.19,0H5.81C2.17,0,0,2.17,0,5.81v8.37C0,17.83,2.17,20,5.81,20h8.37c3.64,0,5.81-2.17,5.81-5.81V5.81C20,2.17,17.83,0,14.19,0Z" transform="translate(558 190)" fill="#1eaadc" opacity="0.4"/>
    <path id="Vector-2" data-name="Vector" d="M.747,8.558a.742.742,0,0,1-.53-.22.754.754,0,0,1,0-1.06l3-3-3-3A.75.75,0,0,1,1.278.218l3.53,3.53a.754.754,0,0,1,0,1.06l-3.53,3.53A.742.742,0,0,1,.747,8.558Z" transform="translate(565.992 195.723)" fill="#1eaadc"/>
    <path id="Vector-3" data-name="Vector" d="M0,0H24V24H0Z" transform="translate(556 188)" fill="none" opacity="0"/>
  </g>
</svg>
