<svg xmlns="http://www.w3.org/2000/svg" xmlns:xlink="http://www.w3.org/1999/xlink" width="306" height="475.643" viewBox="0 0 306 475.643">
  <defs>
    <filter id="Rectangle_536" x="0" y="0" width="306" height="475.643" filterUnits="userSpaceOnUse">
      <feOffset dy="3" input="SourceAlpha"/>
      <feGaussianBlur stdDeviation="28" result="blur"/>
      <feFlood flood-opacity="0.129"/>
      <feComposite operator="in" in2="blur"/>
      <feComposite in="SourceGraphic"/>
    </filter>
  </defs>
  <g id="Image-accept-your-certificate" transform="translate(78.016 81)">
    <g transform="matrix(1, 0, 0, 1, -78.02, -81)" filter="url(#Rectangle_536)">
      <rect id="Rectangle_536-2" data-name="Rectangle 536" width="138" height="307.643" rx="10" transform="translate(84 81)" fill="#fff"/>
    </g>
    <g id="Light_iPhone_X" data-name="Light / iPhone X" transform="translate(-3.016 -2.01)">
      <path id="Shape" d="M20.271,0H131.034A20.271,20.271,0,0,1,151.3,20.271v269.67a20.27,20.27,0,0,1-20.271,20.271H20.271A20.271,20.271,0,0,1,0,289.941V20.271A20.271,20.271,0,0,1,20.271,0Z" transform="translate(3.016 2.01)" fill="#161f3d"/>
      <path id="Shape-2" data-name="Shape" d="M1.448,2.9A1.448,1.448,0,1,0,0,1.448,1.448,1.448,0,0,0,1.448,2.9Z" transform="translate(61.294 11.783)" fill="#dedede"/>
      <path id="Shape-3" data-name="Shape" d="M2.413,4.826A2.413,2.413,0,1,0,0,2.413,2.413,2.413,0,0,0,2.413,4.826Z" transform="translate(93.872 10.818)" fill="#dedede"/>
      <path id="Shape-4" data-name="Shape" d="M.965,0H17.133a.965.965,0,1,1,0,1.931H.965A.965.965,0,0,1,.965,0" transform="translate(69.74 12.266)" fill="#dedede"/>
      <path id="Shape-5" data-name="Shape" d="M13.272,0A13.264,13.264,0,0,0,0,13.256V280.3A13.264,13.264,0,0,0,13.272,293.56h109.2A13.264,13.264,0,0,0,135.74,280.3V13.256A13.264,13.264,0,0,0,122.468,0h-14.6V0q-.06,0-.121,0A1.447,1.447,0,0,0,106.3,1.447v.722a8.689,8.689,0,0,1-8.7,8.677H38.14a8.688,8.688,0,0,1-8.7-8.677V1.447A1.447,1.447,0,0,0,27.992,0q-.061,0-.121,0V0Z" transform="translate(10.859 9.973)" fill="#f3f3f3"/>
      <text id="My_certificates" data-name="My certificates" transform="translate(78.79 69.613)" fill="#161f3d" font-size="9" font-family="SegoeUI, Segoe UI"><tspan x="-28.716" y="0">My certificates</tspan></text>
    </g>
  </g>
</svg>
