<svg xmlns="http://www.w3.org/2000/svg" width="70" height="46" viewBox="0 0 70 46">
    <g data-name="Rectangle 537" style="stroke:#161f3d;fill:#fff;stroke-width:4px">
        <rect width="70" height="46" rx="5" style="stroke:none"/>
        <rect x="2" y="2" width="66" height="42" rx="3" style="fill:none"/>
    </g>
    <path data-name="Tracé 206" d="M0 0h46.306" transform="translate(11.688 34.648)" style="stroke-linecap:round;stroke-width:2px;fill:none;stroke:#161f3d"/>
    <path d="M12 2a10 10 0 1 0 10 10A10 10 0 0 0 12 2zm0 3a3 3 0 1 1-3 3 3 3 0 0 1 3-3zm0 14.2a7.2 7.2 0 0 1-6-3.22c.03-1.99 4-3.08 6-3.08s5.97 1.09 6 3.08a7.2 7.2 0 0 1-6 3.22z" transform="translate(22.993 7.648)" style="fill:#161f3d"/>
</svg>
