<svg xmlns="http://www.w3.org/2000/svg" width="234.244" height="61.243" viewBox="0 0 234.244 61.243">
    <g data-name="Groupe 131">
        <g data-name="Groupe 129">
            <path data-name="Tracé 177" d="M219.945 0H12.665c-.459 0-.915.012-1.379.019a19.446 19.446 0 0 0-3.007.274 9.864 9.864 0 0 0-2.852.96A9.746 9.746 0 0 0 1.23 5.54a10.251 10.251 0 0 0-.938 2.914 20.286 20.286 0 0 0-.269 3.065c-.014.469-.015.94-.023 1.41v35.389c.007.475.009.936.023 1.411a20.285 20.285 0 0 0 .269 3.065 10.23 10.23 0 0 0 .938 2.916 9.795 9.795 0 0 0 4.2 4.276 9.917 9.917 0 0 0 2.852.966 19.8 19.8 0 0 0 3.007.271c.464.01.92.016 1.379.016h208.904c.457 0 .926-.006 1.383-.016a19.54 19.54 0 0 0 3-.271 10.07 10.07 0 0 0 2.863-.966 9.43 9.43 0 0 0 2.427-1.8 9.784 9.784 0 0 0 1.773-2.472 10.257 10.257 0 0 0 .929-2.916 21.085 21.085 0 0 0 .279-3.065c.006-.476.006-.936.006-1.411.012-.556.012-1.109.012-1.675V14.6c0-.561 0-1.117-.012-1.672 0-.469 0-.94-.006-1.41a21.089 21.089 0 0 0-.279-3.065 10.278 10.278 0 0 0-.929-2.914 9.8 9.8 0 0 0-4.2-4.287 10.015 10.015 0 0 0-2.863-.96 19.2 19.2 0 0 0-3-.271L221.571 0h-1.627z" style="fill:#a6a6a6"/>
            <path data-name="Tracé 178" d="M12.697 59.903c-.457 0-.9-.006-1.357-.016a18.661 18.661 0 0 1-2.8-.25 8.7 8.7 0 0 1-2.486-.839 8.47 8.47 0 0 1-3.627-3.695 8.887 8.887 0 0 1-.818-2.538 19.386 19.386 0 0 1-.25-2.871c-.01-.323-.022-1.4-.022-1.4V12.929s.013-1.059.022-1.37a19.318 19.318 0 0 1 .248-2.866 8.939 8.939 0 0 1 .815-2.545 8.223 8.223 0 0 1 1.523-2.14 8.359 8.359 0 0 1 2.1-1.565 8.614 8.614 0 0 1 2.48-.833 18.512 18.512 0 0 1 2.819-.251l1.353-.019H221.54l1.37.019a18.216 18.216 0 0 1 2.788.249 8.784 8.784 0 0 1 2.507.839 8.481 8.481 0 0 1 3.623 3.705 8.951 8.951 0 0 1 .8 2.525 20.3 20.3 0 0 1 .261 2.889v1.363c.012.574.012 1.121.012 1.672v32.043c0 .556 0 1.1-.012 1.646 0 .5 0 .954-.006 1.423a19.882 19.882 0 0 1-.256 2.838 8.916 8.916 0 0 1-.81 2.557 8.385 8.385 0 0 1-1.524 2.122 8.131 8.131 0 0 1-2.1 1.566 8.672 8.672 0 0 1-2.5.842 18.447 18.447 0 0 1-2.8.25c-.439.01-.9.016-1.346.016h-1.626z"/>
        </g>
        <g data-name="&lt;Group&gt;">
            <g data-name="&lt;Group&gt;">
                <path data-name="&lt;Path&gt;" d="M32.627 23.661a7.577 7.577 0 0 1 3.608-6.361 7.756 7.756 0 0 0-6.11-3.3c-2.571-.27-5.064 1.538-6.374 1.538-1.336 0-3.353-1.512-5.525-1.467a8.138 8.138 0 0 0-6.848 4.177c-2.961 5.127-.752 12.661 2.084 16.805 1.419 2.029 3.078 4.3 5.248 4.215 2.124-.088 2.917-1.354 5.48-1.354 2.54 0 3.284 1.354 5.5 1.3 2.279-.037 3.715-2.038 5.084-4.087A16.783 16.783 0 0 0 37.1 30.4a7.322 7.322 0 0 1-4.473-6.739z" transform="translate(5.295 7.42)" style="fill:#fff"/>
                <path data-name="&lt;Path&gt;" d="M23.761 14.065a7.46 7.46 0 0 0 1.707-5.345 7.59 7.59 0 0 0-4.911 2.541 7.1 7.1 0 0 0-1.751 5.147 6.276 6.276 0 0 0 4.955-2.343z" transform="translate(9.979 4.631)" style="fill:#fff"/>
            </g>
            <g data-name="Groupe 130">
                <path data-name="Tracé 179" d="M51.885 37.091V23.1h-.093l-5.731 13.846h-2.187L38.128 23.1h-.091v13.991h-2.689V18.078h3.413l6.153 15.007h.1l6.146-15.007h3.425v19.013z" transform="translate(14.016 9.6)" style="fill:#fff"/>
                <path data-name="Tracé 180" d="M49.4 31.424c0-2.424 1.857-3.887 5.152-4.085l3.795-.211v-1.054c0-1.542-1.015-2.412-2.742-2.412a2.649 2.649 0 0 0-2.911 1.951h-2.666c.079-2.5 2.412-4.282 5.652-4.282 3.307 0 5.495 1.8 5.495 4.532v9.5h-2.727v-2.28h-.066a4.956 4.956 0 0 1-4.375 2.517 4.2 4.2 0 0 1-4.607-4.176zm8.947-1.251V29.1l-3.413.211c-1.7.106-2.661.843-2.661 2.029 0 1.213 1 2 2.53 2a3.323 3.323 0 0 0 3.545-3.176z" transform="translate(21.476 11.327)" style="fill:#fff"/>
                <path data-name="Tracé 181" d="M68.293 26.278a3.061 3.061 0 0 0-3.267-2.555c-2.187 0-3.636 1.832-3.636 4.717 0 2.951 1.462 4.729 3.662 4.729a2.983 2.983 0 0 0 3.242-2.49h2.741a5.54 5.54 0 0 1-6.008 4.862c-3.953 0-6.535-2.7-6.535-7.1 0-4.309 2.582-7.1 6.509-7.1a5.572 5.572 0 0 1 6.009 4.94z" transform="translate(26.306 11.32)" style="fill:#fff"/>
                <path data-name="Tracé 182" d="M82.941 31.952h-7.247l-1.74 5.139h-3.07l6.864-19.013h3.189L87.8 37.091h-3.12zm-6.5-2.371h5.745l-2.832-8.34h-.079z" transform="translate(32.888 9.6)" style="fill:#fff"/>
                <path data-name="Tracé 183" d="M96.146 28.425c0 4.308-2.306 7.075-5.785 7.075A4.7 4.7 0 0 1 86 33.075h-.066v6.866h-2.846V21.494h2.754V23.8h.052a4.917 4.917 0 0 1 4.414-2.451c3.519 0 5.838 2.781 5.838 7.076zm-2.925 0c0-2.806-1.45-4.652-3.663-4.652-2.174 0-3.636 1.884-3.636 4.652 0 2.793 1.462 4.663 3.636 4.663 2.213 0 3.663-1.832 3.663-4.663z" transform="translate(39.369 11.335)" style="fill:#fff"/>
                <path data-name="Tracé 184" d="M106.111 28.425c0 4.308-2.306 7.075-5.785 7.075a4.7 4.7 0 0 1-4.361-2.425H95.9v6.866h-2.847V21.494h2.754V23.8h.052a4.917 4.917 0 0 1 4.414-2.451c3.519 0 5.838 2.781 5.838 7.076zm-2.925 0c0-2.806-1.45-4.652-3.663-4.652-2.174 0-3.636 1.884-3.636 4.652 0 2.793 1.462 4.663 3.636 4.663 2.213.001 3.663-1.831 3.663-4.663z" transform="translate(44.661 11.335)" style="fill:#fff"/>
                <path data-name="Tracé 185" d="M109.178 31.9c.211 1.885 2.042 3.123 4.545 3.123 2.4 0 4.124-1.238 4.124-2.938 0-1.476-1.041-2.359-3.5-2.965l-2.464-.594c-3.491-.843-5.112-2.476-5.112-5.125 0-3.28 2.859-5.534 6.918-5.534 4.018 0 6.772 2.253 6.864 5.534h-2.872c-.172-1.9-1.74-3.043-4.033-3.043s-3.861 1.159-3.861 2.845c0 1.344 1 2.135 3.452 2.741l2.095.514c3.9.923 5.522 2.49 5.522 5.271 0 3.557-2.833 5.785-7.34 5.785-4.216 0-7.063-2.175-7.247-5.614z" transform="translate(51.677 9.49)" style="fill:#fff"/>
                <path data-name="Tracé 186" d="M121.494 19.3v3.28h2.636v2.253h-2.636v7.642c0 1.187.528 1.74 1.687 1.74a8.891 8.891 0 0 0 .936-.066v2.24a7.814 7.814 0 0 1-1.58.132c-2.806 0-3.9-1.054-3.9-3.742v-7.946h-2.017V22.58h2.016V19.3z" transform="translate(57.176 10.249)" style="fill:#fff"/>
                <path data-name="Tracé 187" d="M122.521 28.433c0-4.361 2.569-7.1 6.574-7.1s6.576 2.741 6.576 7.1-2.543 7.1-6.576 7.1-6.574-2.726-6.574-7.1zm10.251 0c0-2.992-1.371-4.758-3.677-4.758s-3.677 1.779-3.677 4.758c0 3 1.371 4.756 3.677 4.756s3.677-1.752 3.677-4.756z" transform="translate(60.31 11.327)" style="fill:#fff"/>
                <path data-name="Tracé 188" d="M132.643 21.494h2.714v2.359h.066a3.306 3.306 0 0 1 3.334-2.5 4.388 4.388 0 0 1 .975.106v2.661a3.978 3.978 0 0 0-1.278-.172 2.867 2.867 0 0 0-2.965 3.189v8.222h-2.845z" transform="translate(65.686 11.335)" style="fill:#fff"/>
                <path data-name="Tracé 189" d="M150.178 31.292c-.383 2.516-2.833 4.243-5.969 4.243-4.033 0-6.535-2.7-6.535-7.036s2.516-7.168 6.416-7.168c3.835 0 6.247 2.635 6.247 6.837v.975h-9.79v.172a3.61 3.61 0 0 0 3.729 3.926 3.136 3.136 0 0 0 3.2-1.95zm-9.618-4.137h6.93a3.334 3.334 0 0 0-3.4-3.518 3.509 3.509 0 0 0-3.53 3.518z" transform="translate(68.357 11.327)" style="fill:#fff"/>
            </g>
        </g>
    </g>
    <g data-name="&lt;Group&gt;">
        <g data-name="Groupe 132">
            <path data-name="Tracé 190" d="M38.971 8.735a4.041 4.041 0 0 1 4.3 4.539c0 2.919-1.577 4.6-4.3 4.6h-3.3V8.735zm-1.881 7.843h1.722a2.872 2.872 0 0 0 3.013-3.286 2.88 2.88 0 0 0-3.013-3.267H37.09z" transform="translate(16.993 4.634)" style="fill:#fff"/>
            <path data-name="Tracé 191" d="M41.686 13.685a3.266 3.266 0 1 1 6.5 0 3.267 3.267 0 1 1-6.5 0zm5.1 0c0-1.494-.671-2.368-1.85-2.368s-1.848.874-1.848 2.368.665 2.374 1.848 2.374 1.85-.873 1.85-2.374z" transform="translate(20.179 5.368)" style="fill:#fff"/>
            <path data-name="Tracé 192" d="M54.231 17.089h-1.412l-1.425-5.078h-.108l-1.419 5.078h-1.4l-1.9-6.894h1.38l1.235 5.261h.1l1.418-5.261h1.305l1.417 5.261h.108l1.229-5.261h1.361z" transform="translate(22.781 5.415)" style="fill:#fff"/>
            <path data-name="Tracé 193" d="M53.854 10.243h1.31v1.1h.1a2.064 2.064 0 0 1 2.057-1.228 2.242 2.242 0 0 1 2.386 2.564v4.463h-1.359v-4.126c0-1.108-.481-1.659-1.488-1.659a1.581 1.581 0 0 0-1.646 1.743v4.033h-1.36z" transform="translate(26.649 5.366)" style="fill:#fff"/>
            <path data-name="Tracé 194" d="M59.094 8.437h1.361v9.586h-1.361z" transform="translate(29.432 4.481)" style="fill:#fff"/>
            <path data-name="Tracé 195" d="M61.223 13.685a3.266 3.266 0 1 1 6.5 0 3.267 3.267 0 1 1-6.5 0zm5.1 0c0-1.494-.671-2.368-1.85-2.368s-1.848.874-1.848 2.368.665 2.374 1.848 2.374 1.85-.873 1.85-2.374z" transform="translate(30.555 5.368)" style="fill:#fff"/>
            <path data-name="Tracé 196" d="M66.4 15.186c0-1.241.924-1.956 2.564-2.058l1.867-.108v-.6c0-.728-.481-1.139-1.411-1.139-.76 0-1.286.279-1.437.766h-1.316c.139-1.184 1.253-1.944 2.817-1.944 1.728 0 2.7.86 2.7 2.317v4.711h-1.31v-.969h-.108a2.32 2.32 0 0 1-2.066 1.087 2.083 2.083 0 0 1-2.3-2.063zm4.432-.589v-.577l-1.684.108c-.949.064-1.38.387-1.38.994s.538.982 1.278.982a1.625 1.625 0 0 0 1.786-1.504z" transform="translate(33.312 5.368)" style="fill:#fff"/>
            <path data-name="Tracé 197" d="M71.348 14.572c0-2.178 1.12-3.559 2.862-3.559a2.272 2.272 0 0 1 2.114 1.21h.1V8.437h1.361v9.586h-1.3v-1.09h-.108a2.393 2.393 0 0 1-2.165 1.2c-1.756.003-2.864-1.377-2.864-3.561zm1.406 0c0 1.462.689 2.342 1.842 2.342s1.856-.893 1.856-2.336-.716-2.342-1.856-2.342-1.842.886-1.842 2.336z" transform="translate(35.94 4.481)" style="fill:#fff"/>
            <path data-name="Tracé 198" d="M79.235 13.685a3.266 3.266 0 1 1 6.5 0 3.267 3.267 0 1 1-6.5 0zm5.1 0c0-1.494-.671-2.368-1.85-2.368s-1.848.874-1.848 2.368.665 2.374 1.848 2.374 1.85-.873 1.85-2.374z" transform="translate(40.12 5.368)" style="fill:#fff"/>
            <path data-name="Tracé 199" d="M84.669 10.243h1.31v1.1h.1a2.064 2.064 0 0 1 2.057-1.228 2.242 2.242 0 0 1 2.386 2.564v4.463h-1.358v-4.126c0-1.108-.481-1.659-1.488-1.659A1.581 1.581 0 0 0 86.03 13.1v4.033h-1.361z" transform="translate(43.014 5.366)" style="fill:#fff"/>
            <path data-name="Tracé 200" d="M94.367 9.074v1.748h1.494v1.146h-1.494v3.545c0 .722.3 1.038.975 1.038a4.542 4.542 0 0 0 .519-.031v1.133a4.464 4.464 0 0 1-.74.07c-1.513 0-2.116-.532-2.116-1.862v-3.893h-1.094v-1.146h1.094V9.074z" transform="translate(46.86 4.819)" style="fill:#fff"/>
            <path data-name="Tracé 201" d="M95.7 8.437h1.349v3.8h.108A2.121 2.121 0 0 1 99.263 11a2.271 2.271 0 0 1 2.374 2.57v4.451h-1.362v-4.114c0-1.1-.513-1.659-1.474-1.659A1.611 1.611 0 0 0 97.065 14v4.027H95.7z" transform="translate(48.875 4.481)" style="fill:#fff"/>
            <path data-name="Tracé 202" d="M106.912 15.274a2.8 2.8 0 0 1-2.987 1.995 3.131 3.131 0 0 1-3.185-3.559 3.18 3.18 0 0 1 3.179-3.6c1.918 0 3.076 1.311 3.076 3.476v.475h-4.868v.076a1.822 1.822 0 0 0 1.836 1.975 1.653 1.653 0 0 0 1.64-.836zm-4.786-2.222h3.482a1.663 1.663 0 0 0-1.7-1.786 1.763 1.763 0 0 0-1.785 1.786z" transform="translate(51.533 5.368)" style="fill:#fff"/>
        </g>
    </g>
</svg>
