<svg xmlns="http://www.w3.org/2000/svg" width="36" height="36" viewBox="0 0 36 36">
    <path data-name="icon-linkedin-footer" d="M18 36a18 18 0 0 1-7.006-34.585 18 18 0 0 1 14.013 33.17A17.887 17.887 0 0 1 18 36zm3.285-18.163c.943 0 2.067.481 2.067 2.771v6.557h4.079v-7.028a5.957 5.957 0 0 0-1.342-4.17 4.418 4.418 0 0 0-3.355-1.347 4.215 4.215 0 0 0-2.447.7 4.571 4.571 0 0 0-1.229 1.325v-1.736h-4.08c.053 1.137 0 12.145 0 12.256h4.08V20.32a2.7 2.7 0 0 1 .134-.994 2.54 2.54 0 0 1 .734-1.019 2.1 2.1 0 0 1 1.36-.47zM8.641 14.908v12.257h4.079V14.908zM10.708 9a2.124 2.124 0 1 0-.053 4.236h.026a2.379 2.379 0 0 0 1.687-.618 2.051 2.051 0 0 0 .621-1.5A2.116 2.116 0 0 0 10.708 9z" style="fill:#09a0c9;opacity:.93"/>
</svg>
