<svg xmlns="http://www.w3.org/2000/svg" width="36" height="36" viewBox="0 0 36 36">
    <path data-name="icon-twitter-footer" d="M18 36a18 18 0 0 1-7.006-34.585 18 18 0 0 1 14.013 33.17A17.887 17.887 0 0 1 18 36zM9.577 15.917c-.02 0-.031 0-.036.01a4.528 4.528 0 0 0 .454 1.7 4.06 4.06 0 0 0 1.725 1.627l.617.292-.73.012c-.452 0-.615.006-.666.073-.032.042-.016.109.011.207a3.8 3.8 0 0 0 2.354 2.084l.78.267-.68.406a7.139 7.139 0 0 1-3.374.941 3.815 3.815 0 0 0-1.033.1 9.5 9.5 0 0 0 2.43 1.118 10.18 10.18 0 0 0 3 .439 10.49 10.49 0 0 0 5.26-1.379 11 11 0 0 0 4.192-4.932 13.171 13.171 0 0 0 .856-3.813c0-.588.042-.665.743-1.36a8.3 8.3 0 0 0 .882-.979c.046-.089.073-.145.058-.169s-.02-.015-.041-.015a2.863 2.863 0 0 0-.546.159 3.537 3.537 0 0 1-.883.245c-.056 0-.089-.013-.1-.04-.027-.062.063-.2.291-.447A3.712 3.712 0 0 0 26 11.11c0-.007-.007-.011-.021-.011a1.25 1.25 0 0 0-.382.151 7.036 7.036 0 0 1-1.108.432l-.68.216-.617-.419a5.087 5.087 0 0 0-1.07-.56 3.929 3.929 0 0 0-1.006-.119 3.819 3.819 0 0 0-1.2.17 3.631 3.631 0 0 0-2.455 3.661l.038.623-.63-.076a10.268 10.268 0 0 1-5.993-2.949l-.831-.826-.215.61a3.679 3.679 0 0 0 .781 3.762c.228.241.321.382.3.443-.011.025-.041.037-.093.037a2.548 2.548 0 0 1-.681-.188 2.559 2.559 0 0 0-.56-.15z" style="fill:#09a0c9;opacity:.93"/>
</svg>
