<svg xmlns="http://www.w3.org/2000/svg" width="208" height="61.401" viewBox="0 0 208 61.401">
    <defs>
        <linearGradient id="zo7ruz2lba" x1=".915" y1="6.547" x2="-.383" y2="5.878" gradientUnits="objectBoundingBox">
            <stop offset="0" stop-color="#00a0ff"/>
            <stop offset=".007" stop-color="#00a1ff"/>
            <stop offset=".26" stop-color="#00beff"/>
            <stop offset=".512" stop-color="#00d2ff"/>
            <stop offset=".76" stop-color="#00dfff"/>
            <stop offset="1" stop-color="#00e3ff"/>
        </linearGradient>
        <linearGradient id="ip29v2747b" x1="1.076" y1="16.904" x2="-1.305" y2="16.904" gradientUnits="objectBoundingBox">
            <stop offset="0" stop-color="#ffe000"/>
            <stop offset=".409" stop-color="#ffbd00"/>
            <stop offset=".775" stop-color="orange"/>
            <stop offset="1" stop-color="#ff9c00"/>
        </linearGradient>
        <linearGradient id="9untva2ygc" x1=".862" y1="10.733" x2="-.501" y2="8.963" gradientUnits="objectBoundingBox">
            <stop offset="0" stop-color="#ff3a44"/>
            <stop offset="1" stop-color="#c31162"/>
        </linearGradient>
        <linearGradient id="e178lc5b8d" x1="-.188" y1="13.452" x2=".421" y2="12.662" gradientUnits="objectBoundingBox">
            <stop offset="0" stop-color="#32a071"/>
            <stop offset=".068" stop-color="#2da771"/>
            <stop offset=".476" stop-color="#15cf74"/>
            <stop offset=".801" stop-color="#06e775"/>
            <stop offset="1" stop-color="#00f076"/>
        </linearGradient>
    </defs>
    <rect data-name="Rectangle 1672" width="208" height="61" rx="5" transform="translate(0 .114)"/>
    <g data-name="Groupe 3045">
        <g data-name="Groupe 3044">
            <path data-name="Tracé 9786" d="M208.3 12.068a6.454 6.454 0 0 1 6.447 6.447v46.051a6.454 6.454 0 0 1-6.447 6.447H16.419a6.454 6.454 0 0 1-6.447-6.447V18.515a6.454 6.454 0 0 1 6.447-6.447H208.3m0-1.228H16.419a7.7 7.7 0 0 0-7.675 7.675v46.051a7.7 7.7 0 0 0 7.675 7.675H208.3a7.7 7.7 0 0 0 7.675-7.675V18.515a7.7 7.7 0 0 0-7.675-7.675z" transform="translate(-8.459 -10.84)" style="fill:#a6a6a6"/>
        </g>
    </g>
    <g data-name="Groupe 3046">
        <path data-name="Tracé 9787" d="M59.409 22.89a4.159 4.159 0 0 1-1.145 3.075 4.461 4.461 0 0 1-3.383 1.363 4.744 4.744 0 0 1-4.781-4.811 4.742 4.742 0 0 1 4.785-4.811 4.768 4.768 0 0 1 1.891.385 3.8 3.8 0 0 1 1.44 1.028l-.809.81a3.114 3.114 0 0 0-2.522-1.093 3.562 3.562 0 0 0-3.585 3.681 3.621 3.621 0 0 0 6.149 2.649 2.9 2.9 0 0 0 .772-1.865h-3.34v-1.107h4.464a3.961 3.961 0 0 1 .064.696z" transform="translate(13.666 -7.166)" style="stroke:#fff;stroke-miterlimit:10;stroke-width:.2px;fill:#fff"/>
        <path data-name="Tracé 9788" d="M62.646 18.971h-4.2v2.92h3.782V23h-3.777v2.921h4.2v1.129h-5.382v-9.21h5.377z" transform="translate(17.504 -7.094)" style="stroke:#fff;stroke-miterlimit:10;stroke-width:.2px;fill:#fff"/>
        <path data-name="Tracé 9789" d="M65.332 27.05h-1.185v-8.079h-2.571V17.84H67.9v1.131h-2.568z" transform="translate(19.808 -7.094)" style="stroke:#fff;stroke-miterlimit:10;stroke-width:.2px;fill:#fff"/>
        <path data-name="Tracé 9790" d="M68.682 27.05v-9.21h1.184v9.21z" transform="translate(23.61 -7.094)" style="stroke:#fff;stroke-miterlimit:10;stroke-width:.2px;fill:#fff"/>
        <path data-name="Tracé 9791" d="M74.181 27.05H73v-8.079h-2.575V17.84h6.329v1.131h-2.573z" transform="translate(24.543 -7.094)" style="stroke:#fff;stroke-miterlimit:10;stroke-width:.2px;fill:#fff"/>
        <path data-name="Tracé 9792" d="M85.18 25.931a4.779 4.779 0 0 1-6.753 0 4.975 4.975 0 0 1 0-6.829 4.769 4.769 0 0 1 6.748.006 4.961 4.961 0 0 1 0 6.823zm-5.88-.771a3.543 3.543 0 0 0 5 0 3.607 3.607 0 0 0 1.024-2.643 3.6 3.6 0 0 0-1.024-2.644 3.539 3.539 0 0 0-5 0 3.61 3.61 0 0 0-1.022 2.643A3.612 3.612 0 0 0 79.3 25.16z" transform="translate(28.098 -7.166)" style="stroke:#fff;stroke-miterlimit:10;stroke-width:.2px;fill:#fff"/>
        <path data-name="Tracé 9793" d="M84.319 27.05v-9.21h1.441L90.237 25h.051l-.051-1.774V17.84h1.183v9.21h-1.234L85.5 19.538h-.051l.051 1.776v5.736z" transform="translate(31.976 -7.094)" style="stroke:#fff;stroke-miterlimit:10;stroke-width:.2px;fill:#fff"/>
    </g>
    <path data-name="Tracé 9794" d="M91.376 35.108a6.529 6.529 0 1 0 6.553 6.53 6.436 6.436 0 0 0-6.553-6.53zm0 10.486a3.967 3.967 0 1 1 3.684-3.956 3.777 3.777 0 0 1-3.684 3.955zM77.08 35.108a6.529 6.529 0 1 0 6.553 6.53 6.436 6.436 0 0 0-6.553-6.53zm0 10.486a3.967 3.967 0 1 1 3.684-3.956 3.777 3.777 0 0 1-3.684 3.955zm-17.006-8.483v2.771H66.7a5.78 5.78 0 0 1-1.507 3.486 6.783 6.783 0 0 1-5.119 2.032 7.37 7.37 0 0 1 0-14.738 7.06 7.06 0 0 1 4.995 1.977l1.954-1.953a9.663 9.663 0 0 0-6.949-2.8 10.141 10.141 0 1 0 0 20.279 9.271 9.271 0 0 0 7.072-2.844 9.147 9.147 0 0 0 2.4-6.479 8.975 8.975 0 0 0-.149-1.732zm69.549 2.152a6.067 6.067 0 0 0-5.589-4.155 6.2 6.2 0 0 0-6.157 6.53 6.389 6.389 0 0 0 6.479 6.528 6.493 6.493 0 0 0 5.44-2.894l-2.226-1.484a3.728 3.728 0 0 1-3.214 1.805 3.322 3.322 0 0 1-3.167-1.979l8.73-3.61zm-8.9 2.177a3.581 3.581 0 0 1 3.412-3.808 2.526 2.526 0 0 1 2.424 1.385zm-7.1 6.33h2.867V28.579h-2.867zm-4.7-11.2h-.1a4.526 4.526 0 0 0-3.437-1.46 6.535 6.535 0 0 0 0 13.058 4.448 4.448 0 0 0 3.437-1.484h.1v.939c0 2.5-1.335 3.833-3.488 3.833a3.612 3.612 0 0 1-3.29-2.324l-2.5 1.039a6.223 6.223 0 0 0 5.787 3.858c3.363 0 6.208-1.979 6.208-6.8V35.5h-2.72zm-3.29 9.026a3.971 3.971 0 0 1 0-7.913c1.954 0 3.486 1.681 3.486 3.982a3.647 3.647 0 0 1-3.484 3.928zm37.427-17.015h-6.86V47.77h2.863V40.5h4a5.969 5.969 0 1 0 0-11.919zm.074 9.249h-4.074v-6.58h4.074a3.29 3.29 0 1 1 0 6.579zm17.7-2.757a5.379 5.379 0 0 0-5.11 2.938l2.542 1.062a2.713 2.713 0 0 1 2.617-1.408 2.757 2.757 0 0 1 3.012 2.468v.2a6.336 6.336 0 0 0-2.987-.74c-2.74 0-5.531 1.506-5.531 4.32 0 2.568 2.247 4.221 4.765 4.221a4.039 4.039 0 0 0 3.655-1.876h.1v1.481h2.765v-7.358c-.001-3.407-2.543-5.309-5.826-5.309zm-.344 10.517c-.939 0-2.247-.47-2.247-1.63 0-1.481 1.63-2.049 3.036-2.049a5.085 5.085 0 0 1 2.617.643 3.472 3.472 0 0 1-3.406 3.036zm16.244-10.1-3.283 8.32h-.1l-3.406-8.32h-3.087l5.11 11.628-2.912 6.469h2.987l7.875-18.1zm-25.8 12.277h2.866V28.581h-2.864z" transform="translate(13.499 -1.719)" style="fill:#fff"/>
    <g data-name="Groupe 3048">
        <path data-name="Tracé 9795" d="M19.426 18.417a3.081 3.081 0 0 0-.709 2.157v33.948a3.078 3.078 0 0 0 .709 2.157l.114.111 19.017-19.018v-.448L19.54 18.3z" transform="translate(-3.123 -6.846)" style="fill:url(#zo7ruz2lba)"/>
        <path data-name="Tracé 9796" d="m37.982 39.695-6.34-6.341v-.448l6.341-6.341.143.081 7.511 4.267c2.144 1.219 2.144 3.214 0 4.433l-7.511 4.267z" transform="translate(3.792 -2.427)" style="fill:url(#ip29v2747b)"/>
        <path data-name="Tracé 9797" d="m44.794 37.325-6.484-6.484-19.131 19.131c.708.748 1.876.841 3.191.094l22.424-12.741" transform="translate(-2.876 -.139)" style="fill:url(#9untva2ygc)"/>
        <path data-name="Tracé 9798" d="M44.794 31.238 22.37 18.5c-1.316-.746-2.484-.654-3.191.1L38.31 37.722z" transform="translate(-2.876 -7.019)" style="fill:url(#e178lc5b8d)"/>
        <g data-name="Groupe 3047">
            <path data-name="Tracé 9799" d="M44.651 34.972 22.37 47.631a2.558 2.558 0 0 1-3.076.017l-.115.114.114.111a2.556 2.556 0 0 0 3.076-.017l22.425-12.741z" transform="translate(-2.876 2.072)" style="isolation:isolate;opacity:.2"/>
            <path data-name="Tracé 9800" d="M19.426 43.91a3.081 3.081 0 0 1-.709-2.157v.224a3.078 3.078 0 0 0 .709 2.157l.115-.114z" transform="translate(-3.123 5.7)" style="opacity:.12;isolation:isolate"/>
        </g>
        <path data-name="Tracé 9801" d="m43.427 32.833-7.654 4.349.143.143 7.511-4.267a2.7 2.7 0 0 0 1.609-2.217 2.859 2.859 0 0 1-1.609 1.992z" transform="translate(6.002 -.139)" style="opacity:.12;isolation:isolate"/>
        <path data-name="Tracé 9802" d="m22.617 18.721 29.935 17.008a2.856 2.856 0 0 1 1.609 1.992 2.69 2.69 0 0 0-1.609-2.217L22.617 18.5c-2.146-1.219-3.9-.207-3.9 2.25v.224c0-2.458 1.755-3.474 3.9-2.253z" transform="translate(-3.123 -7.019)" style="opacity:.25;isolation:isolate;fill:#fff"/>
    </g>
</svg>
