<svg xmlns="http://www.w3.org/2000/svg" width="467.835" height="396.215" viewBox="0 0 467.835 396.215">
    <defs>
        <filter id="g62gzivfya" x="0" y="53.3" width="467.835" height="342.915" filterUnits="userSpaceOnUse">
            <feOffset dy="13"/>
            <feGaussianBlur stdDeviation="16" result="blur"/>
            <feFlood flood-opacity=".365"/>
            <feComposite operator="in" in2="blur"/>
            <feComposite in="SourceGraphic"/>
        </filter>
        <filter id="bq1luw4s9b" x="0" y="53.3" width="467.835" height="342.915" filterUnits="userSpaceOnUse">
            <feOffset dy="13"/>
            <feGaussianBlur stdDeviation="16" result="blur-2"/>
            <feFlood flood-opacity=".365"/>
            <feComposite operator="in" in2="blur-2"/>
            <feComposite in="SourceGraphic"/>
        </filter>
        <filter id="5n2r1t11tc" x="141.917" y="0" width="183.838" height="183.838" filterUnits="userSpaceOnUse">
            <feOffset dy="11"/>
            <feGaussianBlur stdDeviation="13" result="blur-3"/>
            <feFlood flood-opacity=".173"/>
            <feComposite operator="in" in2="blur-3"/>
            <feComposite in="SourceGraphic"/>
        </filter>
    </defs>
    <g data-name="Wallet - Activation pass section">
        <g style="filter:url(#g62gzivfya)">
            <rect data-name="Rectangle 595" width="371.835" height="246.915" rx="10" transform="translate(47.997 88.3)" style="fill:#3c3b3b"/>
        </g>
        <g style="filter:url(#bq1luw4s9b)">
            <rect data-name="Rectangle 595" width="371.835" height="246.915" rx="10" transform="translate(47.997 88.301)" style="fill:#3c3b3b"/>
        </g>
        <path data-name="Tracé 9754" d="M10 0h351.835a10 10 0 0 1 10 10v226.915a10 10 0 0 1-10 10H10a10 10 0 0 1-10-10V10A10 10 0 0 1 10 0z" transform="translate(48 85.232)" style="fill:#f5f5f5"/>
        <g data-name="Groupe 3014" transform="translate(-157.083 -2438.999)">
            <rect data-name="Rectangle 601" width="65" height="65" rx="5" transform="translate(225 2688)" style="fill:#161f3d"/>
            <path data-name="Ligne 102" transform="translate(313.5 2693.5)" style="fill:none;stroke:#161f3d;stroke-linecap:round;stroke-width:10px" d="M0 0h140"/>
            <path data-name="Ligne 103" transform="translate(313.5 2720.5)" style="fill:none;stroke:#161f3d;stroke-linecap:round;stroke-width:10px" d="M0 0h90"/>
            <path data-name="Ligne 104" transform="translate(313.5 2747.5)" style="fill:none;stroke:#161f3d;stroke-linecap:round;stroke-width:10px" d="M0 0h90"/>
            <path data-name="Rectangle 602" transform="translate(205 2607)" style="opacity:.043;fill:#161f3d" d="M0 0h372v57H0z"/>
        </g>
        <g>
            <g style="filter:url(#5n2r1t11tc)">
                <path data-name="Tracé 9746" d="M6.873 0h92.092c3.8 0 6.873 3.385 6.873 7.56v90.718c0 4.175-3.077 7.56-6.873 7.56H6.873c-3.8 0-6.873-3.385-6.873-7.56V7.56C0 3.385 3.077 0 6.873 0z" transform="translate(180.918 27.998)" style="fill:#efcd26"/>
            </g>
            <path d="M26.854 2a24.854 24.854 0 1 0 24.855 24.854A24.864 24.864 0 0 0 26.854 2zm-4.97 37.282L9.456 26.854l3.5-3.5 8.923 8.9 18.869-18.871 3.5 3.529z" transform="translate(206.917 54.002)" style="fill:#161f3d"/>
        </g>
    </g>
</svg>
